<ttFont>
    <TTGlyph name=".notdef" xMin="193" yMin="0" xMax="1034" yMax="1462">
      <contour>
        <pt x="193" y="1462" on="1"/>
        <pt x="1034" y="1462" on="1"/>
        <pt x="1034" y="0" on="1"/>
        <pt x="193" y="0" on="1"/>
      </contour>
      <contour>
        <pt x="297" y="104" on="1"/>
        <pt x="930" y="104" on="1"/>
        <pt x="930" y="1358" on="1"/>
        <pt x="297" y="1358" on="1"/>
      </contour>
    </TTGlyph>
    <TTGlyph name="A" xMin="-117" yMin="0" xMax="1040" yMax="1462">
      <contour>
        <pt x="813" y="465" on="1"/>
        <pt x="317" y="465" on="1"/>
        <pt x="72" y="0" on="1"/>
        <pt x="-117" y="0" on="1"/>
        <pt x="682" y="1462" on="1"/>
        <pt x="856" y="1462" on="1"/>
        <pt x="1040" y="0" on="1"/>
        <pt x="870" y="0" on="1"/>
      </contour>
      <contour>
        <pt x="795" y="621" on="1"/>
        <pt x="760" y="920" on="1"/>
        <pt x="736" y="1099" on="0"/>
        <pt x="731" y="1270" on="1"/>
        <pt x="694" y="1182" on="0"/>
        <pt x="607" y="1008" on="0"/>
        <pt x="401" y="621" on="1"/>
      </contour>
    </TTGlyph>
    <TTGlyph name="AE" xMin="-119" yMin="0" xMax="1757" yMax="1462">
      <contour>
        <pt x="1448" y="0" on="1"/>
        <pt x="711" y="0" on="1"/>
        <pt x="809" y="465" on="1"/>
        <pt x="371" y="465" on="1"/>
        <pt x="78" y="0" on="1"/>
        <pt x="-119" y="0" on="1"/>
        <pt x="819" y="1462" on="1"/>
        <pt x="1757" y="1462" on="1"/>
        <pt x="1724" y="1309" on="1"/>
        <pt x="1159" y="1309" on="1"/>
        <pt x="1059" y="840" on="1"/>
        <pt x="1587" y="840" on="1"/>
        <pt x="1559" y="690" on="1"/>
        <pt x="1030" y="690" on="1"/>
        <pt x="915" y="152" on="1"/>
        <pt x="1481" y="152" on="1"/>
      </contour>
      <contour>
        <pt x="840" y="621" on="1"/>
        <pt x="987" y="1309" on="1"/>
        <pt x="903" y="1309" on="1"/>
        <pt x="469" y="621" on="1"/>
      </contour>
    </TTGlyph>
    <TTGlyph name="AEacute" xMin="-119" yMin="0" xMax="1757" yMax="1907">
      <component glyphName="AE" x="0" y="0" flags="0x204"/>
      <component glyphName="acute" x="596" y="338" flags="0x4"/>
    </TTGlyph>
    <TTGlyph name="Aacute" xMin="-117" yMin="0" xMax="1101" yMax="1907">
      <component glyphName="A" x="0" y="0" flags="0x204"/>
      <component glyphName="acute" x="147" y="338" flags="0x4"/>
    </TTGlyph>
    <TTGlyph name="Abreve" xMin="-117" yMin="0" xMax="1102" yMax="1847">
      <component glyphName="A" x="0" y="0" flags="0x204"/>
      <component glyphName="breve" x="51" y="338" flags="0x4"/>
    </TTGlyph>
    <TTGlyph name="Acircumflex" xMin="-117" yMin="0" xMax="1080" yMax="1907">
      <component glyphName="A" x="0" y="0" flags="0x204"/>
      <component glyphName="circumflex" x="66" y="338" flags="0x4"/>
    </TTGlyph>
    <TTGlyph name="Adieresis" xMin="-117" yMin="0" xMax="1067" yMax="1829">
      <component glyphName="A" x="0" y="0" flags="0x204"/>
      <component glyphName="dieresis" x="66" y="338" flags="0x4"/>
    </TTGlyph>
    <TTGlyph name="Agrave" xMin="-117" yMin="0" xMax="1040" yMax="1907">
      <component glyphName="A" x="0" y="0" flags="0x204"/>
      <component glyphName="grave" x="-40" y="338" flags="0x4"/>
    </TTGlyph>
    <TTGlyph name="Alpha" xMin="-117" yMin="0" xMax="1040" yMax="1462">
      <component glyphName="A" x="0" y="0" flags="0x204"/>
    </TTGlyph>
    <TTGlyph name="Alphatonos" xMin="-117" yMin="0" xMax="1040" yMax="1548">
      <component glyphName="A" x="0" y="0" flags="0x204"/>
      <component glyphName="tonos" x="-484" y="-105" flags="0x4"/>
    </TTGlyph>
    <TTGlyph name="Amacron" xMin="-117" yMin="0" xMax="1079" yMax="1720">
      <component glyphName="A" x="0" y="0" flags="0x204"/>
      <component glyphName="macron" x="98" y="338" flags="0x4"/>
    </TTGlyph>
    <TTGlyph name="Aogonek" xMin="-117" yMin="-440" xMax="1040" yMax="1462">
      <component glyphName="A" x="0" y="0" flags="0x204"/>
      <component glyphName="ogonek" x="813" y="0" flags="0x4"/>
    </TTGlyph>
    <TTGlyph name="Aring" xMin="-117" yMin="0" xMax="1040" yMax="1794">
      <component glyphName="A" x="0" y="0" flags="0x204"/>
      <component glyphName="ring" x="2" y="129" flags="0x4"/>
    </TTGlyph>
    <TTGlyph name="Aringacute" xMin="-115" yMin="0" xMax="1122" yMax="1962">
      <contour>
        <pt x="975" y="1432" on="1"/>
        <pt x="975" y="1314" on="0"/>
        <pt x="885" y="1251" on="1"/>
        <pt x="1040" y="0" on="1"/>
        <pt x="872" y="0" on="1"/>
        <pt x="817" y="467" on="1"/>
        <pt x="319" y="467" on="1"/>
        <pt x="72" y="0" on="1"/>
        <pt x="-115" y="0" on="1"/>
        <pt x="580" y="1286" on="1"/>
        <pt x="535" y="1340" on="0"/>
        <pt x="535" y="1430" on="1"/>
        <pt x="535" y="1525" on="0"/>
        <pt x="660" y="1642" on="0"/>
        <pt x="754" y="1642" on="1"/>
        <pt x="854" y="1642" on="0"/>
        <pt x="975" y="1527" on="0"/>
      </contour>
      <contour>
        <pt x="682" y="1714" on="1"/>
        <pt x="785" y="1805" on="0"/>
        <pt x="909" y="1962" on="1"/>
        <pt x="1122" y="1962" on="1"/>
        <pt x="1122" y="1944" on="1"/>
        <pt x="1079" y="1898" on="0"/>
        <pt x="873" y="1737" on="0"/>
        <pt x="801" y="1692" on="1"/>
        <pt x="682" y="1692" on="1"/>
      </contour>
      <contour>
        <pt x="868" y="1430" on="1"/>
        <pt x="868" y="1484" on="0"/>
        <pt x="805" y="1544" on="0"/>
        <pt x="754" y="1544" on="1"/>
        <pt x="704" y="1544" on="0"/>
        <pt x="639" y="1484" on="0"/>
        <pt x="639" y="1430" on="1"/>
        <pt x="639" y="1376" on="0"/>
        <pt x="698" y="1315" on="0"/>
        <pt x="754" y="1315" on="1"/>
        <pt x="805" y="1315" on="0"/>
        <pt x="868" y="1376" on="0"/>
      </contour>
      <contour>
        <pt x="707" y="1208" on="1"/>
        <pt x="670" y="1129" on="0"/>
        <pt x="585" y="961" on="0"/>
        <pt x="403" y="621" on="1"/>
        <pt x="797" y="621" on="1"/>
        <pt x="746" y="1063" on="0"/>
        <pt x="735" y="1208" on="1"/>
      </contour>
    </TTGlyph>
    <TTGlyph name="Atilde" xMin="-117" yMin="0" xMax="1167" yMax="1839">
      <component glyphName="A" x="0" y="0" flags="0x204"/>
      <component glyphName="tilde" x="96" y="338" flags="0x4"/>
    </TTGlyph>
    <TTGlyph name="B" xMin="86" yMin="0" xMax="1202" yMax="1462">
      <contour>
        <pt x="770" y="1462" on="1"/>
        <pt x="1202" y="1462" on="0"/>
        <pt x="1202" y="1126" on="1"/>
        <pt x="1202" y="985" on="0"/>
        <pt x="1028" y="791" on="0"/>
        <pt x="870" y="762" on="1"/>
        <pt x="870" y="752" on="1"/>
        <pt x="985" y="720" on="0"/>
        <pt x="1108" y="563" on="0"/>
        <pt x="1108" y="453" on="1"/>
        <pt x="1108" y="241" on="0"/>
        <pt x="804" y="0" on="0"/>
        <pt x="549" y="0" on="1"/>
        <pt x="86" y="0" on="1"/>
        <pt x="395" y="1462" on="1"/>
      </contour>
      <contour>
        <pt x="434" y="836" on="1"/>
        <pt x="682" y="836" on="1"/>
        <pt x="838" y="836" on="0"/>
        <pt x="1024" y="982" on="0"/>
        <pt x="1024" y="1108" on="1"/>
        <pt x="1024" y="1212" on="0"/>
        <pt x="891" y="1315" on="0"/>
        <pt x="748" y="1315" on="1"/>
        <pt x="537" y="1315" on="1"/>
      </contour>
      <contour>
        <pt x="287" y="145" on="1"/>
        <pt x="553" y="145" on="1"/>
        <pt x="734" y="145" on="0"/>
        <pt x="928" y="306" on="0"/>
        <pt x="928" y="453" on="1"/>
        <pt x="928" y="569" on="0"/>
        <pt x="779" y="692" on="0"/>
        <pt x="639" y="692" on="1"/>
        <pt x="403" y="692" on="1"/>
      </contour>
    </TTGlyph>
    <TTGlyph name="Beta" xMin="86" yMin="0" xMax="1202" yMax="1462">
      <component glyphName="B" x="0" y="0" flags="0x204"/>
    </TTGlyph>
    <TTGlyph name="C" xMin="150" yMin="-20" xMax="1290" yMax="1483">
      <contour>
        <pt x="942" y="1331" on="1"/>
        <pt x="768" y="1331" on="0"/>
        <pt x="493" y="1137" on="0"/>
        <pt x="332" y="762" on="0"/>
        <pt x="332" y="541" on="1"/>
        <pt x="332" y="354" on="0"/>
        <pt x="527" y="131" on="0"/>
        <pt x="698" y="131" on="1"/>
        <pt x="837" y="131" on="0"/>
        <pt x="1020" y="188" on="1"/>
        <pt x="1020" y="39" on="1"/>
        <pt x="934" y="8" on="0"/>
        <pt x="778" y="-20" on="0"/>
        <pt x="668" y="-20" on="1"/>
        <pt x="426" y="-20" on="0"/>
        <pt x="150" y="279" on="0"/>
        <pt x="150" y="537" on="1"/>
        <pt x="150" y="798" on="0"/>
        <pt x="361" y="1247" on="0"/>
        <pt x="717" y="1483" on="0"/>
        <pt x="942" y="1483" on="1"/>
        <pt x="1139" y="1483" on="0"/>
        <pt x="1290" y="1403" on="1"/>
        <pt x="1221" y="1262" on="1"/>
        <pt x="1083" y="1331" on="0"/>
      </contour>
    </TTGlyph>
    <TTGlyph name="Cacute" xMin="150" yMin="-20" xMax="1290" yMax="1907">
      <component glyphName="C" x="0" y="0" flags="0x204"/>
      <component glyphName="acute" x="313" y="338" flags="0x4"/>
    </TTGlyph>
    <TTGlyph name="Ccaron" xMin="150" yMin="-20" xMax="1290" yMax="1907">
      <component glyphName="C" x="0" y="0" flags="0x204"/>
      <component glyphName="caron" x="166" y="338" flags="0x4"/>
    </TTGlyph>
    <TTGlyph name="Ccedilla" xMin="150" yMin="-492" xMax="1290" yMax="1483">
      <component glyphName="C" x="0" y="0" flags="0x204"/>
      <component glyphName="cedilla" x="547" y="0" flags="0x4"/>
    </TTGlyph>
    <TTGlyph name="Ccircumflex" xMin="150" yMin="-20" xMax="1290" yMax="1907">
      <component glyphName="C" x="0" y="0" flags="0x204"/>
      <component glyphName="circumflex" x="213" y="338" flags="0x4"/>
    </TTGlyph>
    <TTGlyph name="Cdot" xMin="150" yMin="-20" xMax="1290" yMax="1841">
      <component glyphName="C" x="0" y="0" flags="0x204"/>
      <component glyphName="dotaccent" x="498" y="338" flags="0x4"/>
    </TTGlyph>
    <TTGlyph name="Chi" xMin="-104" yMin="0" xMax="1233" yMax="1462">
      <component glyphName="X" x="0" y="0" flags="0x204"/>
    </TTGlyph>
    <TTGlyph name="D" xMin="86" yMin="0" xMax="1300" yMax="1462">
      <contour>
        <pt x="1300" y="877" on="1"/>
        <pt x="1300" y="616" on="0"/>
        <pt x="1090" y="216" on="0"/>
        <pt x="700" y="0" on="0"/>
        <pt x="438" y="0" on="1"/>
        <pt x="86" y="0" on="1"/>
        <pt x="395" y="1462" on="1"/>
        <pt x="737" y="1462" on="1"/>
        <pt x="1013" y="1462" on="0"/>
        <pt x="1300" y="1163" on="0"/>
      </contour>
      <contour>
        <pt x="449" y="147" on="1"/>
        <pt x="651" y="147" on="0"/>
        <pt x="957" y="330" on="0"/>
        <pt x="1120" y="664" on="0"/>
        <pt x="1120" y="879" on="1"/>
        <pt x="1120" y="1094" on="0"/>
        <pt x="914" y="1315" on="0"/>
        <pt x="715" y="1315" on="1"/>
        <pt x="537" y="1315" on="1"/>
        <pt x="287" y="147" on="1"/>
      </contour>
    </TTGlyph>
    <TTGlyph name="Dcaron" xMin="86" yMin="0" xMax="1300" yMax="1907">
      <component glyphName="D" x="0" y="0" flags="0x204"/>
      <component glyphName="caron" x="94" y="338" flags="0x4"/>
    </TTGlyph>
    <TTGlyph name="Dcroat" xMin="72" yMin="0" xMax="1300" yMax="1462">
      <component glyphName="Eth" x="0" y="0" flags="0x204"/>
    </TTGlyph>
    <TTGlyph name="Delta" xMin="-55" yMin="0" xMax="1008" yMax="1460">
      <contour>
        <pt x="686" y="1460" on="1"/>
        <pt x="858" y="1460" on="1"/>
        <pt x="1008" y="102" on="1"/>
        <pt x="987" y="0" on="1"/>
        <pt x="-55" y="0" on="1"/>
        <pt x="-35" y="104" on="1"/>
      </contour>
      <contour>
        <pt x="737" y="1274" on="1"/>
        <pt x="666" y="1094" on="0"/>
        <pt x="571" y="913" on="1"/>
        <pt x="168" y="152" on="1"/>
        <pt x="836" y="152" on="1"/>
        <pt x="758" y="909" on="1"/>
        <pt x="737" y="1113" on="0"/>
      </contour>
    </TTGlyph>
    <TTGlyph name="E" xMin="86" yMin="0" xMax="1130" yMax="1462">
      <contour>
        <pt x="821" y="0" on="1"/>
        <pt x="86" y="0" on="1"/>
        <pt x="395" y="1462" on="1"/>
        <pt x="1130" y="1462" on="1"/>
        <pt x="1098" y="1309" on="1"/>
        <pt x="532" y="1309" on="1"/>
        <pt x="434" y="840" on="1"/>
        <pt x="961" y="840" on="1"/>
        <pt x="932" y="688" on="1"/>
        <pt x="403" y="688" on="1"/>
        <pt x="289" y="152" on="1"/>
        <pt x="854" y="152" on="1"/>
      </contour>
    </TTGlyph>
    <TTGlyph name="Eacute" xMin="86" yMin="0" xMax="1130" yMax="1907">
      <component glyphName="E" x="0" y="0" flags="0x204"/>
      <component glyphName="acute" x="125" y="338" flags="0x4"/>
    </TTGlyph>
    <TTGlyph name="Ebreve" xMin="86" yMin="0" xMax="1130" yMax="1847">
      <component glyphName="E" x="0" y="0" flags="0x204"/>
      <component glyphName="breve" x="61" y="338" flags="0x4"/>
    </TTGlyph>
    <TTGlyph name="Ecaron" xMin="86" yMin="0" xMax="1130" yMax="1907">
      <component glyphName="E" x="0" y="0" flags="0x204"/>
      <component glyphName="caron" x="47" y="338" flags="0x4"/>
    </TTGlyph>
    <TTGlyph name="Ecircumflex" xMin="86" yMin="0" xMax="1130" yMax="1907">
      <component glyphName="E" x="0" y="0" flags="0x204"/>
      <component glyphName="circumflex" x="70" y="338" flags="0x4"/>
    </TTGlyph>
    <TTGlyph name="Edieresis" xMin="86" yMin="0" xMax="1130" yMax="1829">
      <component glyphName="E" x="0" y="0" flags="0x204"/>
      <component glyphName="dieresis" x="66" y="338" flags="0x4"/>
    </TTGlyph>
    <TTGlyph name="Edotaccent" xMin="86" yMin="0" xMax="1130" yMax="1812">
      <component glyphName="E" x="0" y="0" flags="0x204"/>
      <component glyphName="dotaccent" x="348" y="309" flags="0x4"/>
    </TTGlyph>
    <TTGlyph name="Egrave" xMin="86" yMin="0" xMax="1130" yMax="1907">
      <component glyphName="E" x="0" y="0" flags="0x204"/>
      <component glyphName="grave" x="-5" y="338" flags="0x4"/>
    </TTGlyph>
    <TTGlyph name="Emacron" xMin="86" yMin="0" xMax="1130" yMax="1720">
      <component glyphName="E" x="0" y="0" flags="0x204"/>
      <component glyphName="macron" x="90" y="338" flags="0x4"/>
    </TTGlyph>
    <TTGlyph name="Eng" xMin="84" yMin="-383" xMax="1448" yMax="1462">
      <contour>
        <pt x="717" y="-383" on="1"/>
        <pt x="613" y="-383" on="0"/>
        <pt x="563" y="-358" on="1"/>
        <pt x="571" y="-211" on="1"/>
        <pt x="635" y="-231" on="0"/>
        <pt x="717" y="-231" on="1"/>
        <pt x="819" y="-231" on="0"/>
        <pt x="946" y="-111" on="0"/>
        <pt x="969" y="0" on="1"/>
        <pt x="498" y="1223" on="1"/>
        <pt x="489" y="1223" on="1"/>
        <pt x="450" y="958" on="0"/>
        <pt x="418" y="805" on="1"/>
        <pt x="246" y="0" on="1"/>
        <pt x="84" y="0" on="1"/>
        <pt x="393" y="1462" on="1"/>
        <pt x="575" y="1462" on="1"/>
        <pt x="1030" y="248" on="1"/>
        <pt x="1036" y="248" on="1"/>
        <pt x="1056" y="371" on="0"/>
        <pt x="1105" y="641" on="0"/>
        <pt x="1282" y="1462" on="1"/>
        <pt x="1448" y="1462" on="1"/>
        <pt x="1139" y="0" on="1"/>
        <pt x="1057" y="-383" on="0"/>
      </contour>
    </TTGlyph>
    <TTGlyph name="Eogonek" xMin="86" yMin="-440" xMax="1130" yMax="1462">
      <component glyphName="E" x="0" y="0" flags="0x204"/>
      <component glyphName="ogonek" x="588" y="0" flags="0x4"/>
    </TTGlyph>
    <TTGlyph name="Epsilon" xMin="86" yMin="0" xMax="1130" yMax="1462">
      <component glyphName="E" x="0" y="0" flags="0x204"/>
    </TTGlyph>
    <TTGlyph name="Epsilontonos" xMin="71" yMin="0" xMax="1249" yMax="1548">
      <component glyphName="E" x="119" y="0" flags="0x4"/>
      <component glyphName="tonos" x="-552" y="-105" flags="0x4"/>
    </TTGlyph>
    <TTGlyph name="Eta" xMin="86" yMin="0" xMax="1395" yMax="1462">
      <component glyphName="H" x="0" y="0" flags="0x204"/>
    </TTGlyph>
    <TTGlyph name="Etatonos" xMin="71" yMin="0" xMax="1549" yMax="1548">
      <component glyphName="H" x="154" y="0" flags="0x4"/>
      <component glyphName="tonos" x="-552" y="-105" flags="0x4"/>
    </TTGlyph>
    <TTGlyph name="Eth" xMin="72" yMin="0" xMax="1300" yMax="1462">
      <contour>
        <pt x="1300" y="877" on="1"/>
        <pt x="1300" y="616" on="0"/>
        <pt x="1090" y="216" on="0"/>
        <pt x="700" y="0" on="0"/>
        <pt x="438" y="0" on="1"/>
        <pt x="86" y="0" on="1"/>
        <pt x="221" y="649" on="1"/>
        <pt x="72" y="649" on="1"/>
        <pt x="104" y="799" on="1"/>
        <pt x="254" y="799" on="1"/>
        <pt x="395" y="1462" on="1"/>
        <pt x="737" y="1462" on="1"/>
        <pt x="1013" y="1462" on="0"/>
        <pt x="1300" y="1163" on="0"/>
      </contour>
      <contour>
        <pt x="449" y="147" on="1"/>
        <pt x="651" y="147" on="0"/>
        <pt x="957" y="330" on="0"/>
        <pt x="1120" y="664" on="0"/>
        <pt x="1120" y="879" on="1"/>
        <pt x="1120" y="1094" on="0"/>
        <pt x="914" y="1315" on="0"/>
        <pt x="715" y="1315" on="1"/>
        <pt x="537" y="1315" on="1"/>
        <pt x="426" y="799" on="1"/>
        <pt x="756" y="799" on="1"/>
        <pt x="723" y="649" on="1"/>
        <pt x="393" y="649" on="1"/>
        <pt x="287" y="147" on="1"/>
      </contour>
    </TTGlyph>
    <TTGlyph name="Euro" xMin="63" yMin="-20" xMax="1239" yMax="1481">
      <contour>
        <pt x="928" y="1329" on="1"/>
        <pt x="788" y="1329" on="0"/>
        <pt x="560" y="1131" on="0"/>
        <pt x="485" y="932" on="1"/>
        <pt x="911" y="932" on="1"/>
        <pt x="885" y="799" on="1"/>
        <pt x="444" y="799" on="1"/>
        <pt x="423" y="734" on="0"/>
        <pt x="412" y="635" on="1"/>
        <pt x="793" y="635" on="1"/>
        <pt x="764" y="504" on="1"/>
        <pt x="403" y="504" on="1"/>
        <pt x="403" y="131" on="0"/>
        <pt x="700" y="131" on="1"/>
        <pt x="823" y="131" on="0"/>
        <pt x="956" y="186" on="1"/>
        <pt x="956" y="39" on="1"/>
        <pt x="829" y="-20" on="0"/>
        <pt x="678" y="-20" on="1"/>
        <pt x="466" y="-20" on="0"/>
        <pt x="233" y="247" on="0"/>
        <pt x="233" y="492" on="1"/>
        <pt x="233" y="504" on="1"/>
        <pt x="63" y="504" on="1"/>
        <pt x="90" y="635" on="1"/>
        <pt x="244" y="635" on="1"/>
        <pt x="252" y="715" on="0"/>
        <pt x="274" y="799" on="1"/>
        <pt x="123" y="799" on="1"/>
        <pt x="150" y="932" on="1"/>
        <pt x="309" y="932" on="1"/>
        <pt x="406" y="1199" on="0"/>
        <pt x="731" y="1481" on="0"/>
        <pt x="938" y="1481" on="1"/>
        <pt x="1027" y="1481" on="0"/>
        <pt x="1169" y="1438" on="0"/>
        <pt x="1239" y="1389" on="1"/>
        <pt x="1159" y="1251" on="1"/>
        <pt x="1046" y="1329" on="0"/>
      </contour>
    </TTGlyph>
    <TTGlyph name="F" xMin="86" yMin="0" xMax="1130" yMax="1462">
      <contour>
        <pt x="258" y="0" on="1"/>
        <pt x="86" y="0" on="1"/>
        <pt x="395" y="1462" on="1"/>
        <pt x="1130" y="1462" on="1"/>
        <pt x="1100" y="1309" on="1"/>
        <pt x="532" y="1309" on="1"/>
        <pt x="422" y="776" on="1"/>
        <pt x="950" y="776" on="1"/>
        <pt x="918" y="623" on="1"/>
        <pt x="389" y="623" on="1"/>
      </contour>
    </TTGlyph>
    <TTGlyph name="G" xMin="150" yMin="-20" xMax="1358" yMax="1483">
      <contour>
        <pt x="821" y="766" on="1"/>
        <pt x="1280" y="766" on="1"/>
        <pt x="1126" y="55" on="1"/>
        <pt x="910" y="-20" on="0"/>
        <pt x="707" y="-20" on="1"/>
        <pt x="443" y="-20" on="0"/>
        <pt x="150" y="269" on="0"/>
        <pt x="150" y="528" on="1"/>
        <pt x="150" y="797" on="0"/>
        <pt x="353" y="1238" on="0"/>
        <pt x="713" y="1483" on="0"/>
        <pt x="932" y="1483" on="1"/>
        <pt x="1049" y="1483" on="0"/>
        <pt x="1254" y="1443" on="0"/>
        <pt x="1358" y="1399" on="1"/>
        <pt x="1292" y="1247" on="1"/>
        <pt x="1215" y="1281" on="0"/>
        <pt x="1038" y="1331" on="0"/>
        <pt x="932" y="1331" on="1"/>
        <pt x="763" y="1331" on="0"/>
        <pt x="486" y="1128" on="0"/>
        <pt x="332" y="764" on="0"/>
        <pt x="332" y="539" on="1"/>
        <pt x="332" y="349" on="0"/>
        <pt x="537" y="131" on="0"/>
        <pt x="721" y="131" on="1"/>
        <pt x="875" y="131" on="0"/>
        <pt x="981" y="170" on="1"/>
        <pt x="1077" y="614" on="1"/>
        <pt x="788" y="614" on="1"/>
      </contour>
    </TTGlyph>
    <TTGlyph name="Gamma" xMin="86" yMin="0" xMax="1130" yMax="1462">
      <contour>
        <pt x="258" y="0" on="1"/>
        <pt x="86" y="0" on="1"/>
        <pt x="395" y="1462" on="1"/>
        <pt x="1130" y="1462" on="1"/>
        <pt x="1100" y="1309" on="1"/>
        <pt x="535" y="1309" on="1"/>
      </contour>
    </TTGlyph>
    <TTGlyph name="Gbreve" xMin="150" yMin="-20" xMax="1358" yMax="1847">
      <component glyphName="G" x="0" y="0" flags="0x204"/>
      <component glyphName="breve" x="186" y="338" flags="0x4"/>
    </TTGlyph>
    <TTGlyph name="Gcircumflex" xMin="150" yMin="-20" xMax="1358" yMax="1907">
      <component glyphName="G" x="0" y="0" flags="0x204"/>
      <component glyphName="circumflex" x="205" y="338" flags="0x4"/>
    </TTGlyph>
    <TTGlyph name="Gcommaaccent" xMin="150" yMin="-453" xMax="1358" yMax="1483">
      <component glyphName="G" x="0" y="0" flags="0x204"/>
      <component glyphName="commaaccent" x="301" y="0" flags="0x4"/>
    </TTGlyph>
    <TTGlyph name="Gdot" xMin="150" yMin="-20" xMax="1358" yMax="1841">
      <component glyphName="G" x="0" y="0" flags="0x204"/>
      <component glyphName="dotaccent" x="512" y="338" flags="0x4"/>
    </TTGlyph>
    <TTGlyph name="H" xMin="86" yMin="0" xMax="1395" yMax="1462">
      <contour>
        <pt x="1085" y="0" on="1"/>
        <pt x="918" y="0" on="1"/>
        <pt x="1061" y="688" on="1"/>
        <pt x="401" y="688" on="1"/>
        <pt x="256" y="0" on="1"/>
        <pt x="86" y="0" on="1"/>
        <pt x="395" y="1462" on="1"/>
        <pt x="565" y="1462" on="1"/>
        <pt x="434" y="840" on="1"/>
        <pt x="1094" y="840" on="1"/>
        <pt x="1227" y="1462" on="1"/>
        <pt x="1395" y="1462" on="1"/>
      </contour>
    </TTGlyph>
    <TTGlyph name="Hbar" xMin="86" yMin="0" xMax="1534" yMax="1462">
      <contour>
        <pt x="1348" y="1212" on="1"/>
        <pt x="1534" y="1212" on="1"/>
        <pt x="1505" y="1069" on="1"/>
        <pt x="1315" y="1069" on="1"/>
        <pt x="1090" y="0" on="1"/>
        <pt x="918" y="0" on="1"/>
        <pt x="1061" y="688" on="1"/>
        <pt x="401" y="688" on="1"/>
        <pt x="256" y="0" on="1"/>
        <pt x="86" y="0" on="1"/>
        <pt x="311" y="1069" on="1"/>
        <pt x="125" y="1069" on="1"/>
        <pt x="156" y="1212" on="1"/>
        <pt x="342" y="1212" on="1"/>
        <pt x="395" y="1462" on="1"/>
        <pt x="565" y="1462" on="1"/>
        <pt x="512" y="1212" on="1"/>
        <pt x="1171" y="1212" on="1"/>
        <pt x="1227" y="1462" on="1"/>
        <pt x="1399" y="1462" on="1"/>
      </contour>
      <contour>
        <pt x="1094" y="840" on="1"/>
        <pt x="1143" y="1069" on="1"/>
        <pt x="481" y="1069" on="1"/>
        <pt x="434" y="840" on="1"/>
      </contour>
    </TTGlyph>
    <TTGlyph name="Hcircumflex" xMin="86" yMin="0" xMax="1395" yMax="1907">
      <component glyphName="H" x="0" y="0" flags="0x204"/>
      <component glyphName="circumflex" x="186" y="338" flags="0x4"/>
    </TTGlyph>
    <TTGlyph name="I" xMin="86" yMin="0" xMax="565" yMax="1462">
      <contour>
        <pt x="86" y="0" on="1"/>
        <pt x="397" y="1462" on="1"/>
        <pt x="565" y="1462" on="1"/>
        <pt x="254" y="0" on="1"/>
      </contour>
    </TTGlyph>
    <TTGlyph name="I.alt" xMin="-39" yMin="0" xMax="768" yMax="1462">
      <contour>
        <pt x="459" y="0" on="1"/>
        <pt x="-39" y="0" on="1"/>
        <pt x="-20" y="92" on="1"/>
        <pt x="152" y="129" on="1"/>
        <pt x="408" y="1333" on="1"/>
        <pt x="252" y="1368" on="1"/>
        <pt x="270" y="1462" on="1"/>
        <pt x="768" y="1462" on="1"/>
        <pt x="750" y="1368" on="1"/>
        <pt x="575" y="1333" on="1"/>
        <pt x="319" y="129" on="1"/>
        <pt x="477" y="92" on="1"/>
      </contour>
    </TTGlyph>
    <TTGlyph name="IJ" xMin="86" yMin="-385" xMax="1124" yMax="1462">
      <component glyphName="I" x="0" y="0" flags="0x4"/>
      <component glyphName="J" x="559" y="0" flags="0x4"/>
    </TTGlyph>
    <TTGlyph name="IJ.alt" xMin="-39" yMin="-385" xMax="1214" yMax="1462">
      <component glyphName="I.alt" x="0" y="0" flags="0x4"/>
      <component glyphName="J" x="649" y="0" flags="0x4"/>
    </TTGlyph>
    <TTGlyph name="Iacute" xMin="86" yMin="0" xMax="834" yMax="1907">
      <component glyphName="I" x="0" y="0" flags="0x204"/>
      <component glyphName="acute" x="-120" y="338" flags="0x4"/>
    </TTGlyph>
    <TTGlyph name="Iacute.alt" xMin="-39" yMin="0" xMax="875" yMax="1907">
      <component glyphName="I.alt" x="0" y="0" flags="0x204"/>
      <component glyphName="acute" x="-79" y="338" flags="0x4"/>
    </TTGlyph>
    <TTGlyph name="Ibreve" xMin="86" yMin="0" xMax="833" yMax="1847">
      <component glyphName="I" x="0" y="0" flags="0x204"/>
      <component glyphName="breve" x="-218" y="338" flags="0x4"/>
    </TTGlyph>
    <TTGlyph name="Ibreve.alt" xMin="-39" yMin="0" xMax="864" yMax="1847">
      <component glyphName="I.alt" x="0" y="0" flags="0x204"/>
      <component glyphName="breve" x="-187" y="338" flags="0x4"/>
    </TTGlyph>
    <TTGlyph name="Icircumflex" xMin="86" yMin="0" xMax="808" yMax="1907">
      <component glyphName="I" x="0" y="0" flags="0x204"/>
      <component glyphName="circumflex" x="-206" y="338" flags="0x4"/>
    </TTGlyph>
    <TTGlyph name="Icircumflex.alt" xMin="-39" yMin="0" xMax="841" yMax="1907">
      <component glyphName="I.alt" x="0" y="0" flags="0x204"/>
      <component glyphName="circumflex" x="-173" y="338" flags="0x4"/>
    </TTGlyph>
    <TTGlyph name="Idieresis" xMin="86" yMin="0" xMax="809" yMax="1829">
      <component glyphName="I" x="0" y="0" flags="0x204"/>
      <component glyphName="dieresis" x="-192" y="338" flags="0x4"/>
    </TTGlyph>
    <TTGlyph name="Idieresis.alt" xMin="-39" yMin="0" xMax="830" yMax="1829">
      <component glyphName="I.alt" x="0" y="0" flags="0x204"/>
      <component glyphName="dieresis" x="-171" y="338" flags="0x4"/>
    </TTGlyph>
    <TTGlyph name="Idotaccent" xMin="86" yMin="0" xMax="628" yMax="1841">
      <component glyphName="I" x="0" y="0" flags="0x204"/>
      <component glyphName="dotaccent" x="102" y="338" flags="0x4"/>
    </TTGlyph>
    <TTGlyph name="Idotaccent.alt" xMin="-39" yMin="0" xMax="768" yMax="1841">
      <component glyphName="I.alt" x="0" y="0" flags="0x204"/>
      <component glyphName="dotaccent" x="133" y="338" flags="0x4"/>
    </TTGlyph>
    <TTGlyph name="Igrave" xMin="86" yMin="0" xMax="593" yMax="1907">
      <component glyphName="I" x="0" y="0" flags="0x204"/>
      <component glyphName="grave" x="-310" y="338" flags="0x4"/>
    </TTGlyph>
    <TTGlyph name="Igrave.alt" xMin="-39" yMin="0" xMax="768" yMax="1907">
      <component glyphName="I.alt" x="0" y="0" flags="0x204"/>
      <component glyphName="grave" x="-269" y="338" flags="0x4"/>
    </TTGlyph>
    <TTGlyph name="Imacron" xMin="86" yMin="0" xMax="798" yMax="1720">
      <component glyphName="I" x="0" y="0" flags="0x204"/>
      <component glyphName="macron" x="-183" y="338" flags="0x4"/>
    </TTGlyph>
    <TTGlyph name="Imacron.alt" xMin="-39" yMin="0" xMax="837" yMax="1720">
      <component glyphName="I.alt" x="0" y="0" flags="0x204"/>
      <component glyphName="macron" x="-144" y="338" flags="0x4"/>
    </TTGlyph>
    <TTGlyph name="Iogonek" xMin="-75" yMin="-440" xMax="565" yMax="1462">
      <component glyphName="I" x="0" y="0" flags="0x204"/>
      <component glyphName="ogonek" x="70" y="0" flags="0x4"/>
    </TTGlyph>
    <TTGlyph name="Iogonek.alt" xMin="-39" yMin="-440" xMax="768" yMax="1462">
      <component glyphName="I.alt" x="0" y="0" flags="0x204"/>
      <component glyphName="ogonek" x="162" y="0" flags="0x4"/>
    </TTGlyph>
    <TTGlyph name="Iota" xMin="86" yMin="0" xMax="565" yMax="1462">
      <component glyphName="I" x="0" y="0" flags="0x204"/>
    </TTGlyph>
    <TTGlyph name="Iota.alt" xMin="-39" yMin="0" xMax="768" yMax="1462">
      <component glyphName="I.alt" x="0" y="0" flags="0x204"/>
    </TTGlyph>
    <TTGlyph name="Iotadieresis" xMin="86" yMin="0" xMax="799" yMax="1829">
      <component glyphName="I" x="0" y="0" flags="0x204"/>
      <component glyphName="dieresis" x="-202" y="338" flags="0x4"/>
    </TTGlyph>
    <TTGlyph name="Iotadieresis.alt" xMin="-39" yMin="0" xMax="830" yMax="1829">
      <component glyphName="I.alt" x="0" y="0" flags="0x204"/>
      <component glyphName="dieresis" x="-171" y="338" flags="0x4"/>
    </TTGlyph>
    <TTGlyph name="Iotatonos" xMin="96" yMin="0" xMax="749" yMax="1548">
      <component glyphName="I" x="184" y="0" flags="0x4"/>
      <component glyphName="tonos" x="-527" y="-105" flags="0x4"/>
    </TTGlyph>
    <TTGlyph name="Iotatonos.alt" xMin="96" yMin="0" xMax="1018" yMax="1548">
      <component glyphName="I.alt" x="250" y="0" flags="0x4"/>
      <component glyphName="tonos" x="-527" y="-105" flags="0x4"/>
    </TTGlyph>
    <TTGlyph name="Itilde" xMin="86" yMin="0" xMax="886" yMax="1839">
      <component glyphName="I" x="0" y="0" flags="0x204"/>
      <component glyphName="tilde" x="-185" y="338" flags="0x4"/>
    </TTGlyph>
    <TTGlyph name="Itilde.alt" xMin="-39" yMin="0" xMax="931" yMax="1839">
      <component glyphName="I.alt" x="0" y="0" flags="0x204"/>
      <component glyphName="tilde" x="-140" y="338" flags="0x4"/>
    </TTGlyph>
    <TTGlyph name="J" xMin="-319" yMin="-385" xMax="565" yMax="1462">
      <contour>
        <pt x="-166" y="-385" on="1"/>
        <pt x="-271" y="-385" on="0"/>
        <pt x="-319" y="-360" on="1"/>
        <pt x="-313" y="-213" on="1"/>
        <pt x="-244" y="-233" on="0"/>
        <pt x="-168" y="-233" on="1"/>
        <pt x="-68" y="-233" on="0"/>
        <pt x="63" y="-108" on="0"/>
        <pt x="88" y="12" on="1"/>
        <pt x="395" y="1462" on="1"/>
        <pt x="565" y="1462" on="1"/>
        <pt x="256" y="-6" on="1"/>
        <pt x="177" y="-385" on="0"/>
      </contour>
    </TTGlyph>
    <TTGlyph name="Jcircumflex" xMin="-319" yMin="-385" xMax="796" yMax="1907">
      <component glyphName="J" x="0" y="0" flags="0x204"/>
      <component glyphName="circumflex" x="-218" y="338" flags="0x4"/>
    </TTGlyph>
    <TTGlyph name="K" xMin="86" yMin="0" xMax="1323" yMax="1462">
      <contour>
        <pt x="1034" y="0" on="1"/>
        <pt x="848" y="0" on="1"/>
        <pt x="776" y="181" on="0"/>
        <pt x="627" y="538" on="0"/>
        <pt x="555" y="721" on="1"/>
        <pt x="381" y="590" on="1"/>
        <pt x="256" y="0" on="1"/>
        <pt x="86" y="0" on="1"/>
        <pt x="395" y="1462" on="1"/>
        <pt x="565" y="1462" on="1"/>
        <pt x="414" y="752" on="1"/>
        <pt x="1114" y="1462" on="1"/>
        <pt x="1323" y="1462" on="1"/>
        <pt x="684" y="825" on="1"/>
      </contour>
    </TTGlyph>
    <TTGlyph name="Kappa" xMin="86" yMin="0" xMax="1323" yMax="1462">
      <component glyphName="K" x="0" y="0" flags="0x204"/>
    </TTGlyph>
    <TTGlyph name="Kcommaaccent" xMin="86" yMin="-453" xMax="1323" yMax="1462">
      <component glyphName="K" x="0" y="0" flags="0x204"/>
      <component glyphName="commaaccent" x="143" y="0" flags="0x4"/>
    </TTGlyph>
    <TTGlyph name="L" xMin="86" yMin="0" xMax="854" yMax="1462">
      <contour>
        <pt x="86" y="0" on="1"/>
        <pt x="395" y="1462" on="1"/>
        <pt x="565" y="1462" on="1"/>
        <pt x="289" y="154" on="1"/>
        <pt x="854" y="154" on="1"/>
        <pt x="821" y="0" on="1"/>
      </contour>
    </TTGlyph>
    <TTGlyph name="Lacute" xMin="86" yMin="0" xMax="859" yMax="1907">
      <component glyphName="L" x="0" y="0" flags="0x204"/>
      <component glyphName="acute" x="-95" y="338" flags="0x4"/>
    </TTGlyph>
    <TTGlyph name="Lambda" xMin="-117" yMin="0" xMax="1049" yMax="1460">
      <contour>
        <pt x="-117" y="0" on="1"/>
        <pt x="684" y="1460" on="1"/>
        <pt x="862" y="1460" on="1"/>
        <pt x="1049" y="0" on="1"/>
        <pt x="881" y="0" on="1"/>
        <pt x="768" y="934" on="1"/>
        <pt x="749" y="1089" on="0"/>
        <pt x="741" y="1278" on="1"/>
        <pt x="669" y="1111" on="0"/>
        <pt x="565" y="920" on="1"/>
        <pt x="72" y="0" on="1"/>
      </contour>
    </TTGlyph>
    <TTGlyph name="Lcaron" xMin="86" yMin="0" xMax="1060" yMax="1463">
      <component glyphName="L" x="0" y="0" flags="0x204"/>
      <component glyphName="caroncommaaccent" x="233" y="-93" flags="0x4"/>
    </TTGlyph>
    <TTGlyph name="Lcommaaccent" xMin="86" yMin="-453" xMax="854" yMax="1462">
      <component glyphName="L" x="0" y="0" flags="0x204"/>
      <component glyphName="commaaccent" x="156" y="0" flags="0x4"/>
    </TTGlyph>
    <TTGlyph name="Ldot" xMin="86" yMin="0" xMax="886" yMax="1462">
      <component glyphName="L" x="0" y="0" flags="0x204"/>
      <component glyphName="dotaccent" x="360" y="-667" flags="0x4"/>
    </TTGlyph>
    <TTGlyph name="Lslash" xMin="23" yMin="0" xMax="854" yMax="1462">
      <contour>
        <pt x="84" y="0" on="1"/>
        <pt x="193" y="506" on="1"/>
        <pt x="82" y="442" on="1"/>
        <pt x="23" y="551" on="1"/>
        <pt x="225" y="668" on="1"/>
        <pt x="393" y="1462" on="1"/>
        <pt x="565" y="1462" on="1"/>
        <pt x="420" y="780" on="1"/>
        <pt x="657" y="915" on="1"/>
        <pt x="717" y="809" on="1"/>
        <pt x="387" y="618" on="1"/>
        <pt x="289" y="154" on="1"/>
        <pt x="854" y="154" on="1"/>
        <pt x="821" y="0" on="1"/>
      </contour>
    </TTGlyph>
    <TTGlyph name="M" xMin="84" yMin="0" xMax="1720" yMax="1462">
      <contour>
        <pt x="676" y="0" on="1"/>
        <pt x="510" y="1296" on="1"/>
        <pt x="502" y="1296" on="1"/>
        <pt x="495" y="1224" on="0"/>
        <pt x="452" y="973" on="0"/>
        <pt x="436" y="899" on="1"/>
        <pt x="246" y="0" on="1"/>
        <pt x="84" y="0" on="1"/>
        <pt x="393" y="1462" on="1"/>
        <pt x="637" y="1462" on="1"/>
        <pt x="786" y="258" on="1"/>
        <pt x="795" y="258" on="1"/>
        <pt x="1454" y="1462" on="1"/>
        <pt x="1720" y="1462" on="1"/>
        <pt x="1417" y="0" on="1"/>
        <pt x="1243" y="0" on="1"/>
        <pt x="1369" y="590" on="0"/>
        <pt x="1503" y="1221" on="0"/>
        <pt x="1530" y="1298" on="1"/>
        <pt x="1524" y="1298" on="1"/>
        <pt x="807" y="0" on="1"/>
      </contour>
    </TTGlyph>
    <TTGlyph name="Mu" xMin="84" yMin="0" xMax="1720" yMax="1462">
      <component glyphName="M" x="0" y="0" flags="0x204"/>
    </TTGlyph>
    <TTGlyph name="N" xMin="84" yMin="0" xMax="1448" yMax="1462">
      <contour>
        <pt x="1139" y="0" on="1"/>
        <pt x="958" y="0" on="1"/>
        <pt x="498" y="1223" on="1"/>
        <pt x="492" y="1223" on="1"/>
        <pt x="460" y="1002" on="0"/>
        <pt x="418" y="805" on="1"/>
        <pt x="246" y="0" on="1"/>
        <pt x="84" y="0" on="1"/>
        <pt x="393" y="1462" on="1"/>
        <pt x="573" y="1462" on="1"/>
        <pt x="1032" y="242" on="1"/>
        <pt x="1038" y="242" on="1"/>
        <pt x="1068" y="466" on="0"/>
        <pt x="1110" y="647" on="1"/>
        <pt x="1284" y="1462" on="1"/>
        <pt x="1448" y="1462" on="1"/>
      </contour>
    </TTGlyph>
    <TTGlyph name="Nacute" xMin="84" yMin="0" xMax="1448" yMax="1907">
      <component glyphName="N" x="0" y="0" flags="0x204"/>
      <component glyphName="acute" x="299" y="338" flags="0x4"/>
    </TTGlyph>
    <TTGlyph name="Ncaron" xMin="84" yMin="0" xMax="1448" yMax="1907">
      <component glyphName="N" x="0" y="0" flags="0x204"/>
      <component glyphName="caron" x="182" y="338" flags="0x4"/>
    </TTGlyph>
    <TTGlyph name="Ncommaaccent" xMin="84" yMin="-453" xMax="1448" yMax="1462">
      <component glyphName="N" x="0" y="0" flags="0x204"/>
      <component glyphName="commaaccent" x="225" y="0" flags="0x4"/>
    </TTGlyph>
    <TTGlyph name="Ntilde" xMin="84" yMin="0" xMax="1448" yMax="1839">
      <component glyphName="N" x="0" y="0" flags="0x204"/>
      <component glyphName="tilde" x="264" y="338" flags="0x4"/>
    </TTGlyph>
    <TTGlyph name="Nu" xMin="84" yMin="0" xMax="1448" yMax="1462">
      <component glyphName="N" x="0" y="0" flags="0x204"/>
    </TTGlyph>
    <TTGlyph name="O" xMin="150" yMin="-20" xMax="1411" yMax="1485">
      <contour>
        <pt x="1411" y="907" on="1"/>
        <pt x="1411" y="638" on="0"/>
        <pt x="1235" y="213" on="0"/>
        <pt x="907" y="-20" on="0"/>
        <pt x="692" y="-20" on="1"/>
        <pt x="436" y="-20" on="0"/>
        <pt x="150" y="279" on="0"/>
        <pt x="150" y="549" on="1"/>
        <pt x="150" y="813" on="0"/>
        <pt x="342" y="1249" on="0"/>
        <pt x="677" y="1485" on="0"/>
        <pt x="887" y="1485" on="1"/>
        <pt x="1131" y="1485" on="0"/>
        <pt x="1411" y="1177" on="0"/>
      </contour>
      <contour>
        <pt x="874" y="1333" on="1"/>
        <pt x="717" y="1333" on="0"/>
        <pt x="469" y="1131" on="0"/>
        <pt x="332" y="771" on="0"/>
        <pt x="332" y="553" on="1"/>
        <pt x="332" y="354" on="0"/>
        <pt x="528" y="131" on="0"/>
        <pt x="696" y="131" on="1"/>
        <pt x="848" y="131" on="0"/>
        <pt x="1089" y="326" on="0"/>
        <pt x="1229" y="690" on="0"/>
        <pt x="1229" y="911" on="1"/>
        <pt x="1229" y="1110" on="0"/>
        <pt x="1041" y="1333" on="0"/>
      </contour>
    </TTGlyph>
    <TTGlyph name="OE" xMin="150" yMin="-20" xMax="1833" yMax="1485">
      <contour>
        <pt x="1524" y="0" on="1"/>
        <pt x="850" y="0" on="1"/>
        <pt x="772" y="-20" on="0"/>
        <pt x="692" y="-20" on="1"/>
        <pt x="436" y="-20" on="0"/>
        <pt x="150" y="279" on="0"/>
        <pt x="150" y="549" on="1"/>
        <pt x="150" y="813" on="0"/>
        <pt x="342" y="1249" on="0"/>
        <pt x="677" y="1485" on="0"/>
        <pt x="887" y="1485" on="1"/>
        <pt x="1039" y="1485" on="0"/>
        <pt x="1124" y="1462" on="1"/>
        <pt x="1833" y="1462" on="1"/>
        <pt x="1802" y="1309" on="1"/>
        <pt x="1237" y="1309" on="1"/>
        <pt x="1137" y="840" on="1"/>
        <pt x="1665" y="840" on="1"/>
        <pt x="1634" y="690" on="1"/>
        <pt x="1106" y="690" on="1"/>
        <pt x="991" y="152" on="1"/>
        <pt x="1556" y="152" on="1"/>
      </contour>
      <contour>
        <pt x="696" y="131" on="1"/>
        <pt x="765" y="131" on="0"/>
        <pt x="819" y="150" on="1"/>
        <pt x="1065" y="1311" on="1"/>
        <pt x="989" y="1333" on="0"/>
        <pt x="874" y="1333" on="1"/>
        <pt x="717" y="1333" on="0"/>
        <pt x="469" y="1131" on="0"/>
        <pt x="332" y="771" on="0"/>
        <pt x="332" y="553" on="1"/>
        <pt x="332" y="354" on="0"/>
        <pt x="528" y="131" on="0"/>
      </contour>
    </TTGlyph>
    <TTGlyph name="Oacute" xMin="150" yMin="-20" xMax="1411" yMax="1907">
      <component glyphName="O" x="0" y="0" flags="0x204"/>
      <component glyphName="acute" x="289" y="338" flags="0x4"/>
    </TTGlyph>
    <TTGlyph name="Obreve" xMin="150" yMin="-20" xMax="1411" yMax="1847">
      <component glyphName="O" x="0" y="0" flags="0x204"/>
      <component glyphName="breve" x="166" y="338" flags="0x4"/>
    </TTGlyph>
    <TTGlyph name="Ocircumflex" xMin="150" yMin="-20" xMax="1411" yMax="1907">
      <component glyphName="O" x="0" y="0" flags="0x204"/>
      <component glyphName="circumflex" x="213" y="338" flags="0x4"/>
    </TTGlyph>
    <TTGlyph name="Odieresis" xMin="150" yMin="-20" xMax="1411" yMax="1829">
      <component glyphName="O" x="0" y="0" flags="0x204"/>
      <component glyphName="dieresis" x="207" y="338" flags="0x4"/>
    </TTGlyph>
    <TTGlyph name="Ograve" xMin="150" yMin="-20" xMax="1411" yMax="1907">
      <component glyphName="O" x="0" y="0" flags="0x204"/>
      <component glyphName="grave" x="104" y="338" flags="0x4"/>
    </TTGlyph>
    <TTGlyph name="Ohorn" xMin="150" yMin="-20" xMax="1702" yMax="1556">
      <contour>
        <pt x="1411" y="907" on="1"/>
        <pt x="1411" y="638" on="0"/>
        <pt x="1235" y="213" on="0"/>
        <pt x="907" y="-20" on="0"/>
        <pt x="692" y="-20" on="1"/>
        <pt x="436" y="-20" on="0"/>
        <pt x="150" y="279" on="0"/>
        <pt x="150" y="549" on="1"/>
        <pt x="150" y="813" on="0"/>
        <pt x="342" y="1249" on="0"/>
        <pt x="677" y="1485" on="0"/>
        <pt x="887" y="1485" on="1"/>
        <pt x="1035" y="1485" on="0"/>
        <pt x="1255" y="1372" on="0"/>
        <pt x="1321" y="1266" on="1"/>
        <pt x="1402" y="1299" on="0"/>
        <pt x="1488" y="1427" on="0"/>
        <pt x="1507" y="1556" on="1"/>
        <pt x="1694" y="1556" on="1"/>
        <pt x="1702" y="1534" on="1"/>
        <pt x="1669" y="1396" on="0"/>
        <pt x="1507" y="1225" on="0"/>
        <pt x="1366" y="1169" on="1"/>
        <pt x="1411" y="1052" on="0"/>
      </contour>
      <contour>
        <pt x="874" y="1333" on="1"/>
        <pt x="717" y="1333" on="0"/>
        <pt x="469" y="1131" on="0"/>
        <pt x="332" y="771" on="0"/>
        <pt x="332" y="553" on="1"/>
        <pt x="332" y="354" on="0"/>
        <pt x="528" y="131" on="0"/>
        <pt x="696" y="131" on="1"/>
        <pt x="848" y="131" on="0"/>
        <pt x="1089" y="326" on="0"/>
        <pt x="1229" y="690" on="0"/>
        <pt x="1229" y="911" on="1"/>
        <pt x="1229" y="1110" on="0"/>
        <pt x="1041" y="1333" on="0"/>
      </contour>
    </TTGlyph>
    <TTGlyph name="Ohungarumlaut" xMin="150" yMin="-20" xMax="1436" yMax="1907">
      <component glyphName="O" x="0" y="0" flags="0x204"/>
      <component glyphName="hungarumlaut" x="295" y="338" flags="0x4"/>
    </TTGlyph>
    <TTGlyph name="Omacron" xMin="150" yMin="-20" xMax="1411" yMax="1720">
      <component glyphName="O" x="0" y="0" flags="0x204"/>
      <component glyphName="macron" x="231" y="338" flags="0x4"/>
    </TTGlyph>
    <TTGlyph name="Omega" xMin="-16" yMin="0" xMax="1423" yMax="1485">
      <component glyphName="uni03A9" x="0" y="0" flags="0x204"/>
    </TTGlyph>
    <TTGlyph name="Omegatonos" xMin="84" yMin="0" xMax="1523" yMax="1548">
      <component glyphName="tonos" x="-513" y="-105" flags="0x4"/>
      <component glyphName="uni03A9" x="100" y="0" flags="0x4"/>
    </TTGlyph>
    <TTGlyph name="Omicron" xMin="150" yMin="-20" xMax="1411" yMax="1485">
      <component glyphName="O" x="0" y="0" flags="0x204"/>
    </TTGlyph>
    <TTGlyph name="Omicrontonos" xMin="92" yMin="-20" xMax="1487" yMax="1548">
      <component glyphName="O" x="76" y="0" flags="0x4"/>
      <component glyphName="tonos" x="-531" y="-105" flags="0x4"/>
    </TTGlyph>
    <TTGlyph name="Oslash" xMin="119" yMin="-84" xMax="1462" yMax="1540">
      <contour>
        <pt x="1411" y="907" on="1"/>
        <pt x="1411" y="638" on="0"/>
        <pt x="1235" y="213" on="0"/>
        <pt x="907" y="-20" on="0"/>
        <pt x="692" y="-20" on="1"/>
        <pt x="492" y="-20" on="0"/>
        <pt x="360" y="76" on="1"/>
        <pt x="231" y="-84" on="1"/>
        <pt x="119" y="8" on="1"/>
        <pt x="256" y="178" on="1"/>
        <pt x="150" y="314" on="0"/>
        <pt x="150" y="549" on="1"/>
        <pt x="150" y="813" on="0"/>
        <pt x="342" y="1249" on="0"/>
        <pt x="677" y="1485" on="0"/>
        <pt x="887" y="1485" on="1"/>
        <pt x="986" y="1485" on="0"/>
        <pt x="1145" y="1431" on="0"/>
        <pt x="1217" y="1374" on="1"/>
        <pt x="1348" y="1540" on="1"/>
        <pt x="1462" y="1448" on="1"/>
        <pt x="1313" y="1264" on="1"/>
        <pt x="1361" y="1202" on="0"/>
        <pt x="1411" y="1014" on="0"/>
      </contour>
      <contour>
        <pt x="874" y="1333" on="1"/>
        <pt x="717" y="1333" on="0"/>
        <pt x="469" y="1131" on="0"/>
        <pt x="332" y="771" on="0"/>
        <pt x="332" y="553" on="1"/>
        <pt x="332" y="418" on="0"/>
        <pt x="373" y="326" on="1"/>
        <pt x="1110" y="1245" on="1"/>
        <pt x="1020" y="1333" on="0"/>
      </contour>
      <contour>
        <pt x="1229" y="911" on="1"/>
        <pt x="1229" y="1029" on="0"/>
        <pt x="1196" y="1116" on="1"/>
        <pt x="463" y="205" on="1"/>
        <pt x="554" y="131" on="0"/>
        <pt x="696" y="131" on="1"/>
        <pt x="848" y="131" on="0"/>
        <pt x="1089" y="326" on="0"/>
        <pt x="1229" y="690" on="0"/>
      </contour>
    </TTGlyph>
    <TTGlyph name="Oslashacute" xMin="119" yMin="-84" xMax="1462" yMax="1907">
      <component glyphName="Oslash" x="0" y="0" flags="0x204"/>
      <component glyphName="acute" x="279" y="338" flags="0x4"/>
    </TTGlyph>
    <TTGlyph name="Otilde" xMin="150" yMin="-20" xMax="1411" yMax="1839">
      <component glyphName="O" x="0" y="0" flags="0x204"/>
      <component glyphName="tilde" x="229" y="338" flags="0x4"/>
    </TTGlyph>
    <TTGlyph name="P" xMin="86" yMin="0" xMax="1159" yMax="1462">
      <contour>
        <pt x="1159" y="1085" on="1"/>
        <pt x="1159" y="837" on="0"/>
        <pt x="831" y="575" on="0"/>
        <pt x="514" y="575" on="1"/>
        <pt x="379" y="575" on="1"/>
        <pt x="256" y="0" on="1"/>
        <pt x="86" y="0" on="1"/>
        <pt x="395" y="1462" on="1"/>
        <pt x="725" y="1462" on="1"/>
        <pt x="939" y="1462" on="0"/>
        <pt x="1159" y="1273" on="0"/>
      </contour>
      <contour>
        <pt x="410" y="721" on="1"/>
        <pt x="543" y="721" on="1"/>
        <pt x="759" y="721" on="0"/>
        <pt x="983" y="903" on="0"/>
        <pt x="983" y="1079" on="1"/>
        <pt x="983" y="1204" on="0"/>
        <pt x="844" y="1315" on="0"/>
        <pt x="700" y="1315" on="1"/>
        <pt x="537" y="1315" on="1"/>
      </contour>
    </TTGlyph>
    <TTGlyph name="Phi" xMin="150" yMin="-20" xMax="1460" yMax="1483">
      <contour>
        <pt x="553" y="-20" on="1"/>
        <pt x="602" y="205" on="1"/>
        <pt x="385" y="220" on="0"/>
        <pt x="150" y="457" on="0"/>
        <pt x="150" y="664" on="1"/>
        <pt x="150" y="954" on="0"/>
        <pt x="503" y="1293" on="0"/>
        <pt x="836" y="1303" on="1"/>
        <pt x="872" y="1483" on="1"/>
        <pt x="1049" y="1483" on="1"/>
        <pt x="1012" y="1303" on="1"/>
        <pt x="1227" y="1290" on="0"/>
        <pt x="1460" y="1056" on="0"/>
        <pt x="1460" y="854" on="1"/>
        <pt x="1460" y="664" on="0"/>
        <pt x="1291" y="369" on="0"/>
        <pt x="985" y="213" on="0"/>
        <pt x="778" y="205" on="1"/>
        <pt x="729" y="-20" on="1"/>
      </contour>
      <contour>
        <pt x="809" y="352" on="1"/>
        <pt x="1037" y="365" on="0"/>
        <pt x="1286" y="626" on="0"/>
        <pt x="1286" y="844" on="1"/>
        <pt x="1286" y="988" on="0"/>
        <pt x="1126" y="1147" on="0"/>
        <pt x="979" y="1153" on="1"/>
      </contour>
      <contour>
        <pt x="803" y="1153" on="1"/>
        <pt x="651" y="1153" on="0"/>
        <pt x="435" y="1034" on="0"/>
        <pt x="324" y="819" on="0"/>
        <pt x="324" y="674" on="1"/>
        <pt x="324" y="527" on="0"/>
        <pt x="485" y="356" on="0"/>
        <pt x="631" y="352" on="1"/>
      </contour>
    </TTGlyph>
    <TTGlyph name="Pi" xMin="86" yMin="0" xMax="1401" yMax="1462">
      <contour>
        <pt x="1092" y="0" on="1"/>
        <pt x="918" y="0" on="1"/>
        <pt x="1194" y="1311" on="1"/>
        <pt x="532" y="1311" on="1"/>
        <pt x="256" y="0" on="1"/>
        <pt x="86" y="0" on="1"/>
        <pt x="395" y="1462" on="1"/>
        <pt x="1401" y="1462" on="1"/>
      </contour>
    </TTGlyph>
    <TTGlyph name="Psi" xMin="199" yMin="0" xMax="1604" yMax="1462">
      <contour>
        <pt x="866" y="449" on="1"/>
        <pt x="827" y="449" on="1"/>
        <pt x="733" y="0" on="1"/>
        <pt x="557" y="0" on="1"/>
        <pt x="651" y="449" on="1"/>
        <pt x="637" y="449" on="1"/>
        <pt x="427" y="449" on="0"/>
        <pt x="199" y="658" on="0"/>
        <pt x="199" y="852" on="1"/>
        <pt x="199" y="945" on="0"/>
        <pt x="223" y="1059" on="1"/>
        <pt x="307" y="1462" on="1"/>
        <pt x="485" y="1462" on="1"/>
        <pt x="397" y="1040" on="1"/>
        <pt x="373" y="929" on="0"/>
        <pt x="373" y="858" on="1"/>
        <pt x="373" y="724" on="0"/>
        <pt x="516" y="594" on="0"/>
        <pt x="666" y="594" on="1"/>
        <pt x="682" y="594" on="1"/>
        <pt x="866" y="1462" on="1"/>
        <pt x="1042" y="1462" on="1"/>
        <pt x="858" y="594" on="1"/>
        <pt x="872" y="594" on="1"/>
        <pt x="1057" y="594" on="0"/>
        <pt x="1278" y="776" on="0"/>
        <pt x="1321" y="979" on="1"/>
        <pt x="1423" y="1462" on="1"/>
        <pt x="1604" y="1462" on="1"/>
        <pt x="1499" y="965" on="1"/>
        <pt x="1446" y="700" on="0"/>
        <pt x="1131" y="449" on="0"/>
      </contour>
    </TTGlyph>
    <TTGlyph name="Q" xMin="150" yMin="-348" xMax="1411" yMax="1485">
      <contour>
        <pt x="874" y="1333" on="1"/>
        <pt x="717" y="1333" on="0"/>
        <pt x="469" y="1131" on="0"/>
        <pt x="332" y="771" on="0"/>
        <pt x="332" y="553" on="1"/>
        <pt x="332" y="354" on="0"/>
        <pt x="528" y="131" on="0"/>
        <pt x="696" y="131" on="1"/>
        <pt x="854" y="131" on="0"/>
        <pt x="1096" y="331" on="0"/>
        <pt x="1229" y="692" on="0"/>
        <pt x="1229" y="911" on="1"/>
        <pt x="1229" y="1110" on="0"/>
        <pt x="1041" y="1333" on="0"/>
      </contour>
      <contour>
        <pt x="725" y="-18" on="1"/>
        <pt x="708" y="-20" on="1"/>
        <pt x="692" y="-20" on="1"/>
        <pt x="436" y="-20" on="0"/>
        <pt x="150" y="279" on="0"/>
        <pt x="150" y="549" on="1"/>
        <pt x="150" y="813" on="0"/>
        <pt x="342" y="1249" on="0"/>
        <pt x="677" y="1485" on="0"/>
        <pt x="887" y="1485" on="1"/>
        <pt x="1131" y="1485" on="0"/>
        <pt x="1411" y="1177" on="0"/>
        <pt x="1411" y="907" on="1"/>
        <pt x="1411" y="574" on="0"/>
        <pt x="1133" y="88" on="0"/>
        <pt x="897" y="10" on="1"/>
        <pt x="1171" y="-348" on="1"/>
        <pt x="952" y="-348" on="1"/>
      </contour>
    </TTGlyph>
    <TTGlyph name="R" xMin="86" yMin="0" xMax="1161" yMax="1462">
      <contour>
        <pt x="385" y="608" on="1"/>
        <pt x="256" y="0" on="1"/>
        <pt x="86" y="0" on="1"/>
        <pt x="395" y="1462" on="1"/>
        <pt x="715" y="1462" on="1"/>
        <pt x="1161" y="1462" on="0"/>
        <pt x="1161" y="1096" on="1"/>
        <pt x="1161" y="748" on="0"/>
        <pt x="793" y="647" on="1"/>
        <pt x="1032" y="0" on="1"/>
        <pt x="846" y="0" on="1"/>
        <pt x="637" y="608" on="1"/>
      </contour>
      <contour>
        <pt x="532" y="1313" on="1"/>
        <pt x="430" y="819" on="0"/>
        <pt x="416" y="754" on="1"/>
        <pt x="584" y="754" on="1"/>
        <pt x="777" y="754" on="0"/>
        <pt x="985" y="924" on="0"/>
        <pt x="985" y="1083" on="1"/>
        <pt x="985" y="1204" on="0"/>
        <pt x="850" y="1313" on="0"/>
        <pt x="698" y="1313" on="1"/>
      </contour>
    </TTGlyph>
    <TTGlyph name="Racute" xMin="86" yMin="0" xMax="1161" yMax="1907">
      <component glyphName="R" x="0" y="0" flags="0x204"/>
      <component glyphName="acute" x="145" y="338" flags="0x4"/>
    </TTGlyph>
    <TTGlyph name="Rcaron" xMin="86" yMin="0" xMax="1161" yMax="1907">
      <component glyphName="R" x="0" y="0" flags="0x204"/>
      <component glyphName="caron" x="51" y="338" flags="0x4"/>
    </TTGlyph>
    <TTGlyph name="Rcommaaccent" xMin="86" yMin="-453" xMax="1161" yMax="1462">
      <component glyphName="R" x="0" y="0" flags="0x204"/>
      <component glyphName="commaaccent" x="158" y="0" flags="0x4"/>
    </TTGlyph>
    <TTGlyph name="Rho" xMin="86" yMin="0" xMax="1159" yMax="1462">
      <component glyphName="P" x="0" y="0" flags="0x204"/>
    </TTGlyph>
    <TTGlyph name="S" xMin="39" yMin="-20" xMax="1059" yMax="1483">
      <contour>
        <pt x="913" y="424" on="1"/>
        <pt x="913" y="213" on="0"/>
        <pt x="632" y="-20" on="0"/>
        <pt x="377" y="-20" on="1"/>
        <pt x="271" y="-20" on="0"/>
        <pt x="110" y="9" on="0"/>
        <pt x="39" y="43" on="1"/>
        <pt x="39" y="213" on="1"/>
        <pt x="201" y="129" on="0"/>
        <pt x="379" y="129" on="1"/>
        <pt x="541" y="129" on="0"/>
        <pt x="731" y="280" on="0"/>
        <pt x="731" y="412" on="1"/>
        <pt x="731" y="490" on="0"/>
        <pt x="626" y="609" on="0"/>
        <pt x="483" y="690" on="1"/>
        <pt x="332" y="775" on="0"/>
        <pt x="215" y="945" on="0"/>
        <pt x="215" y="1061" on="1"/>
        <pt x="215" y="1248" on="0"/>
        <pt x="479" y="1483" on="0"/>
        <pt x="694" y="1483" on="1"/>
        <pt x="793" y="1483" on="0"/>
        <pt x="964" y="1445" on="0"/>
        <pt x="1059" y="1399" on="1"/>
        <pt x="993" y="1249" on="1"/>
        <pt x="927" y="1287" on="0"/>
        <pt x="763" y="1331" on="0"/>
        <pt x="694" y="1331" on="1"/>
        <pt x="560" y="1331" on="0"/>
        <pt x="397" y="1192" on="0"/>
        <pt x="397" y="1073" on="1"/>
        <pt x="397" y="1019" on="0"/>
        <pt x="431" y="942" on="0"/>
        <pt x="505" y="874" on="0"/>
        <pt x="610" y="813" on="1"/>
        <pt x="757" y="725" on="0"/>
        <pt x="860" y="625" on="0"/>
        <pt x="913" y="504" on="0"/>
      </contour>
    </TTGlyph>
    <TTGlyph name="Sacute" xMin="39" yMin="-20" xMax="1063" yMax="1907">
      <component glyphName="S" x="0" y="0" flags="0x204"/>
      <component glyphName="acute" x="109" y="338" flags="0x4"/>
    </TTGlyph>
    <TTGlyph name="Scaron" xMin="39" yMin="-20" xMax="1059" yMax="1907">
      <component glyphName="S" x="0" y="0" flags="0x204"/>
      <component glyphName="caron" x="-46" y="338" flags="0x4"/>
    </TTGlyph>
    <TTGlyph name="Scedilla" xMin="39" yMin="-492" xMax="1059" yMax="1483">
      <component glyphName="S" x="0" y="0" flags="0x204"/>
      <component glyphName="cedilla" x="326" y="0" flags="0x4"/>
    </TTGlyph>
    <TTGlyph name="Scircumflex" xMin="39" yMin="-20" xMax="1059" yMax="1907">
      <component glyphName="S" x="0" y="0" flags="0x204"/>
      <component glyphName="circumflex" x="0" y="338" flags="0x4"/>
    </TTGlyph>
    <TTGlyph name="Scommaaccent" xMin="39" yMin="-453" xMax="1059" yMax="1483">
      <component glyphName="S" x="0" y="0" flags="0x204"/>
      <component glyphName="commaaccent" x="27" y="0" flags="0x4"/>
    </TTGlyph>
    <TTGlyph name="Sigma" xMin="-29" yMin="0" xMax="1151" yMax="1462">
      <contour>
        <pt x="-29" y="0" on="1"/>
        <pt x="-2" y="139" on="1"/>
        <pt x="530" y="756" on="1"/>
        <pt x="262" y="1325" on="1"/>
        <pt x="289" y="1462" on="1"/>
        <pt x="1151" y="1462" on="1"/>
        <pt x="1118" y="1309" on="1"/>
        <pt x="442" y="1309" on="1"/>
        <pt x="709" y="743" on="1"/>
        <pt x="199" y="152" on="1"/>
        <pt x="932" y="152" on="1"/>
        <pt x="899" y="0" on="1"/>
      </contour>
    </TTGlyph>
    <TTGlyph name="T" xMin="186" yMin="0" xMax="1204" yMax="1462">
      <contour>
        <pt x="487" y="0" on="1"/>
        <pt x="315" y="0" on="1"/>
        <pt x="592" y="1311" on="1"/>
        <pt x="186" y="1311" on="1"/>
        <pt x="219" y="1462" on="1"/>
        <pt x="1204" y="1462" on="1"/>
        <pt x="1174" y="1311" on="1"/>
        <pt x="766" y="1311" on="1"/>
      </contour>
    </TTGlyph>
    <TTGlyph name="Tau" xMin="186" yMin="0" xMax="1204" yMax="1462">
      <component glyphName="T" x="0" y="0" flags="0x204"/>
    </TTGlyph>
    <TTGlyph name="Tbar" xMin="170" yMin="0" xMax="1204" yMax="1462">
      <contour>
        <pt x="659" y="815" on="1"/>
        <pt x="954" y="815" on="1"/>
        <pt x="926" y="678" on="1"/>
        <pt x="631" y="678" on="1"/>
        <pt x="487" y="0" on="1"/>
        <pt x="315" y="0" on="1"/>
        <pt x="459" y="678" on="1"/>
        <pt x="170" y="678" on="1"/>
        <pt x="201" y="815" on="1"/>
        <pt x="485" y="815" on="1"/>
        <pt x="592" y="1311" on="1"/>
        <pt x="186" y="1311" on="1"/>
        <pt x="219" y="1462" on="1"/>
        <pt x="1204" y="1462" on="1"/>
        <pt x="1174" y="1311" on="1"/>
        <pt x="766" y="1311" on="1"/>
      </contour>
    </TTGlyph>
    <TTGlyph name="Tcaron" xMin="186" yMin="0" xMax="1204" yMax="1907">
      <component glyphName="T" x="0" y="0" flags="0x204"/>
      <component glyphName="caron" x="2" y="338" flags="0x4"/>
    </TTGlyph>
    <TTGlyph name="Tcedilla" xMin="149" yMin="-492" xMax="1204" yMax="1462">
      <component glyphName="T" x="0" y="0" flags="0x204"/>
      <component glyphName="cedilla" x="319" y="0" flags="0x4"/>
    </TTGlyph>
    <TTGlyph name="Tcommaaccent" xMin="145" yMin="-453" xMax="1204" yMax="1462">
      <component glyphName="T" x="0" y="0" flags="0x204"/>
      <component glyphName="commaaccent" x="-11" y="0" flags="0x4"/>
    </TTGlyph>
    <TTGlyph name="Theta" xMin="150" yMin="-20" xMax="1411" yMax="1485">
      <contour>
        <pt x="1057" y="819" on="1"/>
        <pt x="1026" y="670" on="1"/>
        <pt x="494" y="670" on="1"/>
        <pt x="524" y="819" on="1"/>
      </contour>
      <contour>
        <pt x="1411" y="907" on="1"/>
        <pt x="1411" y="638" on="0"/>
        <pt x="1235" y="213" on="0"/>
        <pt x="907" y="-20" on="0"/>
        <pt x="692" y="-20" on="1"/>
        <pt x="436" y="-20" on="0"/>
        <pt x="150" y="279" on="0"/>
        <pt x="150" y="549" on="1"/>
        <pt x="150" y="813" on="0"/>
        <pt x="342" y="1249" on="0"/>
        <pt x="677" y="1485" on="0"/>
        <pt x="887" y="1485" on="1"/>
        <pt x="1131" y="1485" on="0"/>
        <pt x="1411" y="1177" on="0"/>
      </contour>
      <contour>
        <pt x="874" y="1333" on="1"/>
        <pt x="717" y="1333" on="0"/>
        <pt x="469" y="1131" on="0"/>
        <pt x="332" y="771" on="0"/>
        <pt x="332" y="553" on="1"/>
        <pt x="332" y="354" on="0"/>
        <pt x="528" y="131" on="0"/>
        <pt x="696" y="131" on="1"/>
        <pt x="848" y="131" on="0"/>
        <pt x="1089" y="326" on="0"/>
        <pt x="1229" y="690" on="0"/>
        <pt x="1229" y="911" on="1"/>
        <pt x="1229" y="1110" on="0"/>
        <pt x="1041" y="1333" on="0"/>
      </contour>
    </TTGlyph>
    <TTGlyph name="Thorn" xMin="86" yMin="0" xMax="1106" yMax="1462">
      <contour>
        <pt x="1106" y="829" on="1"/>
        <pt x="1106" y="581" on="0"/>
        <pt x="778" y="319" on="0"/>
        <pt x="459" y="319" on="1"/>
        <pt x="326" y="319" on="1"/>
        <pt x="256" y="0" on="1"/>
        <pt x="86" y="0" on="1"/>
        <pt x="395" y="1462" on="1"/>
        <pt x="565" y="1462" on="1"/>
        <pt x="512" y="1206" on="1"/>
        <pt x="672" y="1206" on="1"/>
        <pt x="885" y="1206" on="0"/>
        <pt x="1106" y="1016" on="0"/>
      </contour>
      <contour>
        <pt x="354" y="465" on="1"/>
        <pt x="489" y="465" on="1"/>
        <pt x="704" y="465" on="0"/>
        <pt x="930" y="647" on="0"/>
        <pt x="930" y="823" on="1"/>
        <pt x="930" y="949" on="0"/>
        <pt x="790" y="1059" on="0"/>
        <pt x="645" y="1059" on="1"/>
        <pt x="479" y="1059" on="1"/>
      </contour>
    </TTGlyph>
    <TTGlyph name="U" xMin="164" yMin="-20" xMax="1407" yMax="1462">
      <contour>
        <pt x="1407" y="1462" on="1"/>
        <pt x="1202" y="496" on="1"/>
        <pt x="1147" y="233" on="0"/>
        <pt x="862" y="-20" on="0"/>
        <pt x="616" y="-20" on="1"/>
        <pt x="386" y="-20" on="0"/>
        <pt x="164" y="188" on="0"/>
        <pt x="164" y="383" on="1"/>
        <pt x="164" y="464" on="0"/>
        <pt x="188" y="584" on="1"/>
        <pt x="377" y="1462" on="1"/>
        <pt x="547" y="1462" on="1"/>
        <pt x="356" y="571" on="1"/>
        <pt x="334" y="465" on="0"/>
        <pt x="334" y="383" on="1"/>
        <pt x="334" y="266" on="0"/>
        <pt x="480" y="131" on="0"/>
        <pt x="625" y="131" on="1"/>
        <pt x="797" y="131" on="0"/>
        <pt x="988" y="306" on="0"/>
        <pt x="1032" y="508" on="1"/>
        <pt x="1237" y="1462" on="1"/>
      </contour>
    </TTGlyph>
    <TTGlyph name="Uacute" xMin="164" yMin="-20" xMax="1407" yMax="1907">
      <component glyphName="U" x="0" y="0" flags="0x204"/>
      <component glyphName="acute" x="291" y="338" flags="0x4"/>
    </TTGlyph>
    <TTGlyph name="Ubreve" xMin="164" yMin="-20" xMax="1407" yMax="1847">
      <component glyphName="U" x="0" y="0" flags="0x204"/>
      <component glyphName="breve" x="170" y="338" flags="0x4"/>
    </TTGlyph>
    <TTGlyph name="Ucircumflex" xMin="164" yMin="-20" xMax="1407" yMax="1907">
      <component glyphName="U" x="0" y="0" flags="0x204"/>
      <component glyphName="circumflex" x="203" y="338" flags="0x4"/>
    </TTGlyph>
    <TTGlyph name="Udieresis" xMin="164" yMin="-20" xMax="1407" yMax="1829">
      <component glyphName="U" x="0" y="0" flags="0x204"/>
      <component glyphName="dieresis" x="186" y="338" flags="0x4"/>
    </TTGlyph>
    <TTGlyph name="Ugrave" xMin="164" yMin="-20" xMax="1407" yMax="1907">
      <component glyphName="U" x="0" y="0" flags="0x204"/>
      <component glyphName="grave" x="88" y="338" flags="0x4"/>
    </TTGlyph>
    <TTGlyph name="Uhorn" xMin="164" yMin="-20" xMax="1765" yMax="1556">
      <contour>
        <pt x="1407" y="1462" on="1"/>
        <pt x="1364" y="1264" on="1"/>
        <pt x="1533" y="1300" on="0"/>
        <pt x="1573" y="1556" on="1"/>
        <pt x="1757" y="1556" on="1"/>
        <pt x="1765" y="1534" on="1"/>
        <pt x="1731" y="1381" on="0"/>
        <pt x="1510" y="1179" on="0"/>
        <pt x="1339" y="1145" on="1"/>
        <pt x="1202" y="496" on="1"/>
        <pt x="1147" y="230" on="0"/>
        <pt x="865" y="-20" on="0"/>
        <pt x="623" y="-20" on="1"/>
        <pt x="392" y="-20" on="0"/>
        <pt x="164" y="192" on="0"/>
        <pt x="164" y="387" on="1"/>
        <pt x="164" y="473" on="0"/>
        <pt x="188" y="584" on="1"/>
        <pt x="377" y="1462" on="1"/>
        <pt x="547" y="1462" on="1"/>
        <pt x="356" y="569" on="1"/>
        <pt x="334" y="465" on="0"/>
        <pt x="334" y="397" on="1"/>
        <pt x="334" y="131" on="0"/>
        <pt x="625" y="131" on="1"/>
        <pt x="794" y="131" on="0"/>
        <pt x="986" y="305" on="0"/>
        <pt x="1032" y="510" on="1"/>
        <pt x="1237" y="1462" on="1"/>
      </contour>
    </TTGlyph>
    <TTGlyph name="Uhungarumlaut" xMin="164" yMin="-20" xMax="1407" yMax="1907">
      <component glyphName="U" x="0" y="0" flags="0x204"/>
      <component glyphName="hungarumlaut" x="266" y="338" flags="0x4"/>
    </TTGlyph>
    <TTGlyph name="Umacron" xMin="164" yMin="-20" xMax="1407" yMax="1720">
      <component glyphName="U" x="0" y="0" flags="0x204"/>
      <component glyphName="macron" x="221" y="338" flags="0x4"/>
    </TTGlyph>
    <TTGlyph name="Uogonek" xMin="164" yMin="-440" xMax="1407" yMax="1462">
      <component glyphName="U" x="0" y="0" flags="0x204"/>
      <component glyphName="ogonek" x="631" y="0" flags="0x4"/>
    </TTGlyph>
    <TTGlyph name="Upsilon" xMin="188" yMin="0" xMax="1219" yMax="1462">
      <component glyphName="Y" x="0" y="0" flags="0x204"/>
    </TTGlyph>
    <TTGlyph name="Upsilondieresis" xMin="188" yMin="0" xMax="1219" yMax="1829">
      <component glyphName="Y" x="0" y="0" flags="0x204"/>
      <component glyphName="dieresis" x="-5" y="338" flags="0x4"/>
    </TTGlyph>
    <TTGlyph name="Upsilontonos" xMin="71" yMin="0" xMax="1500" yMax="1548">
      <component glyphName="Y" x="281" y="0" flags="0x4"/>
      <component glyphName="tonos" x="-552" y="-105" flags="0x4"/>
    </TTGlyph>
    <TTGlyph name="Uring" xMin="164" yMin="-20" xMax="1407" yMax="2003">
      <component glyphName="U" x="0" y="0" flags="0x204"/>
      <component glyphName="ring" x="143" y="338" flags="0x4"/>
    </TTGlyph>
    <TTGlyph name="Utilde" xMin="164" yMin="-20" xMax="1407" yMax="1839">
      <component glyphName="U" x="0" y="0" flags="0x204"/>
      <component glyphName="tilde" x="221" y="338" flags="0x4"/>
    </TTGlyph>
    <TTGlyph name="V" xMin="188" yMin="0" xMax="1311" yMax="1462">
      <contour>
        <pt x="479" y="197" on="1"/>
        <pt x="540" y="341" on="0"/>
        <pt x="641" y="535" on="1"/>
        <pt x="1120" y="1462" on="1"/>
        <pt x="1311" y="1462" on="1"/>
        <pt x="530" y="0" on="1"/>
        <pt x="350" y="0" on="1"/>
        <pt x="188" y="1462" on="1"/>
        <pt x="358" y="1462" on="1"/>
        <pt x="455" y="532" on="1"/>
        <pt x="475" y="336" on="0"/>
        <pt x="475" y="197" on="1"/>
      </contour>
    </TTGlyph>
    <TTGlyph name="W" xMin="223" yMin="0" xMax="1921" yMax="1462">
      <contour>
        <pt x="1257" y="0" on="1"/>
        <pt x="1087" y="0" on="1"/>
        <pt x="1038" y="965" on="1"/>
        <pt x="1030" y="1101" on="0"/>
        <pt x="1030" y="1247" on="1"/>
        <pt x="1024" y="1247" on="1"/>
        <pt x="999" y="1175" on="0"/>
        <pt x="927" y="1010" on="0"/>
        <pt x="459" y="0" on="1"/>
        <pt x="285" y="0" on="1"/>
        <pt x="223" y="1462" on="1"/>
        <pt x="393" y="1462" on="1"/>
        <pt x="424" y="561" on="1"/>
        <pt x="426" y="473" on="1"/>
        <pt x="426" y="375" on="0"/>
        <pt x="416" y="215" on="1"/>
        <pt x="422" y="215" on="1"/>
        <pt x="511" y="458" on="0"/>
        <pt x="578" y="598" on="1"/>
        <pt x="983" y="1462" on="1"/>
        <pt x="1161" y="1462" on="1"/>
        <pt x="1204" y="602" on="1"/>
        <pt x="1213" y="449" on="0"/>
        <pt x="1213" y="298" on="1"/>
        <pt x="1212" y="215" on="1"/>
        <pt x="1221" y="215" on="1"/>
        <pt x="1296" y="439" on="0"/>
        <pt x="1352" y="569" on="1"/>
        <pt x="1739" y="1462" on="1"/>
        <pt x="1921" y="1462" on="1"/>
      </contour>
    </TTGlyph>
    <TTGlyph name="Wacute" xMin="223" yMin="0" xMax="1921" yMax="1907">
      <component glyphName="W" x="0" y="0" flags="0x204"/>
      <component glyphName="acute" x="481" y="338" flags="0x4"/>
    </TTGlyph>
    <TTGlyph name="Wcircumflex" xMin="223" yMin="0" xMax="1921" yMax="1907">
      <component glyphName="W" x="0" y="0" flags="0x204"/>
      <component glyphName="circumflex" x="362" y="338" flags="0x4"/>
    </TTGlyph>
    <TTGlyph name="Wdieresis" xMin="223" yMin="0" xMax="1921" yMax="1829">
      <component glyphName="W" x="0" y="0" flags="0x204"/>
      <component glyphName="dieresis" x="365" y="338" flags="0x4"/>
    </TTGlyph>
    <TTGlyph name="Wgrave" xMin="223" yMin="0" xMax="1921" yMax="1907">
      <component glyphName="W" x="0" y="0" flags="0x204"/>
      <component glyphName="grave" x="256" y="338" flags="0x4"/>
    </TTGlyph>
    <TTGlyph name="X" xMin="-104" yMin="0" xMax="1233" yMax="1462">
      <contour>
        <pt x="956" y="0" on="1"/>
        <pt x="776" y="0" on="1"/>
        <pt x="563" y="641" on="1"/>
        <pt x="82" y="0" on="1"/>
        <pt x="-104" y="0" on="1"/>
        <pt x="492" y="776" on="1"/>
        <pt x="229" y="1462" on="1"/>
        <pt x="401" y="1462" on="1"/>
        <pt x="604" y="899" on="1"/>
        <pt x="1047" y="1462" on="1"/>
        <pt x="1233" y="1462" on="1"/>
        <pt x="678" y="768" on="1"/>
      </contour>
    </TTGlyph>
    <TTGlyph name="Xi" xMin="-27" yMin="0" xMax="1135" yMax="1462">
      <contour>
        <pt x="276" y="840" on="1"/>
        <pt x="915" y="840" on="1"/>
        <pt x="887" y="690" on="1"/>
        <pt x="246" y="690" on="1"/>
      </contour>
      <contour>
        <pt x="322" y="1462" on="1"/>
        <pt x="1135" y="1462" on="1"/>
        <pt x="1102" y="1309" on="1"/>
        <pt x="289" y="1309" on="1"/>
      </contour>
      <contour>
        <pt x="897" y="152" on="1"/>
        <pt x="864" y="0" on="1"/>
        <pt x="-27" y="0" on="1"/>
        <pt x="4" y="152" on="1"/>
      </contour>
    </TTGlyph>
    <TTGlyph name="Y" xMin="188" yMin="0" xMax="1219" yMax="1462">
      <contour>
        <pt x="537" y="715" on="1"/>
        <pt x="1026" y="1462" on="1"/>
        <pt x="1219" y="1462" on="1"/>
        <pt x="592" y="541" on="1"/>
        <pt x="479" y="0" on="1"/>
        <pt x="307" y="0" on="1"/>
        <pt x="426" y="549" on="1"/>
        <pt x="188" y="1462" on="1"/>
        <pt x="358" y="1462" on="1"/>
      </contour>
    </TTGlyph>
    <TTGlyph name="Yacute" xMin="188" yMin="0" xMax="1219" yMax="1907">
      <component glyphName="Y" x="0" y="0" flags="0x204"/>
      <component glyphName="acute" x="84" y="338" flags="0x4"/>
    </TTGlyph>
    <TTGlyph name="Ycircumflex" xMin="188" yMin="0" xMax="1219" yMax="1907">
      <component glyphName="Y" x="0" y="0" flags="0x204"/>
      <component glyphName="circumflex" x="-26" y="338" flags="0x4"/>
    </TTGlyph>
    <TTGlyph name="Ydieresis" xMin="188" yMin="0" xMax="1219" yMax="1829">
      <component glyphName="Y" x="0" y="0" flags="0x204"/>
      <component glyphName="dieresis" x="-5" y="338" flags="0x4"/>
    </TTGlyph>
    <TTGlyph name="Ygrave" xMin="188" yMin="0" xMax="1219" yMax="1907">
      <component glyphName="Y" x="0" y="0" flags="0x204"/>
      <component glyphName="grave" x="-134" y="338" flags="0x4"/>
    </TTGlyph>
    <TTGlyph name="Z" xMin="-16" yMin="0" xMax="1171" yMax="1462">
      <contour>
        <pt x="885" y="0" on="1"/>
        <pt x="-16" y="0" on="1"/>
        <pt x="12" y="137" on="1"/>
        <pt x="936" y="1307" on="1"/>
        <pt x="281" y="1307" on="1"/>
        <pt x="313" y="1462" on="1"/>
        <pt x="1171" y="1462" on="1"/>
        <pt x="1145" y="1323" on="1"/>
        <pt x="221" y="154" on="1"/>
        <pt x="918" y="154" on="1"/>
      </contour>
    </TTGlyph>
    <TTGlyph name="Zacute" xMin="-16" yMin="0" xMax="1171" yMax="1907">
      <component glyphName="Z" x="0" y="0" flags="0x204"/>
      <component glyphName="acute" x="147" y="338" flags="0x4"/>
    </TTGlyph>
    <TTGlyph name="Zcaron" xMin="-16" yMin="0" xMax="1171" yMax="1907">
      <component glyphName="Z" x="0" y="0" flags="0x204"/>
      <component glyphName="caron" x="35" y="338" flags="0x4"/>
    </TTGlyph>
    <TTGlyph name="Zdotaccent" xMin="-16" yMin="0" xMax="1171" yMax="1841">
      <component glyphName="Z" x="0" y="0" flags="0x204"/>
      <component glyphName="dotaccent" x="340" y="338" flags="0x4"/>
    </TTGlyph>
    <TTGlyph name="Zeta" xMin="-16" yMin="0" xMax="1171" yMax="1462">
      <component glyphName="Z" x="0" y="0" flags="0x204"/>
    </TTGlyph>
    <TTGlyph name="a" xMin="98" yMin="-20" xMax="1120" yMax="1116">
      <contour>
        <pt x="639" y="1116" on="1"/>
        <pt x="731" y="1116" on="0"/>
        <pt x="875" y="1017" on="0"/>
        <pt x="915" y="924" on="1"/>
        <pt x="926" y="924" on="1"/>
        <pt x="993" y="1096" on="1"/>
        <pt x="1120" y="1096" on="1"/>
        <pt x="887" y="0" on="1"/>
        <pt x="754" y="0" on="1"/>
        <pt x="780" y="209" on="1"/>
        <pt x="772" y="209" on="1"/>
        <pt x="593" y="-20" on="0"/>
        <pt x="395" y="-20" on="1"/>
        <pt x="256" y="-20" on="0"/>
        <pt x="98" y="178" on="0"/>
        <pt x="98" y="350" on="1"/>
        <pt x="98" y="558" on="0"/>
        <pt x="240" y="914" on="0"/>
        <pt x="490" y="1116" on="0"/>
      </contour>
      <contour>
        <pt x="449" y="119" on="1"/>
        <pt x="546" y="119" on="0"/>
        <pt x="738" y="304" on="0"/>
        <pt x="858" y="601" on="0"/>
        <pt x="858" y="750" on="1"/>
        <pt x="858" y="853" on="0"/>
        <pt x="746" y="975" on="0"/>
        <pt x="655" y="975" on="1"/>
        <pt x="551" y="975" on="0"/>
        <pt x="372" y="803" on="0"/>
        <pt x="270" y="509" on="0"/>
        <pt x="270" y="346" on="1"/>
        <pt x="270" y="232" on="0"/>
        <pt x="364" y="119" on="0"/>
      </contour>
    </TTGlyph>
    <TTGlyph name="aacute" xMin="98" yMin="-20" xMax="1120" yMax="1569">
      <component glyphName="a" x="0" y="0" flags="0x204"/>
      <component glyphName="acute" x="68" y="0" flags="0x4"/>
    </TTGlyph>
    <TTGlyph name="abreve" xMin="98" yMin="-20" xMax="1120" yMax="1509">
      <component glyphName="a" x="0" y="0" flags="0x204"/>
      <component glyphName="breve" x="2" y="0" flags="0x4"/>
    </TTGlyph>
    <TTGlyph name="acircumflex" xMin="98" yMin="-20" xMax="1120" yMax="1569">
      <component glyphName="a" x="0" y="0" flags="0x204"/>
      <component glyphName="circumflex" x="-9" y="0" flags="0x4"/>
    </TTGlyph>
    <TTGlyph name="acute" xMin="532" yMin="1241" xMax="954" yMax="1569">
      <contour>
        <pt x="532" y="1268" on="1"/>
        <pt x="588" y="1328" on="0"/>
        <pt x="727" y="1511" on="0"/>
        <pt x="764" y="1569" on="1"/>
        <pt x="954" y="1569" on="1"/>
        <pt x="954" y="1548" on="1"/>
        <pt x="916" y="1499" on="0"/>
        <pt x="712" y="1295" on="0"/>
        <pt x="637" y="1241" on="1"/>
        <pt x="532" y="1241" on="1"/>
      </contour>
    </TTGlyph>
    <TTGlyph name="adieresis" xMin="98" yMin="-20" xMax="1120" yMax="1491">
      <component glyphName="a" x="0" y="0" flags="0x204"/>
      <component glyphName="dieresis" x="-3" y="0" flags="0x4"/>
    </TTGlyph>
    <TTGlyph name="ae" xMin="98" yMin="-20" xMax="1624" yMax="1116">
      <contour>
        <pt x="1165" y="-20" on="1"/>
        <pt x="1057" y="-20" on="0"/>
        <pt x="894" y="59" on="0"/>
        <pt x="854" y="139" on="1"/>
        <pt x="823" y="0" on="1"/>
        <pt x="709" y="0" on="1"/>
        <pt x="735" y="209" on="1"/>
        <pt x="727" y="209" on="1"/>
        <pt x="618" y="77" on="0"/>
        <pt x="453" y="-20" on="0"/>
        <pt x="358" y="-20" on="1"/>
        <pt x="236" y="-20" on="0"/>
        <pt x="98" y="178" on="0"/>
        <pt x="98" y="348" on="1"/>
        <pt x="98" y="554" on="0"/>
        <pt x="239" y="912" on="0"/>
        <pt x="481" y="1116" on="0"/>
        <pt x="623" y="1116" on="1"/>
        <pt x="705" y="1116" on="0"/>
        <pt x="831" y="1019" on="0"/>
        <pt x="870" y="924" on="1"/>
        <pt x="881" y="924" on="1"/>
        <pt x="948" y="1096" on="1"/>
        <pt x="1057" y="1096" on="1"/>
        <pt x="1026" y="950" on="1"/>
        <pt x="1149" y="1116" on="0"/>
        <pt x="1358" y="1116" on="1"/>
        <pt x="1477" y="1116" on="0"/>
        <pt x="1624" y="980" on="0"/>
        <pt x="1624" y="864" on="1"/>
        <pt x="1624" y="682" on="0"/>
        <pt x="1291" y="479" on="0"/>
        <pt x="985" y="479" on="1"/>
        <pt x="946" y="479" on="1"/>
        <pt x="942" y="399" on="1"/>
        <pt x="942" y="268" on="0"/>
        <pt x="1067" y="121" on="0"/>
        <pt x="1198" y="121" on="1"/>
        <pt x="1253" y="121" on="0"/>
        <pt x="1376" y="154" on="0"/>
        <pt x="1493" y="205" on="1"/>
        <pt x="1493" y="55" on="1"/>
        <pt x="1329" y="-20" on="0"/>
      </contour>
      <contour>
        <pt x="412" y="119" on="1"/>
        <pt x="507" y="119" on="0"/>
        <pt x="694" y="302" on="0"/>
        <pt x="813" y="600" on="0"/>
        <pt x="813" y="750" on="1"/>
        <pt x="813" y="853" on="0"/>
        <pt x="722" y="975" on="0"/>
        <pt x="645" y="975" on="1"/>
        <pt x="546" y="975" on="0"/>
        <pt x="370" y="802" on="0"/>
        <pt x="270" y="512" on="0"/>
        <pt x="270" y="348" on="1"/>
        <pt x="270" y="234" on="0"/>
        <pt x="344" y="119" on="0"/>
      </contour>
      <contour>
        <pt x="1325" y="973" on="1"/>
        <pt x="1208" y="973" on="0"/>
        <pt x="1020" y="784" on="0"/>
        <pt x="973" y="618" on="1"/>
        <pt x="987" y="618" on="1"/>
        <pt x="1213" y="618" on="0"/>
        <pt x="1458" y="735" on="0"/>
        <pt x="1458" y="846" on="1"/>
        <pt x="1458" y="907" on="0"/>
        <pt x="1388" y="973" on="0"/>
      </contour>
    </TTGlyph>
    <TTGlyph name="aeacute" xMin="98" yMin="-20" xMax="1624" yMax="1569">
      <component glyphName="ae" x="0" y="0" flags="0x204"/>
      <component glyphName="acute" x="389" y="0" flags="0x4"/>
    </TTGlyph>
    <TTGlyph name="afii00208" xMin="55" yMin="469" xMax="1896" yMax="629">
      <component glyphName="emdash" x="0" y="0" flags="0x204"/>
    </TTGlyph>
    <TTGlyph name="afii08941" xMin="-23" yMin="0" xMax="1178" yMax="1481">
      <contour>
        <pt x="358" y="883" on="1"/>
        <pt x="412" y="1128" on="1"/>
        <pt x="452" y="1308" on="0"/>
        <pt x="666" y="1481" on="0"/>
        <pt x="842" y="1481" on="1"/>
        <pt x="933" y="1481" on="0"/>
        <pt x="1113" y="1434" on="0"/>
        <pt x="1178" y="1395" on="1"/>
        <pt x="1112" y="1262" on="1"/>
        <pt x="1055" y="1295" on="0"/>
        <pt x="899" y="1341" on="0"/>
        <pt x="834" y="1341" on="1"/>
        <pt x="729" y="1341" on="0"/>
        <pt x="598" y="1228" on="0"/>
        <pt x="571" y="1104" on="1"/>
        <pt x="524" y="883" on="1"/>
        <pt x="895" y="883" on="1"/>
        <pt x="866" y="750" on="1"/>
        <pt x="498" y="750" on="1"/>
        <pt x="461" y="588" on="1"/>
        <pt x="831" y="588" on="1"/>
        <pt x="805" y="455" on="1"/>
        <pt x="434" y="455" on="1"/>
        <pt x="405" y="326" on="0"/>
        <pt x="313" y="195" on="0"/>
        <pt x="238" y="154" on="1"/>
        <pt x="963" y="154" on="1"/>
        <pt x="930" y="0" on="1"/>
        <pt x="-23" y="0" on="1"/>
        <pt x="4" y="141" on="1"/>
        <pt x="114" y="166" on="0"/>
        <pt x="235" y="310" on="0"/>
        <pt x="260" y="426" on="1"/>
        <pt x="266" y="455" on="1"/>
        <pt x="76" y="455" on="1"/>
        <pt x="104" y="588" on="1"/>
        <pt x="297" y="588" on="1"/>
        <pt x="330" y="750" on="1"/>
        <pt x="131" y="750" on="1"/>
        <pt x="162" y="883" on="1"/>
      </contour>
    </TTGlyph>
    <TTGlyph name="afii10017" xMin="-117" yMin="0" xMax="1040" yMax="1462">
      <component glyphName="A" x="0" y="0" flags="0x204"/>
    </TTGlyph>
    <TTGlyph name="afii10018" xMin="90" yMin="0" xMax="1130" yMax="1462">
      <contour>
        <pt x="590" y="838" on="1"/>
        <pt x="1030" y="838" on="0"/>
        <pt x="1030" y="481" on="1"/>
        <pt x="1030" y="251" on="0"/>
        <pt x="734" y="0" on="0"/>
        <pt x="457" y="0" on="1"/>
        <pt x="90" y="0" on="1"/>
        <pt x="399" y="1462" on="1"/>
        <pt x="1130" y="1462" on="1"/>
        <pt x="1098" y="1309" on="1"/>
        <pt x="539" y="1309" on="1"/>
        <pt x="438" y="838" on="1"/>
      </contour>
      <contour>
        <pt x="483" y="145" on="1"/>
        <pt x="854" y="145" on="0"/>
        <pt x="854" y="465" on="1"/>
        <pt x="854" y="579" on="0"/>
        <pt x="729" y="690" on="0"/>
        <pt x="592" y="690" on="1"/>
        <pt x="408" y="690" on="1"/>
        <pt x="291" y="145" on="1"/>
      </contour>
    </TTGlyph>
    <TTGlyph name="afii10019" xMin="86" yMin="0" xMax="1202" yMax="1462">
      <component glyphName="B" x="0" y="0" flags="0x204"/>
    </TTGlyph>
    <TTGlyph name="afii10020" xMin="86" yMin="0" xMax="1130" yMax="1462">
      <component glyphName="Gamma" x="0" y="0" flags="0x204"/>
    </TTGlyph>
    <TTGlyph name="afii10021" xMin="-170" yMin="-379" xMax="1262" yMax="1462">
      <contour>
        <pt x="895" y="-379" on="1"/>
        <pt x="975" y="0" on="1"/>
        <pt x="68" y="0" on="1"/>
        <pt x="-12" y="-379" on="1"/>
        <pt x="-170" y="-379" on="1"/>
        <pt x="-57" y="154" on="1"/>
        <pt x="45" y="154" on="1"/>
        <pt x="184" y="346" on="0"/>
        <pt x="455" y="847" on="0"/>
        <pt x="643" y="1300" on="0"/>
        <pt x="682" y="1462" on="1"/>
        <pt x="1262" y="1462" on="1"/>
        <pt x="985" y="154" on="1"/>
        <pt x="1171" y="154" on="1"/>
        <pt x="1057" y="-379" on="1"/>
      </contour>
      <contour>
        <pt x="1057" y="1307" on="1"/>
        <pt x="807" y="1307" on="1"/>
        <pt x="730" y="1058" on="0"/>
        <pt x="385" y="359" on="0"/>
        <pt x="238" y="154" on="1"/>
        <pt x="811" y="154" on="1"/>
      </contour>
    </TTGlyph>
    <TTGlyph name="afii10022" xMin="86" yMin="0" xMax="1130" yMax="1462">
      <component glyphName="E" x="0" y="0" flags="0x204"/>
    </TTGlyph>
    <TTGlyph name="afii10023" xMin="86" yMin="0" xMax="1130" yMax="1829">
      <component glyphName="E" x="0" y="0" flags="0x204"/>
      <component glyphName="dieresis" x="66" y="338" flags="0x4"/>
    </TTGlyph>
    <TTGlyph name="afii10024" xMin="-100" yMin="0" xMax="1776" yMax="1462">
      <contour>
        <pt x="584" y="768" on="1"/>
        <pt x="219" y="1462" on="1"/>
        <pt x="406" y="1462" on="1"/>
        <pt x="766" y="764" on="1"/>
        <pt x="913" y="1462" on="1"/>
        <pt x="1079" y="1462" on="1"/>
        <pt x="932" y="764" on="1"/>
        <pt x="1569" y="1462" on="1"/>
        <pt x="1776" y="1462" on="1"/>
        <pt x="1102" y="727" on="1"/>
        <pt x="1477" y="0" on="1"/>
        <pt x="1286" y="0" on="1"/>
        <pt x="924" y="731" on="1"/>
        <pt x="770" y="0" on="1"/>
        <pt x="604" y="0" on="1"/>
        <pt x="758" y="731" on="1"/>
        <pt x="109" y="0" on="1"/>
        <pt x="-100" y="0" on="1"/>
      </contour>
    </TTGlyph>
    <TTGlyph name="afii10025" xMin="-6" yMin="-20" xMax="1063" yMax="1483">
      <contour>
        <pt x="1063" y="1159" on="1"/>
        <pt x="1063" y="1005" on="0"/>
        <pt x="862" y="791" on="0"/>
        <pt x="690" y="756" on="1"/>
        <pt x="690" y="750" on="1"/>
        <pt x="819" y="731" on="0"/>
        <pt x="973" y="565" on="0"/>
        <pt x="973" y="428" on="1"/>
        <pt x="973" y="298" on="0"/>
        <pt x="830" y="92" on="0"/>
        <pt x="565" y="-20" on="0"/>
        <pt x="385" y="-20" on="1"/>
        <pt x="160" y="-20" on="0"/>
        <pt x="-6" y="59" on="1"/>
        <pt x="-6" y="225" on="1"/>
        <pt x="72" y="180" on="0"/>
        <pt x="287" y="121" on="0"/>
        <pt x="399" y="121" on="1"/>
        <pt x="584" y="121" on="0"/>
        <pt x="791" y="292" on="0"/>
        <pt x="791" y="436" on="1"/>
        <pt x="791" y="684" on="0"/>
        <pt x="469" y="684" on="1"/>
        <pt x="254" y="684" on="1"/>
        <pt x="283" y="825" on="1"/>
        <pt x="483" y="825" on="1"/>
        <pt x="670" y="825" on="0"/>
        <pt x="887" y="991" on="0"/>
        <pt x="887" y="1137" on="1"/>
        <pt x="887" y="1243" on="0"/>
        <pt x="762" y="1341" on="0"/>
        <pt x="657" y="1341" on="1"/>
        <pt x="489" y="1341" on="0"/>
        <pt x="305" y="1223" on="1"/>
        <pt x="233" y="1346" on="1"/>
        <pt x="346" y="1420" on="0"/>
        <pt x="561" y="1483" on="0"/>
        <pt x="690" y="1483" on="1"/>
        <pt x="862" y="1483" on="0"/>
        <pt x="1063" y="1310" on="0"/>
      </contour>
    </TTGlyph>
    <TTGlyph name="afii10026" xMin="86" yMin="0" xMax="1438" yMax="1462">
      <contour>
        <pt x="395" y="1462" on="1"/>
        <pt x="559" y="1462" on="1"/>
        <pt x="385" y="645" on="1"/>
        <pt x="295" y="250" on="1"/>
        <pt x="299" y="250" on="1"/>
        <pt x="1239" y="1462" on="1"/>
        <pt x="1438" y="1462" on="1"/>
        <pt x="1128" y="0" on="1"/>
        <pt x="967" y="0" on="1"/>
        <pt x="1141" y="825" on="1"/>
        <pt x="1201" y="1114" on="0"/>
        <pt x="1235" y="1235" on="1"/>
        <pt x="1231" y="1235" on="1"/>
        <pt x="285" y="0" on="1"/>
        <pt x="86" y="0" on="1"/>
      </contour>
    </TTGlyph>
    <TTGlyph name="afii10027" xMin="86" yMin="0" xMax="1438" yMax="1890">
      <component glyphName="afii10026" x="0" y="0" flags="0x204"/>
      <component glyphName="cyrillicbreve" x="242" y="338" flags="0x4"/>
    </TTGlyph>
    <TTGlyph name="afii10028" xMin="86" yMin="0" xMax="1329" yMax="1462">
      <contour>
        <pt x="1065" y="0" on="1"/>
        <pt x="868" y="0" on="1"/>
        <pt x="408" y="725" on="1"/>
        <pt x="256" y="0" on="1"/>
        <pt x="86" y="0" on="1"/>
        <pt x="395" y="1462" on="1"/>
        <pt x="565" y="1462" on="1"/>
        <pt x="414" y="750" on="1"/>
        <pt x="1118" y="1462" on="1"/>
        <pt x="1329" y="1462" on="1"/>
        <pt x="592" y="731" on="1"/>
      </contour>
    </TTGlyph>
    <TTGlyph name="afii10029" xMin="-66" yMin="-23" xMax="1329" yMax="1462">
      <contour>
        <pt x="741" y="1309" on="1"/>
        <pt x="666" y="1017" on="0"/>
        <pt x="490" y="404" on="0"/>
        <pt x="361" y="106" on="0"/>
        <pt x="187" y="-23" on="0"/>
        <pt x="59" y="-23" on="1"/>
        <pt x="-17" y="-23" on="0"/>
        <pt x="-66" y="0" on="1"/>
        <pt x="-66" y="150" on="1"/>
        <pt x="-14" y="129" on="0"/>
        <pt x="37" y="129" on="1"/>
        <pt x="120" y="129" on="0"/>
        <pt x="225" y="217" on="0"/>
        <pt x="319" y="425" on="0"/>
        <pt x="464" y="897" on="0"/>
        <pt x="616" y="1462" on="1"/>
        <pt x="1329" y="1462" on="1"/>
        <pt x="1018" y="0" on="1"/>
        <pt x="846" y="0" on="1"/>
        <pt x="1124" y="1309" on="1"/>
      </contour>
    </TTGlyph>
    <TTGlyph name="afii10030" xMin="84" yMin="0" xMax="1720" yMax="1462">
      <component glyphName="M" x="0" y="0" flags="0x204"/>
    </TTGlyph>
    <TTGlyph name="afii10031" xMin="86" yMin="0" xMax="1395" yMax="1462">
      <component glyphName="H" x="0" y="0" flags="0x204"/>
    </TTGlyph>
    <TTGlyph name="afii10032" xMin="150" yMin="-20" xMax="1411" yMax="1485">
      <component glyphName="O" x="0" y="0" flags="0x204"/>
    </TTGlyph>
    <TTGlyph name="afii10033" xMin="86" yMin="0" xMax="1401" yMax="1462">
      <component glyphName="Pi" x="0" y="0" flags="0x204"/>
    </TTGlyph>
    <TTGlyph name="afii10034" xMin="86" yMin="0" xMax="1159" yMax="1462">
      <component glyphName="P" x="0" y="0" flags="0x204"/>
    </TTGlyph>
    <TTGlyph name="afii10035" xMin="150" yMin="-20" xMax="1290" yMax="1483">
      <component glyphName="C" x="0" y="0" flags="0x204"/>
    </TTGlyph>
    <TTGlyph name="afii10036" xMin="186" yMin="0" xMax="1204" yMax="1462">
      <component glyphName="T" x="0" y="0" flags="0x204"/>
    </TTGlyph>
    <TTGlyph name="afii10037" xMin="-4" yMin="-20" xMax="1360" yMax="1462">
      <contour>
        <pt x="162" y="-20" on="1"/>
        <pt x="123" y="-20" on="0"/>
        <pt x="27" y="-4" on="0"/>
        <pt x="-4" y="8" on="1"/>
        <pt x="-4" y="176" on="1"/>
        <pt x="87" y="137" on="0"/>
        <pt x="160" y="137" on="1"/>
        <pt x="266" y="137" on="0"/>
        <pt x="426" y="260" on="0"/>
        <pt x="524" y="420" on="1"/>
        <pt x="215" y="1462" on="1"/>
        <pt x="387" y="1462" on="1"/>
        <pt x="565" y="819" on="1"/>
        <pt x="614" y="637" on="0"/>
        <pt x="635" y="530" on="1"/>
        <pt x="696" y="666" on="0"/>
        <pt x="760" y="776" on="1"/>
        <pt x="1165" y="1462" on="1"/>
        <pt x="1360" y="1462" on="1"/>
        <pt x="678" y="358" on="1"/>
        <pt x="554" y="155" on="0"/>
        <pt x="319" y="-20" on="0"/>
      </contour>
    </TTGlyph>
    <TTGlyph name="afii10038" xMin="150" yMin="-20" xMax="1460" yMax="1483">
      <component glyphName="Phi" x="0" y="0" flags="0x204"/>
    </TTGlyph>
    <TTGlyph name="afii10039" xMin="-104" yMin="0" xMax="1233" yMax="1462">
      <component glyphName="X" x="0" y="0" flags="0x204"/>
    </TTGlyph>
    <TTGlyph name="afii10040" xMin="84" yMin="-379" xMax="1368" yMax="1462">
      <contour>
        <pt x="1257" y="156" on="1"/>
        <pt x="1143" y="-379" on="1"/>
        <pt x="981" y="-379" on="1"/>
        <pt x="1061" y="0" on="1"/>
        <pt x="84" y="0" on="1"/>
        <pt x="393" y="1462" on="1"/>
        <pt x="565" y="1462" on="1"/>
        <pt x="289" y="154" on="1"/>
        <pt x="920" y="154" on="1"/>
        <pt x="1196" y="1462" on="1"/>
        <pt x="1368" y="1462" on="1"/>
        <pt x="1092" y="156" on="1"/>
      </contour>
    </TTGlyph>
    <TTGlyph name="afii10041" xMin="250" yMin="0" xMax="1319" yMax="1462">
      <contour>
        <pt x="838" y="0" on="1"/>
        <pt x="965" y="600" on="1"/>
        <pt x="766" y="512" on="0"/>
        <pt x="565" y="512" on="1"/>
        <pt x="409" y="512" on="0"/>
        <pt x="250" y="655" on="0"/>
        <pt x="250" y="788" on="1"/>
        <pt x="250" y="862" on="0"/>
        <pt x="272" y="956" on="1"/>
        <pt x="381" y="1462" on="1"/>
        <pt x="551" y="1462" on="1"/>
        <pt x="444" y="958" on="1"/>
        <pt x="424" y="858" on="0"/>
        <pt x="424" y="821" on="1"/>
        <pt x="424" y="743" on="0"/>
        <pt x="506" y="664" on="0"/>
        <pt x="606" y="664" on="1"/>
        <pt x="681" y="664" on="0"/>
        <pt x="862" y="697" on="0"/>
        <pt x="997" y="743" on="1"/>
        <pt x="1147" y="1462" on="1"/>
        <pt x="1319" y="1462" on="1"/>
        <pt x="1010" y="0" on="1"/>
      </contour>
    </TTGlyph>
    <TTGlyph name="afii10042" xMin="84" yMin="0" xMax="1966" yMax="1462">
      <contour>
        <pt x="84" y="0" on="1"/>
        <pt x="393" y="1462" on="1"/>
        <pt x="565" y="1462" on="1"/>
        <pt x="287" y="154" on="1"/>
        <pt x="819" y="154" on="1"/>
        <pt x="1096" y="1462" on="1"/>
        <pt x="1266" y="1462" on="1"/>
        <pt x="989" y="154" on="1"/>
        <pt x="1520" y="154" on="1"/>
        <pt x="1796" y="1462" on="1"/>
        <pt x="1966" y="1462" on="1"/>
        <pt x="1657" y="0" on="1"/>
      </contour>
    </TTGlyph>
    <TTGlyph name="afii10043" xMin="84" yMin="-379" xMax="1966" yMax="1462">
      <contour>
        <pt x="1855" y="156" on="1"/>
        <pt x="1741" y="-379" on="1"/>
        <pt x="1579" y="-379" on="1"/>
        <pt x="1659" y="0" on="1"/>
        <pt x="84" y="0" on="1"/>
        <pt x="393" y="1462" on="1"/>
        <pt x="565" y="1462" on="1"/>
        <pt x="287" y="154" on="1"/>
        <pt x="819" y="154" on="1"/>
        <pt x="1096" y="1462" on="1"/>
        <pt x="1266" y="1462" on="1"/>
        <pt x="989" y="154" on="1"/>
        <pt x="1520" y="154" on="1"/>
        <pt x="1796" y="1462" on="1"/>
        <pt x="1966" y="1462" on="1"/>
        <pt x="1690" y="156" on="1"/>
      </contour>
    </TTGlyph>
    <TTGlyph name="afii10044" xMin="186" yMin="0" xMax="1159" yMax="1462">
      <contour>
        <pt x="719" y="838" on="1"/>
        <pt x="1159" y="838" on="0"/>
        <pt x="1159" y="481" on="1"/>
        <pt x="1159" y="251" on="0"/>
        <pt x="863" y="0" on="0"/>
        <pt x="586" y="0" on="1"/>
        <pt x="231" y="0" on="1"/>
        <pt x="508" y="1311" on="1"/>
        <pt x="186" y="1311" on="1"/>
        <pt x="219" y="1462" on="1"/>
        <pt x="713" y="1462" on="1"/>
        <pt x="580" y="838" on="1"/>
      </contour>
      <contour>
        <pt x="612" y="145" on="1"/>
        <pt x="983" y="145" on="0"/>
        <pt x="983" y="465" on="1"/>
        <pt x="983" y="579" on="0"/>
        <pt x="858" y="690" on="0"/>
        <pt x="721" y="690" on="1"/>
        <pt x="549" y="690" on="1"/>
        <pt x="432" y="145" on="1"/>
      </contour>
    </TTGlyph>
    <TTGlyph name="afii10045" xMin="86" yMin="0" xMax="1620" yMax="1462">
      <contour>
        <pt x="1311" y="0" on="1"/>
        <pt x="1141" y="0" on="1"/>
        <pt x="1450" y="1462" on="1"/>
        <pt x="1620" y="1462" on="1"/>
      </contour>
      <contour>
        <pt x="567" y="1462" on="1"/>
        <pt x="434" y="838" on="1"/>
        <pt x="573" y="838" on="1"/>
        <pt x="1014" y="838" on="0"/>
        <pt x="1014" y="481" on="1"/>
        <pt x="1014" y="250" on="0"/>
        <pt x="716" y="0" on="0"/>
        <pt x="440" y="0" on="1"/>
        <pt x="86" y="0" on="1"/>
        <pt x="395" y="1462" on="1"/>
      </contour>
      <contour>
        <pt x="467" y="145" on="1"/>
        <pt x="838" y="145" on="0"/>
        <pt x="838" y="465" on="1"/>
        <pt x="838" y="580" on="0"/>
        <pt x="711" y="690" on="0"/>
        <pt x="575" y="690" on="1"/>
        <pt x="403" y="690" on="1"/>
        <pt x="287" y="145" on="1"/>
      </contour>
    </TTGlyph>
    <TTGlyph name="afii10046" xMin="86" yMin="0" xMax="1014" yMax="1462">
      <contour>
        <pt x="567" y="1462" on="1"/>
        <pt x="434" y="838" on="1"/>
        <pt x="573" y="838" on="1"/>
        <pt x="1014" y="838" on="0"/>
        <pt x="1014" y="481" on="1"/>
        <pt x="1014" y="250" on="0"/>
        <pt x="716" y="0" on="0"/>
        <pt x="440" y="0" on="1"/>
        <pt x="86" y="0" on="1"/>
        <pt x="395" y="1462" on="1"/>
      </contour>
      <contour>
        <pt x="467" y="145" on="1"/>
        <pt x="838" y="145" on="0"/>
        <pt x="838" y="465" on="1"/>
        <pt x="838" y="580" on="0"/>
        <pt x="711" y="690" on="0"/>
        <pt x="575" y="690" on="1"/>
        <pt x="403" y="690" on="1"/>
        <pt x="287" y="145" on="1"/>
      </contour>
    </TTGlyph>
    <TTGlyph name="afii10047" xMin="18" yMin="-20" xMax="1135" yMax="1483">
      <contour>
        <pt x="375" y="131" on="1"/>
        <pt x="602" y="131" on="0"/>
        <pt x="887" y="416" on="0"/>
        <pt x="932" y="692" on="1"/>
        <pt x="309" y="692" on="1"/>
        <pt x="338" y="844" on="1"/>
        <pt x="950" y="844" on="1"/>
        <pt x="952" y="936" on="1"/>
        <pt x="952" y="1122" on="0"/>
        <pt x="767" y="1331" on="0"/>
        <pt x="602" y="1331" on="1"/>
        <pt x="539" y="1331" on="0"/>
        <pt x="409" y="1309" on="0"/>
        <pt x="281" y="1268" on="1"/>
        <pt x="238" y="1411" on="1"/>
        <pt x="437" y="1483" on="0"/>
        <pt x="618" y="1483" on="1"/>
        <pt x="864" y="1483" on="0"/>
        <pt x="1135" y="1195" on="0"/>
        <pt x="1135" y="936" on="1"/>
        <pt x="1135" y="637" on="0"/>
        <pt x="948" y="201" on="0"/>
        <pt x="604" y="-20" on="0"/>
        <pt x="360" y="-20" on="1"/>
        <pt x="260" y="-20" on="0"/>
        <pt x="97" y="17" on="0"/>
        <pt x="18" y="59" on="1"/>
        <pt x="18" y="225" on="1"/>
        <pt x="124" y="177" on="0"/>
        <pt x="216" y="148" on="0"/>
        <pt x="315" y="131" on="0"/>
      </contour>
    </TTGlyph>
    <TTGlyph name="afii10048" xMin="86" yMin="-20" xMax="1942" yMax="1485">
      <contour>
        <pt x="1942" y="907" on="1"/>
        <pt x="1942" y="638" on="0"/>
        <pt x="1772" y="214" on="0"/>
        <pt x="1455" y="-20" on="0"/>
        <pt x="1245" y="-20" on="1"/>
        <pt x="993" y="-20" on="0"/>
        <pt x="721" y="279" on="0"/>
        <pt x="721" y="549" on="1"/>
        <pt x="721" y="617" on="0"/>
        <pt x="727" y="688" on="1"/>
        <pt x="401" y="688" on="1"/>
        <pt x="256" y="0" on="1"/>
        <pt x="86" y="0" on="1"/>
        <pt x="395" y="1462" on="1"/>
        <pt x="565" y="1462" on="1"/>
        <pt x="434" y="840" on="1"/>
        <pt x="752" y="840" on="1"/>
        <pt x="818" y="1136" on="0"/>
        <pt x="1190" y="1485" on="0"/>
        <pt x="1446" y="1485" on="1"/>
        <pt x="1677" y="1485" on="0"/>
        <pt x="1942" y="1180" on="0"/>
      </contour>
      <contour>
        <pt x="1421" y="1333" on="1"/>
        <pt x="1271" y="1333" on="0"/>
        <pt x="1033" y="1131" on="0"/>
        <pt x="903" y="773" on="0"/>
        <pt x="903" y="553" on="1"/>
        <pt x="903" y="352" on="0"/>
        <pt x="1084" y="131" on="0"/>
        <pt x="1251" y="131" on="1"/>
        <pt x="1398" y="131" on="0"/>
        <pt x="1626" y="321" on="0"/>
        <pt x="1759" y="688" on="0"/>
        <pt x="1759" y="911" on="1"/>
        <pt x="1759" y="1112" on="0"/>
        <pt x="1582" y="1333" on="0"/>
      </contour>
    </TTGlyph>
    <TTGlyph name="afii10049" xMin="-76" yMin="0" xMax="1176" yMax="1462">
      <contour>
        <pt x="594" y="610" on="1"/>
        <pt x="131" y="0" on="1"/>
        <pt x="-76" y="0" on="1"/>
        <pt x="438" y="670" on="1"/>
        <pt x="246" y="771" on="0"/>
        <pt x="246" y="995" on="1"/>
        <pt x="246" y="1219" on="0"/>
        <pt x="533" y="1462" on="0"/>
        <pt x="795" y="1462" on="1"/>
        <pt x="1176" y="1462" on="1"/>
        <pt x="868" y="0" on="1"/>
        <pt x="696" y="0" on="1"/>
        <pt x="825" y="610" on="1"/>
      </contour>
      <contour>
        <pt x="977" y="1315" on="1"/>
        <pt x="795" y="1315" on="1"/>
        <pt x="607" y="1315" on="0"/>
        <pt x="422" y="1160" on="0"/>
        <pt x="422" y="1012" on="1"/>
        <pt x="422" y="888" on="0"/>
        <pt x="571" y="756" on="0"/>
        <pt x="709" y="756" on="1"/>
        <pt x="858" y="756" on="1"/>
      </contour>
    </TTGlyph>
    <TTGlyph name="afii10050" xMin="86" yMin="0" xMax="1188" yMax="1761">
      <contour>
        <pt x="961" y="1462" on="1"/>
        <pt x="1024" y="1761" on="1"/>
        <pt x="1188" y="1761" on="1"/>
        <pt x="1090" y="1307" on="1"/>
        <pt x="535" y="1307" on="1"/>
        <pt x="258" y="0" on="1"/>
        <pt x="86" y="0" on="1"/>
        <pt x="397" y="1462" on="1"/>
      </contour>
    </TTGlyph>
    <TTGlyph name="afii10051" xMin="186" yMin="-20" xMax="1219" yMax="1462">
      <contour>
        <pt x="805" y="-20" on="1"/>
        <pt x="735" y="-20" on="0"/>
        <pt x="668" y="0" on="1"/>
        <pt x="668" y="152" on="1"/>
        <pt x="728" y="131" on="0"/>
        <pt x="795" y="131" on="1"/>
        <pt x="887" y="131" on="0"/>
        <pt x="994" y="230" on="0"/>
        <pt x="1020" y="356" on="1"/>
        <pt x="1049" y="509" on="0"/>
        <pt x="1049" y="569" on="1"/>
        <pt x="1049" y="657" on="0"/>
        <pt x="944" y="741" on="0"/>
        <pt x="836" y="741" on="1"/>
        <pt x="557" y="741" on="1"/>
        <pt x="401" y="0" on="1"/>
        <pt x="229" y="0" on="1"/>
        <pt x="508" y="1311" on="1"/>
        <pt x="186" y="1311" on="1"/>
        <pt x="219" y="1462" on="1"/>
        <pt x="1120" y="1462" on="1"/>
        <pt x="1090" y="1311" on="1"/>
        <pt x="680" y="1311" on="1"/>
        <pt x="590" y="893" on="1"/>
        <pt x="848" y="893" on="1"/>
        <pt x="1219" y="893" on="0"/>
        <pt x="1219" y="586" on="1"/>
        <pt x="1219" y="501" on="0"/>
        <pt x="1200" y="406" on="1"/>
        <pt x="1186" y="334" on="1"/>
        <pt x="1149" y="151" on="0"/>
        <pt x="965" y="-20" on="0"/>
      </contour>
    </TTGlyph>
    <TTGlyph name="afii10052" xMin="86" yMin="0" xMax="1130" yMax="1907">
      <component glyphName="Gamma" x="0" y="0" flags="0x204"/>
      <component glyphName="acute" x="125" y="338" flags="0x4"/>
    </TTGlyph>
    <TTGlyph name="afii10053" xMin="150" yMin="-20" xMax="1290" yMax="1483">
      <contour>
        <pt x="942" y="1331" on="1"/>
        <pt x="738" y="1331" on="0"/>
        <pt x="439" y="1070" on="0"/>
        <pt x="375" y="844" on="1"/>
        <pt x="997" y="844" on="1"/>
        <pt x="967" y="692" on="1"/>
        <pt x="342" y="692" on="1"/>
        <pt x="332" y="630" on="0"/>
        <pt x="332" y="541" on="1"/>
        <pt x="332" y="346" on="0"/>
        <pt x="524" y="131" on="0"/>
        <pt x="698" y="131" on="1"/>
        <pt x="837" y="131" on="0"/>
        <pt x="1020" y="188" on="1"/>
        <pt x="1020" y="39" on="1"/>
        <pt x="934" y="8" on="0"/>
        <pt x="778" y="-20" on="0"/>
        <pt x="668" y="-20" on="1"/>
        <pt x="422" y="-20" on="0"/>
        <pt x="150" y="273" on="0"/>
        <pt x="150" y="537" on="1"/>
        <pt x="150" y="798" on="0"/>
        <pt x="361" y="1247" on="0"/>
        <pt x="717" y="1483" on="0"/>
        <pt x="942" y="1483" on="1"/>
        <pt x="1139" y="1483" on="0"/>
        <pt x="1290" y="1403" on="1"/>
        <pt x="1221" y="1262" on="1"/>
        <pt x="1083" y="1331" on="0"/>
      </contour>
    </TTGlyph>
    <TTGlyph name="afii10054" xMin="39" yMin="-20" xMax="1059" yMax="1483">
      <component glyphName="S" x="0" y="0" flags="0x204"/>
    </TTGlyph>
    <TTGlyph name="afii10055" xMin="86" yMin="0" xMax="565" yMax="1462">
      <component glyphName="I" x="0" y="0" flags="0x204"/>
    </TTGlyph>
    <TTGlyph name="afii10055.alt" xMin="-39" yMin="0" xMax="768" yMax="1462">
      <component glyphName="I.alt" x="0" y="0" flags="0x204"/>
    </TTGlyph>
    <TTGlyph name="afii10056" xMin="86" yMin="0" xMax="799" yMax="1829">
      <component glyphName="I" x="0" y="0" flags="0x204"/>
      <component glyphName="dieresis" x="-202" y="338" flags="0x4"/>
    </TTGlyph>
    <TTGlyph name="afii10056.alt" xMin="-39" yMin="0" xMax="830" yMax="1829">
      <component glyphName="I.alt" x="0" y="0" flags="0x204"/>
      <component glyphName="dieresis" x="-171" y="338" flags="0x4"/>
    </TTGlyph>
    <TTGlyph name="afii10057" xMin="-319" yMin="-385" xMax="565" yMax="1462">
      <component glyphName="J" x="0" y="0" flags="0x204"/>
    </TTGlyph>
    <TTGlyph name="afii10058" xMin="-66" yMin="-23" xMax="1700" yMax="1462">
      <contour>
        <pt x="741" y="1309" on="1"/>
        <pt x="666" y="1017" on="0"/>
        <pt x="490" y="404" on="0"/>
        <pt x="361" y="106" on="0"/>
        <pt x="187" y="-23" on="0"/>
        <pt x="59" y="-23" on="1"/>
        <pt x="-17" y="-23" on="0"/>
        <pt x="-66" y="0" on="1"/>
        <pt x="-66" y="150" on="1"/>
        <pt x="-14" y="129" on="0"/>
        <pt x="37" y="129" on="1"/>
        <pt x="120" y="129" on="0"/>
        <pt x="225" y="217" on="0"/>
        <pt x="319" y="425" on="0"/>
        <pt x="464" y="897" on="0"/>
        <pt x="616" y="1462" on="1"/>
        <pt x="1282" y="1462" on="1"/>
        <pt x="1151" y="838" on="1"/>
        <pt x="1260" y="838" on="1"/>
        <pt x="1700" y="838" on="0"/>
        <pt x="1700" y="481" on="1"/>
        <pt x="1700" y="250" on="0"/>
        <pt x="1402" y="0" on="0"/>
        <pt x="1126" y="0" on="1"/>
        <pt x="803" y="0" on="1"/>
        <pt x="1079" y="1309" on="1"/>
      </contour>
      <contour>
        <pt x="1153" y="145" on="1"/>
        <pt x="1524" y="145" on="0"/>
        <pt x="1524" y="465" on="1"/>
        <pt x="1524" y="580" on="0"/>
        <pt x="1397" y="690" on="0"/>
        <pt x="1262" y="690" on="1"/>
        <pt x="1120" y="690" on="1"/>
        <pt x="1004" y="145" on="1"/>
      </contour>
    </TTGlyph>
    <TTGlyph name="afii10059" xMin="86" yMin="0" xMax="1726" yMax="1462">
      <contour>
        <pt x="1139" y="1462" on="1"/>
        <pt x="1309" y="1462" on="1"/>
        <pt x="1176" y="840" on="1"/>
        <pt x="1286" y="840" on="1"/>
        <pt x="1726" y="840" on="0"/>
        <pt x="1726" y="481" on="1"/>
        <pt x="1726" y="251" on="0"/>
        <pt x="1430" y="0" on="0"/>
        <pt x="1153" y="0" on="1"/>
        <pt x="829" y="0" on="1"/>
        <pt x="973" y="688" on="1"/>
        <pt x="401" y="688" on="1"/>
        <pt x="256" y="0" on="1"/>
        <pt x="86" y="0" on="1"/>
        <pt x="395" y="1462" on="1"/>
        <pt x="565" y="1462" on="1"/>
        <pt x="434" y="840" on="1"/>
        <pt x="1006" y="840" on="1"/>
      </contour>
      <contour>
        <pt x="1180" y="145" on="1"/>
        <pt x="1550" y="145" on="0"/>
        <pt x="1550" y="465" on="1"/>
        <pt x="1550" y="577" on="0"/>
        <pt x="1427" y="688" on="0"/>
        <pt x="1288" y="688" on="1"/>
        <pt x="1147" y="688" on="1"/>
        <pt x="1030" y="145" on="1"/>
      </contour>
    </TTGlyph>
    <TTGlyph name="afii10060" xMin="186" yMin="0" xMax="1219" yMax="1462">
      <contour>
        <pt x="1049" y="571" on="1"/>
        <pt x="1049" y="661" on="0"/>
        <pt x="944" y="741" on="0"/>
        <pt x="836" y="741" on="1"/>
        <pt x="557" y="741" on="1"/>
        <pt x="401" y="0" on="1"/>
        <pt x="229" y="0" on="1"/>
        <pt x="508" y="1311" on="1"/>
        <pt x="186" y="1311" on="1"/>
        <pt x="219" y="1462" on="1"/>
        <pt x="1120" y="1462" on="1"/>
        <pt x="1090" y="1311" on="1"/>
        <pt x="680" y="1311" on="1"/>
        <pt x="590" y="893" on="1"/>
        <pt x="862" y="893" on="1"/>
        <pt x="1046" y="893" on="0"/>
        <pt x="1219" y="737" on="0"/>
        <pt x="1219" y="582" on="1"/>
        <pt x="1219" y="543" on="0"/>
        <pt x="1200" y="430" on="0"/>
        <pt x="1110" y="0" on="1"/>
        <pt x="938" y="0" on="1"/>
        <pt x="1028" y="416" on="1"/>
        <pt x="1049" y="509" on="0"/>
      </contour>
    </TTGlyph>
    <TTGlyph name="afii10061" xMin="86" yMin="0" xMax="1329" yMax="1907">
      <component glyphName="afii10028" x="0" y="0" flags="0x204"/>
      <component glyphName="acute" x="195" y="338" flags="0x4"/>
    </TTGlyph>
    <TTGlyph name="afii10062" xMin="-4" yMin="-20" xMax="1360" yMax="1890">
      <component glyphName="afii10037" x="0" y="0" flags="0x204"/>
      <component glyphName="cyrillicbreve" x="113" y="338" flags="0x4"/>
    </TTGlyph>
    <TTGlyph name="afii10065" xMin="98" yMin="-20" xMax="1120" yMax="1116">
      <component glyphName="a" x="0" y="0" flags="0x204"/>
    </TTGlyph>
    <TTGlyph name="afii10066" xMin="100" yMin="-20" xMax="1178" yMax="1563">
      <contour>
        <pt x="100" y="440" on="1"/>
        <pt x="100" y="663" on="0"/>
        <pt x="244" y="1135" on="0"/>
        <pt x="477" y="1417" on="0"/>
        <pt x="625" y="1460" on="1"/>
        <pt x="699" y="1483" on="0"/>
        <pt x="1067" y="1549" on="0"/>
        <pt x="1157" y="1563" on="1"/>
        <pt x="1178" y="1425" on="1"/>
        <pt x="1072" y="1408" on="1"/>
        <pt x="806" y="1364" on="0"/>
        <pt x="688" y="1327" on="1"/>
        <pt x="430" y="1242" on="0"/>
        <pt x="319" y="834" on="1"/>
        <pt x="324" y="831" on="1"/>
        <pt x="398" y="919" on="0"/>
        <pt x="591" y="1018" on="0"/>
        <pt x="694" y="1018" on="1"/>
        <pt x="849" y="1018" on="0"/>
        <pt x="1004" y="823" on="0"/>
        <pt x="1004" y="649" on="1"/>
        <pt x="1004" y="448" on="0"/>
        <pt x="875" y="138" on="0"/>
        <pt x="644" y="-20" on="0"/>
        <pt x="489" y="-20" on="1"/>
        <pt x="301" y="-20" on="0"/>
        <pt x="100" y="213" on="0"/>
      </contour>
      <contour>
        <pt x="504" y="119" on="1"/>
        <pt x="600" y="119" on="0"/>
        <pt x="745" y="246" on="0"/>
        <pt x="831" y="492" on="0"/>
        <pt x="831" y="629" on="1"/>
        <pt x="831" y="759" on="0"/>
        <pt x="743" y="877" on="0"/>
        <pt x="655" y="877" on="1"/>
        <pt x="563" y="877" on="0"/>
        <pt x="366" y="754" on="0"/>
        <pt x="293" y="651" on="1"/>
        <pt x="270" y="536" on="0"/>
        <pt x="270" y="434" on="1"/>
        <pt x="270" y="119" on="0"/>
      </contour>
    </TTGlyph>
    <TTGlyph name="afii10067" xMin="98" yMin="-20" xMax="1042" yMax="1114">
      <contour>
        <pt x="676" y="1114" on="1"/>
        <pt x="851" y="1114" on="0"/>
        <pt x="1042" y="976" on="0"/>
        <pt x="1042" y="838" on="1"/>
        <pt x="1042" y="617" on="0"/>
        <pt x="762" y="553" on="1"/>
        <pt x="762" y="549" on="1"/>
        <pt x="872" y="520" on="0"/>
        <pt x="969" y="406" on="0"/>
        <pt x="969" y="315" on="1"/>
        <pt x="969" y="219" on="0"/>
        <pt x="865" y="67" on="0"/>
        <pt x="664" y="-20" on="0"/>
        <pt x="526" y="-20" on="1"/>
        <pt x="317" y="-20" on="0"/>
        <pt x="98" y="210" on="0"/>
        <pt x="98" y="432" on="1"/>
        <pt x="98" y="630" on="0"/>
        <pt x="241" y="944" on="0"/>
        <pt x="505" y="1114" on="0"/>
      </contour>
      <contour>
        <pt x="270" y="475" on="1"/>
        <pt x="270" y="428" on="1"/>
        <pt x="270" y="121" on="0"/>
        <pt x="541" y="121" on="1"/>
        <pt x="665" y="121" on="0"/>
        <pt x="809" y="226" on="0"/>
        <pt x="809" y="317" on="1"/>
        <pt x="809" y="398" on="0"/>
        <pt x="679" y="475" on="0"/>
        <pt x="539" y="475" on="1"/>
      </contour>
      <contour>
        <pt x="680" y="971" on="1"/>
        <pt x="528" y="971" on="0"/>
        <pt x="327" y="788" on="0"/>
        <pt x="289" y="614" on="1"/>
        <pt x="514" y="614" on="1"/>
        <pt x="690" y="614" on="0"/>
        <pt x="874" y="721" on="0"/>
        <pt x="874" y="819" on="1"/>
        <pt x="874" y="891" on="0"/>
        <pt x="772" y="971" on="0"/>
      </contour>
    </TTGlyph>
    <TTGlyph name="afii10068" xMin="55" yMin="-20" xMax="877" yMax="1114">
      <contour>
        <pt x="203" y="1036" on="1"/>
        <pt x="319" y="1080" on="0"/>
        <pt x="491" y="1114" on="0"/>
        <pt x="567" y="1114" on="1"/>
        <pt x="718" y="1114" on="0"/>
        <pt x="877" y="986" on="0"/>
        <pt x="877" y="864" on="1"/>
        <pt x="877" y="758" on="0"/>
        <pt x="725" y="595" on="0"/>
        <pt x="539" y="524" on="1"/>
        <pt x="376" y="463" on="0"/>
        <pt x="276" y="400" on="0"/>
        <pt x="225" y="323" on="0"/>
        <pt x="225" y="268" on="1"/>
        <pt x="225" y="200" on="0"/>
        <pt x="323" y="121" on="0"/>
        <pt x="428" y="121" on="1"/>
        <pt x="563" y="121" on="0"/>
        <pt x="741" y="205" on="1"/>
        <pt x="741" y="55" on="1"/>
        <pt x="582" y="-20" on="0"/>
        <pt x="406" y="-20" on="1"/>
        <pt x="241" y="-20" on="0"/>
        <pt x="55" y="126" on="0"/>
        <pt x="55" y="254" on="1"/>
        <pt x="55" y="338" on="0"/>
        <pt x="131" y="465" on="0"/>
        <pt x="270" y="564" on="0"/>
        <pt x="418" y="621" on="1"/>
        <pt x="551" y="672" on="0"/>
        <pt x="654" y="734" on="0"/>
        <pt x="707" y="807" on="0"/>
        <pt x="707" y="854" on="1"/>
        <pt x="707" y="973" on="0"/>
        <pt x="553" y="973" on="1"/>
        <pt x="425" y="973" on="0"/>
        <pt x="248" y="901" on="1"/>
      </contour>
    </TTGlyph>
    <TTGlyph name="afii10069" xMin="98" yMin="-20" xMax="1077" yMax="1577">
      <contour>
        <pt x="1077" y="948" on="1"/>
        <pt x="1077" y="693" on="0"/>
        <pt x="911" y="227" on="0"/>
        <pt x="633" y="-20" on="0"/>
        <pt x="455" y="-20" on="1"/>
        <pt x="287" y="-20" on="0"/>
        <pt x="98" y="189" on="0"/>
        <pt x="98" y="375" on="1"/>
        <pt x="98" y="553" on="0"/>
        <pt x="235" y="875" on="0"/>
        <pt x="469" y="1051" on="0"/>
        <pt x="612" y="1051" on="1"/>
        <pt x="713" y="1051" on="0"/>
        <pt x="854" y="968" on="0"/>
        <pt x="899" y="877" on="1"/>
        <pt x="905" y="877" on="1"/>
        <pt x="907" y="909" on="1"/>
        <pt x="907" y="934" on="1"/>
        <pt x="907" y="1190" on="0"/>
        <pt x="770" y="1438" on="0"/>
        <pt x="631" y="1438" on="1"/>
        <pt x="519" y="1438" on="0"/>
        <pt x="416" y="1391" on="1"/>
        <pt x="373" y="1513" on="1"/>
        <pt x="429" y="1541" on="0"/>
        <pt x="588" y="1577" on="0"/>
        <pt x="651" y="1577" on="1"/>
        <pt x="865" y="1577" on="0"/>
        <pt x="1077" y="1267" on="0"/>
      </contour>
      <contour>
        <pt x="473" y="121" on="1"/>
        <pt x="610" y="121" on="0"/>
        <pt x="825" y="424" on="0"/>
        <pt x="874" y="682" on="1"/>
        <pt x="843" y="794" on="0"/>
        <pt x="712" y="920" on="0"/>
        <pt x="623" y="920" on="1"/>
        <pt x="532" y="920" on="0"/>
        <pt x="367" y="773" on="0"/>
        <pt x="270" y="521" on="0"/>
        <pt x="270" y="377" on="1"/>
        <pt x="270" y="255" on="0"/>
        <pt x="375" y="121" on="0"/>
      </contour>
    </TTGlyph>
    <TTGlyph name="afii10070" xMin="98" yMin="-20" xMax="948" yMax="1116">
      <component glyphName="e" x="0" y="0" flags="0x204"/>
    </TTGlyph>
    <TTGlyph name="afii10071" xMin="98" yMin="-20" xMax="957" yMax="1491">
      <component glyphName="e" x="0" y="0" flags="0x204"/>
      <component glyphName="dieresis" x="-44" y="0" flags="0x4"/>
    </TTGlyph>
    <TTGlyph name="afii10072" xMin="-35" yMin="-20" xMax="1767" yMax="1116">
      <contour>
        <pt x="774" y="489" on="1"/>
        <pt x="612" y="489" on="1"/>
        <pt x="579" y="337" on="0"/>
        <pt x="433" y="108" on="0"/>
        <pt x="221" y="-20" on="0"/>
        <pt x="88" y="-20" on="1"/>
        <pt x="21" y="-20" on="0"/>
        <pt x="-35" y="-4" on="1"/>
        <pt x="-10" y="135" on="1"/>
        <pt x="43" y="119" on="0"/>
        <pt x="90" y="119" on="1"/>
        <pt x="195" y="119" on="0"/>
        <pt x="366" y="273" on="0"/>
        <pt x="465" y="545" on="0"/>
        <pt x="465" y="690" on="1"/>
        <pt x="465" y="829" on="0"/>
        <pt x="361" y="975" on="0"/>
        <pt x="262" y="975" on="1"/>
        <pt x="213" y="975" on="0"/>
        <pt x="150" y="961" on="1"/>
        <pt x="150" y="1098" on="1"/>
        <pt x="237" y="1116" on="0"/>
        <pt x="287" y="1116" on="1"/>
        <pt x="457" y="1116" on="0"/>
        <pt x="637" y="901" on="0"/>
        <pt x="637" y="694" on="1"/>
        <pt x="633" y="618" on="1"/>
        <pt x="801" y="618" on="1"/>
        <pt x="901" y="1096" on="1"/>
        <pt x="1055" y="1096" on="1"/>
        <pt x="950" y="618" on="1"/>
        <pt x="1114" y="618" on="1"/>
        <pt x="1144" y="765" on="0"/>
        <pt x="1297" y="1001" on="0"/>
        <pt x="1504" y="1116" on="0"/>
        <pt x="1626" y="1116" on="1"/>
        <pt x="1705" y="1116" on="0"/>
        <pt x="1767" y="1098" on="1"/>
        <pt x="1737" y="961" on="1"/>
        <pt x="1683" y="975" on="0"/>
        <pt x="1628" y="975" on="1"/>
        <pt x="1524" y="975" on="0"/>
        <pt x="1360" y="825" on="0"/>
        <pt x="1262" y="550" on="0"/>
        <pt x="1262" y="403" on="1"/>
        <pt x="1262" y="265" on="0"/>
        <pt x="1360" y="119" on="0"/>
        <pt x="1460" y="119" on="1"/>
        <pt x="1517" y="119" on="0"/>
        <pt x="1575" y="135" on="1"/>
        <pt x="1575" y="-4" on="1"/>
        <pt x="1492" y="-20" on="0"/>
        <pt x="1440" y="-20" on="1"/>
        <pt x="1268" y="-20" on="0"/>
        <pt x="1090" y="197" on="0"/>
        <pt x="1090" y="401" on="1"/>
        <pt x="1090" y="457" on="0"/>
        <pt x="1094" y="489" on="1"/>
        <pt x="924" y="489" on="1"/>
        <pt x="821" y="0" on="1"/>
        <pt x="670" y="0" on="1"/>
      </contour>
    </TTGlyph>
    <TTGlyph name="afii10073" xMin="-4" yMin="-20" xMax="838" yMax="1116">
      <contour>
        <pt x="379" y="641" on="1"/>
        <pt x="670" y="641" on="0"/>
        <pt x="670" y="836" on="1"/>
        <pt x="670" y="899" on="0"/>
        <pt x="584" y="973" on="0"/>
        <pt x="498" y="973" on="1"/>
        <pt x="432" y="973" on="0"/>
        <pt x="302" y="941" on="0"/>
        <pt x="219" y="903" on="1"/>
        <pt x="166" y="1032" on="1"/>
        <pt x="257" y="1075" on="0"/>
        <pt x="421" y="1116" on="0"/>
        <pt x="520" y="1116" on="1"/>
        <pt x="672" y="1116" on="0"/>
        <pt x="838" y="981" on="0"/>
        <pt x="838" y="860" on="1"/>
        <pt x="838" y="751" on="0"/>
        <pt x="707" y="603" on="0"/>
        <pt x="580" y="575" on="1"/>
        <pt x="580" y="571" on="1"/>
        <pt x="766" y="522" on="0"/>
        <pt x="766" y="336" on="1"/>
        <pt x="766" y="172" on="0"/>
        <pt x="519" y="-20" on="0"/>
        <pt x="305" y="-20" on="1"/>
        <pt x="125" y="-20" on="0"/>
        <pt x="-4" y="49" on="1"/>
        <pt x="-4" y="207" on="1"/>
        <pt x="67" y="164" on="0"/>
        <pt x="241" y="119" on="0"/>
        <pt x="322" y="119" on="1"/>
        <pt x="449" y="119" on="0"/>
        <pt x="606" y="232" on="0"/>
        <pt x="606" y="330" on="1"/>
        <pt x="606" y="419" on="0"/>
        <pt x="504" y="496" on="0"/>
        <pt x="397" y="496" on="1"/>
        <pt x="248" y="496" on="1"/>
        <pt x="281" y="641" on="1"/>
      </contour>
    </TTGlyph>
    <TTGlyph name="afii10074" xMin="113" yMin="-20" xMax="1118" yMax="1096">
      <component glyphName="u" x="0" y="0" flags="0x204"/>
    </TTGlyph>
    <TTGlyph name="afii10075" xMin="113" yMin="-20" xMax="1132" yMax="1552">
      <component glyphName="u" x="0" y="0" flags="0x204"/>
      <component glyphName="cyrillicbreve" x="55" y="0" flags="0x4"/>
    </TTGlyph>
    <TTGlyph name="afii10076" xMin="59" yMin="0" xMax="1075" yMax="1096">
      <contour>
        <pt x="862" y="1096" on="1"/>
        <pt x="1075" y="1096" on="1"/>
        <pt x="526" y="555" on="1"/>
        <pt x="901" y="0" on="1"/>
        <pt x="698" y="0" on="1"/>
        <pt x="342" y="547" on="1"/>
        <pt x="227" y="0" on="1"/>
        <pt x="59" y="0" on="1"/>
        <pt x="291" y="1096" on="1"/>
        <pt x="457" y="1096" on="1"/>
        <pt x="344" y="567" on="1"/>
      </contour>
    </TTGlyph>
    <TTGlyph name="afii10077" xMin="-94" yMin="-14" xMax="1032" yMax="1104">
      <contour>
        <pt x="803" y="0" on="1"/>
        <pt x="633" y="0" on="1"/>
        <pt x="840" y="954" on="1"/>
        <pt x="801" y="963" on="0"/>
        <pt x="762" y="963" on="1"/>
        <pt x="685" y="963" on="0"/>
        <pt x="589" y="902" on="0"/>
        <pt x="507" y="751" on="0"/>
        <pt x="424" y="514" on="1"/>
        <pt x="340" y="274" on="0"/>
        <pt x="224" y="75" on="0"/>
        <pt x="84" y="-14" on="0"/>
        <pt x="-16" y="-14" on="1"/>
        <pt x="-63" y="-14" on="0"/>
        <pt x="-94" y="0" on="1"/>
        <pt x="-94" y="145" on="1"/>
        <pt x="-66" y="135" on="0"/>
        <pt x="-27" y="135" on="1"/>
        <pt x="37" y="135" on="0"/>
        <pt x="128" y="211" on="0"/>
        <pt x="215" y="382" on="0"/>
        <pt x="279" y="569" on="1"/>
        <pt x="366" y="827" on="0"/>
        <pt x="488" y="1017" on="0"/>
        <pt x="654" y="1104" on="0"/>
        <pt x="786" y="1104" on="1"/>
        <pt x="912" y="1104" on="0"/>
        <pt x="1032" y="1073" on="1"/>
      </contour>
    </TTGlyph>
    <TTGlyph name="afii10078" xMin="61" yMin="0" xMax="1350" yMax="1096">
      <contour>
        <pt x="969" y="0" on="1"/>
        <pt x="1157" y="881" on="1"/>
        <pt x="1141" y="846" on="0"/>
        <pt x="1040" y="676" on="1"/>
        <pt x="649" y="0" on="1"/>
        <pt x="526" y="0" on="1"/>
        <pt x="416" y="678" on="1"/>
        <pt x="397" y="791" on="0"/>
        <pt x="393" y="879" on="1"/>
        <pt x="207" y="0" on="1"/>
        <pt x="61" y="0" on="1"/>
        <pt x="293" y="1096" on="1"/>
        <pt x="479" y="1096" on="1"/>
        <pt x="594" y="371" on="1"/>
        <pt x="614" y="229" on="0"/>
        <pt x="618" y="164" on="1"/>
        <pt x="652" y="241" on="0"/>
        <pt x="739" y="389" on="1"/>
        <pt x="1151" y="1096" on="1"/>
        <pt x="1350" y="1096" on="1"/>
        <pt x="1116" y="0" on="1"/>
      </contour>
    </TTGlyph>
    <TTGlyph name="afii10079" xMin="59" yMin="0" xMax="1163" yMax="1096">
      <contour>
        <pt x="459" y="1096" on="1"/>
        <pt x="362" y="637" on="1"/>
        <pt x="897" y="637" on="1"/>
        <pt x="995" y="1096" on="1"/>
        <pt x="1163" y="1096" on="1"/>
        <pt x="932" y="0" on="1"/>
        <pt x="762" y="0" on="1"/>
        <pt x="866" y="494" on="1"/>
        <pt x="332" y="494" on="1"/>
        <pt x="227" y="0" on="1"/>
        <pt x="59" y="0" on="1"/>
        <pt x="293" y="1096" on="1"/>
      </contour>
    </TTGlyph>
    <TTGlyph name="afii10080" xMin="98" yMin="-16" xMax="1053" yMax="1110">
      <component glyphName="o" x="0" y="0" flags="0x204"/>
    </TTGlyph>
    <TTGlyph name="afii10081" xMin="59" yMin="0" xMax="1065" yMax="1116">
      <component glyphName="n" x="0" y="0" flags="0x204"/>
    </TTGlyph>
    <TTGlyph name="afii10082" xMin="-43" yMin="-492" xMax="1081" yMax="1114">
      <component glyphName="p" x="0" y="0" flags="0x204"/>
    </TTGlyph>
    <TTGlyph name="afii10083" xMin="98" yMin="-20" xMax="938" yMax="1116">
      <component glyphName="c" x="0" y="0" flags="0x204"/>
    </TTGlyph>
    <TTGlyph name="afii10084" xMin="59" yMin="0" xMax="1671" yMax="1116">
      <component glyphName="m" x="0" y="0" flags="0x204"/>
    </TTGlyph>
    <TTGlyph name="afii10085" xMin="-197" yMin="-492" xMax="1042" yMax="1096">
      <component glyphName="y" x="0" y="0" flags="0x204"/>
    </TTGlyph>
    <TTGlyph name="afii10086" xMin="98" yMin="-492" xMax="1264" yMax="1556">
      <contour>
        <pt x="874" y="1112" on="1"/>
        <pt x="1063" y="1087" on="0"/>
        <pt x="1264" y="853" on="0"/>
        <pt x="1264" y="655" on="1"/>
        <pt x="1264" y="468" on="0"/>
        <pt x="1103" y="158" on="0"/>
        <pt x="816" y="-16" on="0"/>
        <pt x="637" y="-16" on="1"/>
        <pt x="535" y="-492" on="1"/>
        <pt x="381" y="-492" on="1"/>
        <pt x="481" y="-18" on="1"/>
        <pt x="296" y="6" on="0"/>
        <pt x="98" y="245" on="0"/>
        <pt x="98" y="449" on="1"/>
        <pt x="98" y="632" on="0"/>
        <pt x="252" y="933" on="0"/>
        <pt x="534" y="1106" on="0"/>
        <pt x="721" y="1112" on="1"/>
        <pt x="815" y="1556" on="1"/>
        <pt x="971" y="1556" on="1"/>
      </contour>
      <contour>
        <pt x="270" y="451" on="1"/>
        <pt x="270" y="304" on="0"/>
        <pt x="402" y="131" on="0"/>
        <pt x="512" y="123" on="1"/>
        <pt x="692" y="971" on="1"/>
        <pt x="563" y="965" on="0"/>
        <pt x="371" y="827" on="0"/>
        <pt x="270" y="594" on="0"/>
      </contour>
      <contour>
        <pt x="668" y="123" on="1"/>
        <pt x="796" y="128" on="0"/>
        <pt x="985" y="261" on="0"/>
        <pt x="1092" y="502" on="0"/>
        <pt x="1092" y="647" on="1"/>
        <pt x="1092" y="792" on="0"/>
        <pt x="964" y="958" on="0"/>
        <pt x="848" y="969" on="1"/>
      </contour>
    </TTGlyph>
    <TTGlyph name="afii10087" xMin="-74" yMin="0" xMax="1030" yMax="1096">
      <component glyphName="x" x="0" y="0" flags="0x204"/>
    </TTGlyph>
    <TTGlyph name="afii10088" xMin="113" yMin="-379" xMax="1118" yMax="1096">
      <contour>
        <pt x="451" y="1096" on="1"/>
        <pt x="301" y="401" on="1"/>
        <pt x="283" y="312" on="0"/>
        <pt x="283" y="262" on="1"/>
        <pt x="283" y="119" on="0"/>
        <pt x="430" y="119" on="1"/>
        <pt x="518" y="119" on="0"/>
        <pt x="688" y="239" on="0"/>
        <pt x="818" y="463" on="0"/>
        <pt x="852" y="621" on="1"/>
        <pt x="952" y="1096" on="1"/>
        <pt x="1118" y="1096" on="1"/>
        <pt x="954" y="322" on="1"/>
        <pt x="938" y="244" on="0"/>
        <pt x="938" y="193" on="1"/>
        <pt x="938" y="115" on="0"/>
        <pt x="1016" y="115" on="1"/>
        <pt x="1043" y="115" on="0"/>
        <pt x="1094" y="129" on="1"/>
        <pt x="981" y="-379" on="1"/>
        <pt x="809" y="-379" on="1"/>
        <pt x="889" y="-16" on="1"/>
        <pt x="827" y="0" on="0"/>
        <pt x="770" y="100" on="0"/>
        <pt x="770" y="201" on="1"/>
        <pt x="762" y="201" on="1"/>
        <pt x="606" y="-20" on="0"/>
        <pt x="389" y="-20" on="1"/>
        <pt x="259" y="-20" on="0"/>
        <pt x="113" y="121" on="0"/>
        <pt x="113" y="248" on="1"/>
        <pt x="113" y="310" on="0"/>
        <pt x="135" y="420" on="1"/>
        <pt x="281" y="1096" on="1"/>
      </contour>
    </TTGlyph>
    <TTGlyph name="afii10089" xMin="158" yMin="0" xMax="1075" yMax="1096">
      <contour>
        <pt x="406" y="1096" on="1"/>
        <pt x="367" y="911" on="0"/>
        <pt x="328" y="725" on="0"/>
        <pt x="328" y="672" on="1"/>
        <pt x="328" y="589" on="0"/>
        <pt x="408" y="524" on="0"/>
        <pt x="479" y="524" on="1"/>
        <pt x="627" y="524" on="0"/>
        <pt x="835" y="763" on="0"/>
        <pt x="883" y="983" on="1"/>
        <pt x="907" y="1096" on="1"/>
        <pt x="1075" y="1096" on="1"/>
        <pt x="842" y="0" on="1"/>
        <pt x="670" y="0" on="1"/>
        <pt x="735" y="309" on="1"/>
        <pt x="762" y="439" on="0"/>
        <pt x="805" y="575" on="1"/>
        <pt x="797" y="575" on="1"/>
        <pt x="652" y="383" on="0"/>
        <pt x="436" y="383" on="1"/>
        <pt x="158" y="383" on="0"/>
        <pt x="158" y="659" on="1"/>
        <pt x="158" y="714" on="0"/>
        <pt x="182" y="842" on="1"/>
        <pt x="236" y="1096" on="1"/>
      </contour>
    </TTGlyph>
    <TTGlyph name="afii10090" xMin="113" yMin="-20" xMax="1724" yMax="1096">
      <contour>
        <pt x="1087" y="1096" on="1"/>
        <pt x="940" y="403" on="1"/>
        <pt x="922" y="311" on="0"/>
        <pt x="922" y="268" on="1"/>
        <pt x="922" y="199" on="0"/>
        <pt x="983" y="121" on="0"/>
        <pt x="1059" y="121" on="1"/>
        <pt x="1143" y="121" on="0"/>
        <pt x="1302" y="241" on="0"/>
        <pt x="1423" y="464" on="0"/>
        <pt x="1456" y="621" on="1"/>
        <pt x="1556" y="1096" on="1"/>
        <pt x="1724" y="1096" on="1"/>
        <pt x="1491" y="0" on="1"/>
        <pt x="1352" y="0" on="1"/>
        <pt x="1374" y="203" on="1"/>
        <pt x="1364" y="203" on="1"/>
        <pt x="1277" y="84" on="0"/>
        <pt x="1104" y="-20" on="0"/>
        <pt x="1012" y="-20" on="1"/>
        <pt x="899" y="-20" on="0"/>
        <pt x="777" y="110" on="0"/>
        <pt x="766" y="225" on="1"/>
        <pt x="758" y="225" on="1"/>
        <pt x="674" y="103" on="0"/>
        <pt x="479" y="-20" on="0"/>
        <pt x="379" y="-20" on="1"/>
        <pt x="252" y="-20" on="0"/>
        <pt x="113" y="116" on="0"/>
        <pt x="113" y="246" on="1"/>
        <pt x="113" y="314" on="0"/>
        <pt x="135" y="424" on="1"/>
        <pt x="279" y="1096" on="1"/>
        <pt x="449" y="1096" on="1"/>
        <pt x="301" y="403" on="1"/>
        <pt x="281" y="301" on="0"/>
        <pt x="281" y="258" on="1"/>
        <pt x="281" y="196" on="0"/>
        <pt x="350" y="121" on="0"/>
        <pt x="424" y="121" on="1"/>
        <pt x="504" y="121" on="0"/>
        <pt x="660" y="235" on="0"/>
        <pt x="782" y="451" on="0"/>
        <pt x="813" y="596" on="1"/>
        <pt x="920" y="1096" on="1"/>
      </contour>
    </TTGlyph>
    <TTGlyph name="afii10091" xMin="113" yMin="-379" xMax="1724" yMax="1096">
      <contour>
        <pt x="1090" y="1096" on="1"/>
        <pt x="940" y="401" on="1"/>
        <pt x="922" y="312" on="0"/>
        <pt x="922" y="268" on="1"/>
        <pt x="922" y="197" on="0"/>
        <pt x="983" y="121" on="0"/>
        <pt x="1059" y="121" on="1"/>
        <pt x="1143" y="121" on="0"/>
        <pt x="1302" y="241" on="0"/>
        <pt x="1423" y="464" on="0"/>
        <pt x="1456" y="621" on="1"/>
        <pt x="1556" y="1096" on="1"/>
        <pt x="1724" y="1096" on="1"/>
        <pt x="1561" y="322" on="1"/>
        <pt x="1544" y="241" on="0"/>
        <pt x="1544" y="193" on="1"/>
        <pt x="1544" y="154" on="0"/>
        <pt x="1587" y="115" on="0"/>
        <pt x="1622" y="115" on="1"/>
        <pt x="1648" y="115" on="0"/>
        <pt x="1687" y="126" on="0"/>
        <pt x="1700" y="129" on="1"/>
        <pt x="1587" y="-379" on="1"/>
        <pt x="1415" y="-379" on="1"/>
        <pt x="1495" y="-16" on="1"/>
        <pt x="1432" y="0" on="0"/>
        <pt x="1372" y="100" on="0"/>
        <pt x="1372" y="201" on="1"/>
        <pt x="1366" y="201" on="1"/>
        <pt x="1213" y="-20" on="0"/>
        <pt x="1012" y="-20" on="1"/>
        <pt x="899" y="-20" on="0"/>
        <pt x="777" y="110" on="0"/>
        <pt x="766" y="225" on="1"/>
        <pt x="758" y="225" on="1"/>
        <pt x="589" y="-20" on="0"/>
        <pt x="379" y="-20" on="1"/>
        <pt x="252" y="-20" on="0"/>
        <pt x="113" y="116" on="0"/>
        <pt x="113" y="246" on="1"/>
        <pt x="113" y="309" on="0"/>
        <pt x="135" y="424" on="1"/>
        <pt x="279" y="1096" on="1"/>
        <pt x="449" y="1096" on="1"/>
        <pt x="301" y="401" on="1"/>
        <pt x="281" y="301" on="0"/>
        <pt x="281" y="258" on="1"/>
        <pt x="281" y="196" on="0"/>
        <pt x="350" y="121" on="0"/>
        <pt x="424" y="121" on="1"/>
        <pt x="504" y="121" on="0"/>
        <pt x="662" y="237" on="0"/>
        <pt x="782" y="449" on="0"/>
        <pt x="813" y="596" on="1"/>
        <pt x="920" y="1096" on="1"/>
      </contour>
    </TTGlyph>
    <TTGlyph name="afii10092" xMin="84" yMin="-20" xMax="1083" yMax="1096">
      <contour>
        <pt x="528" y="616" on="1"/>
        <pt x="653" y="641" on="0"/>
        <pt x="748" y="641" on="1"/>
        <pt x="917" y="641" on="0"/>
        <pt x="1083" y="491" on="0"/>
        <pt x="1083" y="352" on="1"/>
        <pt x="1083" y="183" on="0"/>
        <pt x="861" y="-20" on="0"/>
        <pt x="662" y="-20" on="1"/>
        <pt x="492" y="-20" on="0"/>
        <pt x="309" y="140" on="0"/>
        <pt x="309" y="293" on="1"/>
        <pt x="309" y="388" on="0"/>
        <pt x="332" y="487" on="1"/>
        <pt x="430" y="950" on="1"/>
        <pt x="84" y="950" on="1"/>
        <pt x="115" y="1096" on="1"/>
        <pt x="631" y="1096" on="1"/>
      </contour>
      <contour>
        <pt x="702" y="500" on="1"/>
        <pt x="601" y="500" on="0"/>
        <pt x="498" y="479" on="1"/>
        <pt x="475" y="373" on="0"/>
        <pt x="475" y="311" on="1"/>
        <pt x="475" y="214" on="0"/>
        <pt x="572" y="121" on="0"/>
        <pt x="672" y="121" on="1"/>
        <pt x="786" y="121" on="0"/>
        <pt x="918" y="239" on="0"/>
        <pt x="918" y="338" on="1"/>
        <pt x="918" y="422" on="0"/>
        <pt x="820" y="500" on="0"/>
      </contour>
    </TTGlyph>
    <TTGlyph name="afii10093" xMin="129" yMin="-20" xMax="1413" yMax="1096">
      <contour>
        <pt x="1180" y="0" on="1"/>
        <pt x="1014" y="0" on="1"/>
        <pt x="1245" y="1096" on="1"/>
        <pt x="1413" y="1096" on="1"/>
      </contour>
      <contour>
        <pt x="451" y="1096" on="1"/>
        <pt x="348" y="616" on="1"/>
        <pt x="473" y="641" on="0"/>
        <pt x="567" y="641" on="1"/>
        <pt x="736" y="641" on="0"/>
        <pt x="903" y="491" on="0"/>
        <pt x="903" y="352" on="1"/>
        <pt x="903" y="183" on="0"/>
        <pt x="679" y="-20" on="0"/>
        <pt x="481" y="-20" on="1"/>
        <pt x="311" y="-20" on="0"/>
        <pt x="129" y="141" on="0"/>
        <pt x="129" y="293" on="1"/>
        <pt x="129" y="388" on="0"/>
        <pt x="152" y="487" on="1"/>
        <pt x="281" y="1096" on="1"/>
      </contour>
      <contour>
        <pt x="522" y="500" on="1"/>
        <pt x="422" y="500" on="0"/>
        <pt x="317" y="479" on="1"/>
        <pt x="295" y="369" on="0"/>
        <pt x="295" y="311" on="1"/>
        <pt x="295" y="214" on="0"/>
        <pt x="392" y="121" on="0"/>
        <pt x="492" y="121" on="1"/>
        <pt x="607" y="121" on="0"/>
        <pt x="737" y="239" on="0"/>
        <pt x="737" y="338" on="1"/>
        <pt x="737" y="423" on="0"/>
        <pt x="639" y="500" on="0"/>
      </contour>
    </TTGlyph>
    <TTGlyph name="afii10094" xMin="129" yMin="-20" xMax="934" yMax="1096">
      <contour>
        <pt x="346" y="616" on="1"/>
        <pt x="481" y="641" on="0"/>
        <pt x="590" y="641" on="1"/>
        <pt x="758" y="641" on="0"/>
        <pt x="934" y="497" on="0"/>
        <pt x="934" y="352" on="1"/>
        <pt x="934" y="243" on="0"/>
        <pt x="825" y="72" on="0"/>
        <pt x="624" y="-20" on="0"/>
        <pt x="492" y="-20" on="1"/>
        <pt x="315" y="-20" on="0"/>
        <pt x="129" y="139" on="0"/>
        <pt x="129" y="297" on="1"/>
        <pt x="129" y="388" on="0"/>
        <pt x="152" y="487" on="1"/>
        <pt x="281" y="1096" on="1"/>
        <pt x="451" y="1096" on="1"/>
      </contour>
      <contour>
        <pt x="553" y="500" on="1"/>
        <pt x="424" y="500" on="0"/>
        <pt x="317" y="479" on="1"/>
        <pt x="295" y="371" on="0"/>
        <pt x="295" y="311" on="1"/>
        <pt x="295" y="214" on="0"/>
        <pt x="400" y="121" on="0"/>
        <pt x="506" y="121" on="1"/>
        <pt x="630" y="121" on="0"/>
        <pt x="770" y="236" on="0"/>
        <pt x="770" y="338" on="1"/>
        <pt x="770" y="420" on="0"/>
        <pt x="665" y="500" on="0"/>
      </contour>
    </TTGlyph>
    <TTGlyph name="afii10095" xMin="18" yMin="-20" xMax="834" yMax="1114">
      <contour>
        <pt x="426" y="1114" on="1"/>
        <pt x="626" y="1114" on="0"/>
        <pt x="834" y="888" on="0"/>
        <pt x="834" y="672" on="1"/>
        <pt x="834" y="461" on="0"/>
        <pt x="697" y="142" on="0"/>
        <pt x="448" y="-20" on="0"/>
        <pt x="276" y="-20" on="1"/>
        <pt x="205" y="-20" on="0"/>
        <pt x="58" y="9" on="0"/>
        <pt x="18" y="29" on="1"/>
        <pt x="18" y="180" on="1"/>
        <pt x="161" y="121" on="0"/>
        <pt x="276" y="121" on="1"/>
        <pt x="422" y="121" on="0"/>
        <pt x="616" y="315" on="0"/>
        <pt x="647" y="489" on="1"/>
        <pt x="166" y="489" on="1"/>
        <pt x="195" y="637" on="1"/>
        <pt x="664" y="637" on="1"/>
        <pt x="664" y="666" on="1"/>
        <pt x="664" y="826" on="0"/>
        <pt x="538" y="975" on="0"/>
        <pt x="412" y="975" on="1"/>
        <pt x="301" y="975" on="0"/>
        <pt x="170" y="918" on="1"/>
        <pt x="119" y="1047" on="1"/>
        <pt x="274" y="1114" on="0"/>
      </contour>
    </TTGlyph>
    <TTGlyph name="afii10096" xMin="59" yMin="-16" xMax="1499" yMax="1110">
      <contour>
        <pt x="1499" y="688" on="1"/>
        <pt x="1499" y="494" on="0"/>
        <pt x="1360" y="161" on="0"/>
        <pt x="1125" y="-16" on="0"/>
        <pt x="977" y="-16" on="1"/>
        <pt x="793" y="-16" on="0"/>
        <pt x="586" y="213" on="0"/>
        <pt x="586" y="406" on="1"/>
        <pt x="586" y="472" on="0"/>
        <pt x="590" y="494" on="1"/>
        <pt x="332" y="494" on="1"/>
        <pt x="227" y="0" on="1"/>
        <pt x="59" y="0" on="1"/>
        <pt x="293" y="1096" on="1"/>
        <pt x="459" y="1096" on="1"/>
        <pt x="362" y="637" on="1"/>
        <pt x="612" y="637" on="1"/>
        <pt x="675" y="863" on="0"/>
        <pt x="934" y="1110" on="0"/>
        <pt x="1108" y="1110" on="1"/>
        <pt x="1292" y="1110" on="0"/>
        <pt x="1499" y="883" on="0"/>
      </contour>
      <contour>
        <pt x="1110" y="969" on="1"/>
        <pt x="1008" y="969" on="0"/>
        <pt x="849" y="826" on="0"/>
        <pt x="758" y="557" on="0"/>
        <pt x="758" y="397" on="1"/>
        <pt x="758" y="266" on="0"/>
        <pt x="877" y="123" on="0"/>
        <pt x="987" y="123" on="1"/>
        <pt x="1083" y="123" on="0"/>
        <pt x="1239" y="272" on="0"/>
        <pt x="1325" y="540" on="0"/>
        <pt x="1325" y="711" on="1"/>
        <pt x="1325" y="830" on="0"/>
        <pt x="1209" y="969" on="0"/>
      </contour>
    </TTGlyph>
    <TTGlyph name="afii10097" xMin="-43" yMin="-12" xMax="1014" yMax="1096">
      <contour>
        <pt x="569" y="434" on="1"/>
        <pt x="485" y="434" on="0"/>
        <pt x="388" y="364" on="0"/>
        <pt x="336" y="254" on="1"/>
        <pt x="274" y="123" on="0"/>
        <pt x="197" y="32" on="0"/>
        <pt x="101" y="-12" on="0"/>
        <pt x="35" y="-12" on="1"/>
        <pt x="-14" y="-12" on="0"/>
        <pt x="-43" y="0" on="1"/>
        <pt x="-43" y="133" on="1"/>
        <pt x="-22" y="127" on="0"/>
        <pt x="6" y="127" on="1"/>
        <pt x="55" y="127" on="0"/>
        <pt x="123" y="189" on="0"/>
        <pt x="178" y="301" on="1"/>
        <pt x="210" y="369" on="0"/>
        <pt x="295" y="470" on="0"/>
        <pt x="365" y="498" on="1"/>
        <pt x="272" y="525" on="0"/>
        <pt x="172" y="654" on="0"/>
        <pt x="172" y="750" on="1"/>
        <pt x="172" y="909" on="0"/>
        <pt x="401" y="1096" on="0"/>
        <pt x="600" y="1096" on="1"/>
        <pt x="1014" y="1096" on="1"/>
        <pt x="782" y="0" on="1"/>
        <pt x="616" y="0" on="1"/>
        <pt x="709" y="434" on="1"/>
      </contour>
      <contour>
        <pt x="569" y="948" on="1"/>
        <pt x="457" y="948" on="0"/>
        <pt x="336" y="842" on="0"/>
        <pt x="336" y="750" on="1"/>
        <pt x="336" y="582" on="0"/>
        <pt x="551" y="582" on="1"/>
        <pt x="739" y="582" on="1"/>
        <pt x="817" y="948" on="1"/>
      </contour>
    </TTGlyph>
    <TTGlyph name="afii10098" xMin="59" yMin="0" xMax="930" yMax="1415">
      <contour>
        <pt x="834" y="971" on="1"/>
        <pt x="432" y="971" on="1"/>
        <pt x="227" y="0" on="1"/>
        <pt x="59" y="0" on="1"/>
        <pt x="293" y="1096" on="1"/>
        <pt x="688" y="1096" on="1"/>
        <pt x="758" y="1415" on="1"/>
        <pt x="930" y="1415" on="1"/>
      </contour>
    </TTGlyph>
    <TTGlyph name="afii10099" xMin="59" yMin="-492" xMax="1057" yMax="1556">
      <contour>
        <pt x="516" y="1370" on="1"/>
        <pt x="866" y="1370" on="1"/>
        <pt x="838" y="1241" on="1"/>
        <pt x="492" y="1241" on="1"/>
        <pt x="454" y="1064" on="0"/>
        <pt x="422" y="936" on="0"/>
        <pt x="397" y="852" on="1"/>
        <pt x="408" y="852" on="1"/>
        <pt x="558" y="1077" on="0"/>
        <pt x="782" y="1077" on="1"/>
        <pt x="915" y="1077" on="0"/>
        <pt x="1057" y="931" on="0"/>
        <pt x="1057" y="799" on="1"/>
        <pt x="1057" y="737" on="0"/>
        <pt x="1034" y="633" on="1"/>
        <pt x="864" y="-162" on="1"/>
        <pt x="828" y="-333" on="0"/>
        <pt x="672" y="-492" on="0"/>
        <pt x="537" y="-492" on="1"/>
        <pt x="468" y="-492" on="0"/>
        <pt x="414" y="-471" on="1"/>
        <pt x="414" y="-328" on="1"/>
        <pt x="473" y="-350" on="0"/>
        <pt x="532" y="-350" on="1"/>
        <pt x="656" y="-350" on="0"/>
        <pt x="698" y="-143" on="1"/>
        <pt x="868" y="653" on="1"/>
        <pt x="889" y="752" on="0"/>
        <pt x="889" y="788" on="1"/>
        <pt x="889" y="936" on="0"/>
        <pt x="739" y="936" on="1"/>
        <pt x="651" y="936" on="0"/>
        <pt x="482" y="817" on="0"/>
        <pt x="352" y="594" on="0"/>
        <pt x="319" y="436" on="1"/>
        <pt x="227" y="0" on="1"/>
        <pt x="59" y="0" on="1"/>
        <pt x="324" y="1241" on="1"/>
        <pt x="172" y="1241" on="1"/>
        <pt x="201" y="1370" on="1"/>
        <pt x="350" y="1370" on="1"/>
        <pt x="389" y="1556" on="1"/>
        <pt x="557" y="1556" on="1"/>
      </contour>
    </TTGlyph>
    <TTGlyph name="afii10100" xMin="55" yMin="-20" xMax="964" yMax="1569">
      <component glyphName="afii10068" x="0" y="0" flags="0x204"/>
      <component glyphName="acute" x="10" y="0" flags="0x4"/>
    </TTGlyph>
    <TTGlyph name="afii10101" xMin="98" yMin="-20" xMax="938" yMax="1116">
      <contour>
        <pt x="506" y="-20" on="1"/>
        <pt x="312" y="-20" on="0"/>
        <pt x="98" y="194" on="0"/>
        <pt x="98" y="389" on="1"/>
        <pt x="98" y="588" on="0"/>
        <pt x="250" y="936" on="0"/>
        <pt x="507" y="1116" on="0"/>
        <pt x="670" y="1116" on="1"/>
        <pt x="807" y="1116" on="0"/>
        <pt x="938" y="1065" on="1"/>
        <pt x="891" y="924" on="1"/>
        <pt x="771" y="975" on="0"/>
        <pt x="672" y="975" on="1"/>
        <pt x="547" y="975" on="0"/>
        <pt x="355" y="799" on="0"/>
        <pt x="305" y="637" on="1"/>
        <pt x="776" y="637" on="1"/>
        <pt x="743" y="489" on="1"/>
        <pt x="274" y="489" on="1"/>
        <pt x="270" y="454" on="0"/>
        <pt x="270" y="389" on="1"/>
        <pt x="270" y="266" on="0"/>
        <pt x="401" y="119" on="0"/>
        <pt x="520" y="119" on="1"/>
        <pt x="577" y="119" on="0"/>
        <pt x="691" y="145" on="0"/>
        <pt x="782" y="186" on="1"/>
        <pt x="782" y="43" on="1"/>
        <pt x="658" y="-20" on="0"/>
      </contour>
    </TTGlyph>
    <TTGlyph name="afii10102" xMin="8" yMin="-20" xMax="836" yMax="1116">
      <component glyphName="s" x="0" y="0" flags="0x204"/>
    </TTGlyph>
    <TTGlyph name="afii10103" xMin="59" yMin="0" xMax="543" yMax="1503">
      <component glyphName="i" x="0" y="0" flags="0x204"/>
    </TTGlyph>
    <TTGlyph name="afii10104" xMin="59" yMin="0" xMax="705" yMax="1491">
      <component glyphName="dotlessi" x="0" y="0" flags="0x204"/>
      <component glyphName="dieresis" x="-296" y="0" flags="0x4"/>
    </TTGlyph>
    <TTGlyph name="afii10105" xMin="-258" yMin="-492" xMax="541" yMax="1503">
      <component glyphName="j" x="0" y="0" flags="0x204"/>
    </TTGlyph>
    <TTGlyph name="afii10106" xMin="-94" yMin="-20" xMax="1432" yMax="1104">
      <contour>
        <pt x="874" y="616" on="1"/>
        <pt x="1002" y="641" on="0"/>
        <pt x="1096" y="641" on="1"/>
        <pt x="1265" y="641" on="0"/>
        <pt x="1432" y="491" on="0"/>
        <pt x="1432" y="352" on="1"/>
        <pt x="1432" y="183" on="0"/>
        <pt x="1208" y="-20" on="0"/>
        <pt x="1010" y="-20" on="1"/>
        <pt x="840" y="-20" on="0"/>
        <pt x="657" y="140" on="0"/>
        <pt x="657" y="293" on="1"/>
        <pt x="657" y="377" on="0"/>
        <pt x="680" y="487" on="1"/>
        <pt x="776" y="954" on="1"/>
        <pt x="743" y="963" on="0"/>
        <pt x="713" y="963" on="1"/>
        <pt x="653" y="963" on="0"/>
        <pt x="574" y="893" on="0"/>
        <pt x="494" y="722" on="0"/>
        <pt x="424" y="514" on="1"/>
        <pt x="343" y="276" on="0"/>
        <pt x="227" y="77" on="0"/>
        <pt x="87" y="-14" on="0"/>
        <pt x="-12" y="-14" on="1"/>
        <pt x="-63" y="-14" on="0"/>
        <pt x="-94" y="0" on="1"/>
        <pt x="-94" y="145" on="1"/>
        <pt x="-64" y="135" on="0"/>
        <pt x="-27" y="135" on="1"/>
        <pt x="37" y="135" on="0"/>
        <pt x="128" y="211" on="0"/>
        <pt x="215" y="382" on="0"/>
        <pt x="279" y="569" on="1"/>
        <pt x="322" y="696" on="0"/>
        <pt x="398" y="896" on="0"/>
        <pt x="498" y="1032" on="0"/>
        <pt x="640" y="1104" on="0"/>
        <pt x="750" y="1104" on="1"/>
        <pt x="861" y="1104" on="0"/>
        <pt x="971" y="1071" on="1"/>
      </contour>
      <contour>
        <pt x="1051" y="500" on="1"/>
        <pt x="947" y="500" on="0"/>
        <pt x="846" y="479" on="1"/>
        <pt x="823" y="373" on="0"/>
        <pt x="823" y="311" on="1"/>
        <pt x="823" y="121" on="0"/>
        <pt x="1020" y="121" on="1"/>
        <pt x="1134" y="121" on="0"/>
        <pt x="1266" y="239" on="0"/>
        <pt x="1266" y="338" on="1"/>
        <pt x="1266" y="422" on="0"/>
        <pt x="1168" y="500" on="0"/>
      </contour>
    </TTGlyph>
    <TTGlyph name="afii10107" xMin="57" yMin="-20" xMax="1534" yMax="1096">
      <contour>
        <pt x="979" y="616" on="1"/>
        <pt x="1102" y="641" on="0"/>
        <pt x="1198" y="641" on="1"/>
        <pt x="1367" y="641" on="0"/>
        <pt x="1534" y="491" on="0"/>
        <pt x="1534" y="352" on="1"/>
        <pt x="1534" y="183" on="0"/>
        <pt x="1310" y="-20" on="0"/>
        <pt x="1112" y="-20" on="1"/>
        <pt x="942" y="-20" on="0"/>
        <pt x="760" y="141" on="0"/>
        <pt x="760" y="293" on="1"/>
        <pt x="760" y="389" on="0"/>
        <pt x="784" y="494" on="1"/>
        <pt x="332" y="494" on="1"/>
        <pt x="227" y="0" on="1"/>
        <pt x="57" y="0" on="1"/>
        <pt x="293" y="1096" on="1"/>
        <pt x="459" y="1096" on="1"/>
        <pt x="362" y="637" on="1"/>
        <pt x="815" y="637" on="1"/>
        <pt x="913" y="1096" on="1"/>
        <pt x="1081" y="1096" on="1"/>
      </contour>
      <contour>
        <pt x="1155" y="500" on="1"/>
        <pt x="1053" y="500" on="0"/>
        <pt x="948" y="479" on="1"/>
        <pt x="926" y="365" on="0"/>
        <pt x="926" y="309" on="1"/>
        <pt x="926" y="121" on="0"/>
        <pt x="1122" y="121" on="1"/>
        <pt x="1236" y="121" on="0"/>
        <pt x="1368" y="239" on="0"/>
        <pt x="1368" y="338" on="1"/>
        <pt x="1368" y="423" on="0"/>
        <pt x="1270" y="500" on="0"/>
      </contour>
    </TTGlyph>
    <TTGlyph name="afii10108" xMin="59" yMin="0" xMax="1061" yMax="1556">
      <component glyphName="hbar" x="0" y="0" flags="0x204"/>
    </TTGlyph>
    <TTGlyph name="afii10109" xMin="59" yMin="0" xMax="1075" yMax="1569">
      <component glyphName="afii10076" x="0" y="0" flags="0x204"/>
      <component glyphName="acute" x="59" y="0" flags="0x4"/>
    </TTGlyph>
    <TTGlyph name="afii10110" xMin="-197" yMin="-492" xMax="1042" yMax="1552">
      <component glyphName="y" x="0" y="0" flags="0x204"/>
      <component glyphName="cyrillicbreve" x="-67" y="0" flags="0x4"/>
    </TTGlyph>
    <TTGlyph name="afii10145" xMin="86" yMin="-381" xMax="1401" yMax="1462">
      <contour>
        <pt x="395" y="1462" on="1"/>
        <pt x="567" y="1462" on="1"/>
        <pt x="291" y="152" on="1"/>
        <pt x="952" y="152" on="1"/>
        <pt x="1229" y="1462" on="1"/>
        <pt x="1401" y="1462" on="1"/>
        <pt x="1092" y="0" on="1"/>
        <pt x="670" y="0" on="1"/>
        <pt x="590" y="-381" on="1"/>
        <pt x="428" y="-381" on="1"/>
        <pt x="510" y="0" on="1"/>
        <pt x="86" y="0" on="1"/>
      </contour>
    </TTGlyph>
    <TTGlyph name="afii10193" xMin="113" yMin="-492" xMax="1118" yMax="1096">
      <contour>
        <pt x="532" y="-72" on="1"/>
        <pt x="573" y="-72" on="1"/>
        <pt x="481" y="-492" on="1"/>
        <pt x="311" y="-492" on="1"/>
        <pt x="393" y="-117" on="1"/>
      </contour>
      <contour>
        <pt x="451" y="1096" on="1"/>
        <pt x="301" y="401" on="1"/>
        <pt x="283" y="312" on="0"/>
        <pt x="283" y="262" on="1"/>
        <pt x="283" y="119" on="0"/>
        <pt x="430" y="119" on="1"/>
        <pt x="518" y="119" on="0"/>
        <pt x="688" y="239" on="0"/>
        <pt x="818" y="463" on="0"/>
        <pt x="852" y="621" on="1"/>
        <pt x="952" y="1096" on="1"/>
        <pt x="1118" y="1096" on="1"/>
        <pt x="887" y="0" on="1"/>
        <pt x="748" y="0" on="1"/>
        <pt x="770" y="203" on="1"/>
        <pt x="758" y="203" on="1"/>
        <pt x="660" y="78" on="0"/>
        <pt x="482" y="-20" on="0"/>
        <pt x="387" y="-20" on="1"/>
        <pt x="259" y="-20" on="0"/>
        <pt x="113" y="119" on="0"/>
        <pt x="113" y="248" on="1"/>
        <pt x="113" y="310" on="0"/>
        <pt x="135" y="420" on="1"/>
        <pt x="281" y="1096" on="1"/>
      </contour>
    </TTGlyph>
    <TTGlyph name="afii61248" xMin="203" yMin="-6" xMax="1450" yMax="1470">
      <contour>
        <pt x="1450" y="1462" on="1"/>
        <pt x="358" y="0" on="1"/>
        <pt x="203" y="0" on="1"/>
        <pt x="1298" y="1462" on="1"/>
      </contour>
      <contour>
        <pt x="1427" y="403" on="1"/>
        <pt x="1427" y="216" on="0"/>
        <pt x="1241" y="-6" on="0"/>
        <pt x="1083" y="-6" on="1"/>
        <pt x="966" y="-6" on="0"/>
        <pt x="836" y="126" on="0"/>
        <pt x="836" y="248" on="1"/>
        <pt x="836" y="367" on="0"/>
        <pt x="919" y="562" on="0"/>
        <pt x="1071" y="672" on="0"/>
        <pt x="1176" y="672" on="1"/>
        <pt x="1294" y="672" on="0"/>
        <pt x="1427" y="528" on="0"/>
      </contour>
      <contour>
        <pt x="1165" y="567" on="1"/>
        <pt x="1076" y="567" on="0"/>
        <pt x="967" y="394" on="0"/>
        <pt x="967" y="258" on="1"/>
        <pt x="967" y="94" on="0"/>
        <pt x="1096" y="94" on="1"/>
        <pt x="1156" y="94" on="0"/>
        <pt x="1245" y="178" on="0"/>
        <pt x="1294" y="320" on="0"/>
        <pt x="1294" y="397" on="1"/>
        <pt x="1294" y="567" on="0"/>
      </contour>
      <contour>
        <pt x="516" y="793" on="1"/>
        <pt x="395" y="793" on="0"/>
        <pt x="262" y="930" on="0"/>
        <pt x="262" y="1057" on="1"/>
        <pt x="262" y="1172" on="0"/>
        <pt x="358" y="1363" on="0"/>
        <pt x="534" y="1470" on="0"/>
        <pt x="653" y="1470" on="1"/>
        <pt x="733" y="1470" on="0"/>
        <pt x="819" y="1436" on="1"/>
        <pt x="782" y="1337" on="1"/>
        <pt x="711" y="1368" on="0"/>
        <pt x="639" y="1368" on="1"/>
        <pt x="531" y="1368" on="0"/>
        <pt x="395" y="1195" on="0"/>
        <pt x="395" y="1063" on="1"/>
        <pt x="395" y="897" on="0"/>
        <pt x="532" y="897" on="1"/>
        <pt x="580" y="897" on="0"/>
        <pt x="653" y="919" on="0"/>
        <pt x="684" y="930" on="1"/>
        <pt x="684" y="827" on="1"/>
        <pt x="609" y="793" on="0"/>
      </contour>
    </TTGlyph>
    <TTGlyph name="afii61289" xMin="160" yMin="-20" xMax="915" yMax="1483">
      <contour>
        <pt x="655" y="109" on="1"/>
        <pt x="734" y="109" on="0"/>
        <pt x="823" y="222" on="0"/>
        <pt x="829" y="324" on="1"/>
        <pt x="915" y="324" on="1"/>
        <pt x="907" y="160" on="0"/>
        <pt x="771" y="-20" on="0"/>
        <pt x="639" y="-20" on="1"/>
        <pt x="501" y="-20" on="0"/>
        <pt x="354" y="164" on="0"/>
        <pt x="354" y="330" on="1"/>
        <pt x="354" y="573" on="1"/>
        <pt x="267" y="542" on="0"/>
        <pt x="160" y="516" on="1"/>
        <pt x="160" y="627" on="1"/>
        <pt x="236" y="647" on="0"/>
        <pt x="354" y="686" on="1"/>
        <pt x="354" y="1192" on="1"/>
        <pt x="354" y="1330" on="0"/>
        <pt x="489" y="1483" on="0"/>
        <pt x="612" y="1483" on="1"/>
        <pt x="718" y="1483" on="0"/>
        <pt x="836" y="1319" on="0"/>
        <pt x="836" y="1184" on="1"/>
        <pt x="836" y="1009" on="0"/>
        <pt x="661" y="725" on="0"/>
        <pt x="504" y="643" on="1"/>
        <pt x="504" y="336" on="1"/>
        <pt x="504" y="230" on="0"/>
        <pt x="584" y="109" on="0"/>
      </contour>
      <contour>
        <pt x="719" y="1178" on="1"/>
        <pt x="719" y="1277" on="0"/>
        <pt x="668" y="1372" on="0"/>
        <pt x="612" y="1372" on="1"/>
        <pt x="556" y="1372" on="0"/>
        <pt x="504" y="1288" on="0"/>
        <pt x="504" y="1178" on="1"/>
        <pt x="504" y="760" on="1"/>
        <pt x="617" y="828" on="0"/>
        <pt x="719" y="1023" on="0"/>
      </contour>
    </TTGlyph>
    <TTGlyph name="afii61352" xMin="59" yMin="0" xMax="1876" yMax="1462">
      <contour>
        <pt x="1014" y="0" on="1"/>
        <pt x="825" y="0" on="1"/>
        <pt x="465" y="1239" on="1"/>
        <pt x="436" y="1045" on="0"/>
        <pt x="387" y="813" on="1"/>
        <pt x="215" y="0" on="1"/>
        <pt x="59" y="0" on="1"/>
        <pt x="369" y="1462" on="1"/>
        <pt x="563" y="1462" on="1"/>
        <pt x="918" y="246" on="1"/>
        <pt x="975" y="543" on="1"/>
        <pt x="1169" y="1462" on="1"/>
        <pt x="1323" y="1462" on="1"/>
      </contour>
      <contour>
        <pt x="1225" y="0" on="1"/>
        <pt x="1255" y="141" on="1"/>
        <pt x="1724" y="141" on="1"/>
        <pt x="1694" y="0" on="1"/>
      </contour>
      <contour>
        <pt x="1876" y="692" on="1"/>
        <pt x="1876" y="576" on="0"/>
        <pt x="1786" y="374" on="0"/>
        <pt x="1635" y="274" on="0"/>
        <pt x="1534" y="274" on="1"/>
        <pt x="1413" y="274" on="0"/>
        <pt x="1282" y="417" on="0"/>
        <pt x="1282" y="545" on="1"/>
        <pt x="1282" y="661" on="0"/>
        <pt x="1368" y="855" on="0"/>
        <pt x="1523" y="965" on="0"/>
        <pt x="1624" y="965" on="1"/>
        <pt x="1741" y="965" on="0"/>
        <pt x="1876" y="815" on="0"/>
      </contour>
      <contour>
        <pt x="1614" y="846" on="1"/>
        <pt x="1527" y="846" on="0"/>
        <pt x="1415" y="681" on="0"/>
        <pt x="1415" y="553" on="1"/>
        <pt x="1415" y="475" on="0"/>
        <pt x="1479" y="389" on="0"/>
        <pt x="1542" y="389" on="1"/>
        <pt x="1632" y="389" on="0"/>
        <pt x="1743" y="555" on="0"/>
        <pt x="1743" y="684" on="1"/>
        <pt x="1743" y="846" on="0"/>
      </contour>
    </TTGlyph>
    <TTGlyph name="agrave" xMin="98" yMin="-20" xMax="1120" yMax="1569">
      <component glyphName="a" x="0" y="0" flags="0x204"/>
      <component glyphName="grave" x="-79" y="0" flags="0x4"/>
    </TTGlyph>
    <TTGlyph name="alpha" xMin="98" yMin="-20" xMax="1161" yMax="1116">
      <contour>
        <pt x="631" y="1116" on="1"/>
        <pt x="730" y="1116" on="0"/>
        <pt x="875" y="1019" on="0"/>
        <pt x="913" y="926" on="1"/>
        <pt x="926" y="926" on="1"/>
        <pt x="980" y="1046" on="0"/>
        <pt x="1026" y="1096" on="1"/>
        <pt x="1161" y="1096" on="1"/>
        <pt x="1124" y="1020" on="0"/>
        <pt x="1036" y="740" on="0"/>
        <pt x="1010" y="623" on="1"/>
        <pt x="938" y="301" on="1"/>
        <pt x="922" y="233" on="0"/>
        <pt x="922" y="188" on="1"/>
        <pt x="922" y="153" on="0"/>
        <pt x="956" y="115" on="0"/>
        <pt x="987" y="115" on="1"/>
        <pt x="1015" y="115" on="0"/>
        <pt x="1053" y="127" on="1"/>
        <pt x="1053" y="6" on="1"/>
        <pt x="1034" y="-5" on="0"/>
        <pt x="956" y="-20" on="0"/>
        <pt x="932" y="-20" on="1"/>
        <pt x="754" y="-20" on="0"/>
        <pt x="754" y="173" on="1"/>
        <pt x="754" y="186" on="1"/>
        <pt x="745" y="186" on="1"/>
        <pt x="656" y="77" on="0"/>
        <pt x="487" y="-20" on="0"/>
        <pt x="395" y="-20" on="1"/>
        <pt x="257" y="-20" on="0"/>
        <pt x="98" y="177" on="0"/>
        <pt x="98" y="350" on="1"/>
        <pt x="98" y="559" on="0"/>
        <pt x="238" y="916" on="0"/>
        <pt x="482" y="1116" on="0"/>
      </contour>
      <contour>
        <pt x="449" y="119" on="1"/>
        <pt x="545" y="119" on="0"/>
        <pt x="733" y="303" on="0"/>
        <pt x="850" y="600" on="0"/>
        <pt x="850" y="750" on="1"/>
        <pt x="850" y="853" on="0"/>
        <pt x="738" y="975" on="0"/>
        <pt x="647" y="975" on="1"/>
        <pt x="545" y="975" on="0"/>
        <pt x="372" y="809" on="0"/>
        <pt x="270" y="518" on="0"/>
        <pt x="270" y="346" on="1"/>
        <pt x="270" y="232" on="0"/>
        <pt x="364" y="119" on="0"/>
      </contour>
    </TTGlyph>
    <TTGlyph name="alphatonos" xMin="98" yMin="-20" xMax="1161" yMax="1653">
      <component glyphName="alpha" x="0" y="0" flags="0x204"/>
      <component glyphName="tonos" x="12" y="0" flags="0x4"/>
    </TTGlyph>
    <TTGlyph name="amacron" xMin="98" yMin="-20" xMax="1120" yMax="1382">
      <component glyphName="a" x="0" y="0" flags="0x204"/>
      <component glyphName="macron" x="35" y="0" flags="0x4"/>
    </TTGlyph>
    <TTGlyph name="ampersand" xMin="66" yMin="-20" xMax="1311" yMax="1485">
      <contour>
        <pt x="737" y="1348" on="1"/>
        <pt x="632" y="1348" on="0"/>
        <pt x="516" y="1228" on="0"/>
        <pt x="516" y="1118" on="1"/>
        <pt x="516" y="998" on="0"/>
        <pt x="598" y="883" on="1"/>
        <pt x="737" y="954" on="0"/>
        <pt x="841" y="1032" on="0"/>
        <pt x="903" y="1124" on="0"/>
        <pt x="903" y="1182" on="1"/>
        <pt x="903" y="1259" on="0"/>
        <pt x="818" y="1348" on="0"/>
      </contour>
      <contour>
        <pt x="471" y="119" on="1"/>
        <pt x="558" y="119" on="0"/>
        <pt x="720" y="185" on="0"/>
        <pt x="834" y="276" on="1"/>
        <pt x="528" y="709" on="1"/>
        <pt x="400" y="642" on="0"/>
        <pt x="288" y="544" on="0"/>
        <pt x="229" y="427" on="0"/>
        <pt x="229" y="354" on="1"/>
        <pt x="229" y="248" on="0"/>
        <pt x="362" y="119" on="0"/>
      </contour>
      <contour>
        <pt x="66" y="342" on="1"/>
        <pt x="66" y="490" on="0"/>
        <pt x="246" y="709" on="0"/>
        <pt x="459" y="811" on="1"/>
        <pt x="356" y="976" on="0"/>
        <pt x="356" y="1120" on="1"/>
        <pt x="356" y="1284" on="0"/>
        <pt x="568" y="1485" on="0"/>
        <pt x="743" y="1485" on="1"/>
        <pt x="892" y="1485" on="0"/>
        <pt x="1067" y="1327" on="0"/>
        <pt x="1067" y="1194" on="1"/>
        <pt x="1067" y="1116" on="0"/>
        <pt x="1002" y="998" on="0"/>
        <pt x="892" y="900" on="0"/>
        <pt x="747" y="818" on="0"/>
        <pt x="666" y="776" on="1"/>
        <pt x="944" y="387" on="1"/>
        <pt x="1071" y="497" on="0"/>
        <pt x="1143" y="682" on="1"/>
        <pt x="1311" y="682" on="1"/>
        <pt x="1210" y="446" on="0"/>
        <pt x="1028" y="270" on="1"/>
        <pt x="1231" y="0" on="1"/>
        <pt x="1030" y="0" on="1"/>
        <pt x="913" y="166" on="1"/>
        <pt x="793" y="66" on="0"/>
        <pt x="573" y="-20" on="0"/>
        <pt x="436" y="-20" on="1"/>
        <pt x="268" y="-20" on="0"/>
        <pt x="66" y="172" on="0"/>
      </contour>
    </TTGlyph>
    <TTGlyph name="anoteleia" xMin="170" yMin="587" xMax="418" yMax="858">
      <component glyphName="period" x="127" y="616" flags="0x4"/>
    </TTGlyph>
    <TTGlyph name="aogonek" xMin="98" yMin="-440" xMax="1120" yMax="1116">
      <component glyphName="a" x="0" y="0" flags="0x204"/>
      <component glyphName="ogonek" x="680" y="0" flags="0x4"/>
    </TTGlyph>
    <TTGlyph name="approxequal" xMin="115" yMin="381" xMax="1075" yMax="1055">
      <contour>
        <pt x="348" y="502" on="1"/>
        <pt x="297" y="502" on="0"/>
        <pt x="170" y="438" on="0"/>
        <pt x="115" y="381" on="1"/>
        <pt x="115" y="532" on="1"/>
        <pt x="213" y="641" on="0"/>
        <pt x="358" y="641" on="1"/>
        <pt x="427" y="641" on="0"/>
        <pt x="543" y="612" on="0"/>
        <pt x="629" y="575" on="1"/>
        <pt x="693" y="548" on="0"/>
        <pt x="790" y="520" on="0"/>
        <pt x="840" y="520" on="1"/>
        <pt x="895" y="520" on="0"/>
        <pt x="1024" y="586" on="0"/>
        <pt x="1075" y="641" on="1"/>
        <pt x="1075" y="492" on="1"/>
        <pt x="974" y="381" on="0"/>
        <pt x="831" y="381" on="1"/>
        <pt x="759" y="381" on="0"/>
        <pt x="633" y="414" on="0"/>
        <pt x="561" y="446" on="1"/>
        <pt x="486" y="478" on="0"/>
        <pt x="396" y="502" on="0"/>
      </contour>
      <contour>
        <pt x="348" y="915" on="1"/>
        <pt x="296" y="915" on="0"/>
        <pt x="169" y="850" on="0"/>
        <pt x="115" y="795" on="1"/>
        <pt x="115" y="946" on="1"/>
        <pt x="213" y="1055" on="0"/>
        <pt x="358" y="1055" on="1"/>
        <pt x="423" y="1055" on="0"/>
        <pt x="550" y="1023" on="0"/>
        <pt x="629" y="989" on="1"/>
        <pt x="693" y="962" on="0"/>
        <pt x="790" y="934" on="0"/>
        <pt x="840" y="934" on="1"/>
        <pt x="895" y="934" on="0"/>
        <pt x="1024" y="1000" on="0"/>
        <pt x="1075" y="1055" on="1"/>
        <pt x="1075" y="905" on="1"/>
        <pt x="975" y="795" on="0"/>
        <pt x="831" y="795" on="1"/>
        <pt x="759" y="795" on="0"/>
        <pt x="633" y="828" on="0"/>
        <pt x="561" y="860" on="1"/>
        <pt x="495" y="888" on="0"/>
        <pt x="397" y="915" on="0"/>
      </contour>
    </TTGlyph>
    <TTGlyph name="aring" xMin="98" yMin="-20" xMax="1120" yMax="1665">
      <component glyphName="a" x="0" y="0" flags="0x204"/>
      <component glyphName="ring" x="-38" y="0" flags="0x4"/>
    </TTGlyph>
    <TTGlyph name="aringacute" xMin="98" yMin="-20" xMax="1120" yMax="1962">
      <contour>
        <pt x="659" y="1714" on="1"/>
        <pt x="777" y="1823" on="0"/>
        <pt x="887" y="1962" on="1"/>
        <pt x="1100" y="1962" on="1"/>
        <pt x="1100" y="1944" on="1"/>
        <pt x="1051" y="1893" on="0"/>
        <pt x="837" y="1730" on="0"/>
        <pt x="776" y="1694" on="1"/>
        <pt x="659" y="1694" on="1"/>
      </contour>
      <contour>
        <pt x="942" y="1411" on="1"/>
        <pt x="942" y="1312" on="0"/>
        <pt x="821" y="1198" on="0"/>
        <pt x="723" y="1198" on="1"/>
        <pt x="625" y="1198" on="0"/>
        <pt x="502" y="1310" on="0"/>
        <pt x="502" y="1409" on="1"/>
        <pt x="502" y="1506" on="0"/>
        <pt x="627" y="1622" on="0"/>
        <pt x="723" y="1622" on="1"/>
        <pt x="821" y="1622" on="0"/>
        <pt x="942" y="1507" on="0"/>
      </contour>
      <contour>
        <pt x="838" y="1409" on="1"/>
        <pt x="838" y="1463" on="0"/>
        <pt x="772" y="1524" on="0"/>
        <pt x="723" y="1524" on="1"/>
        <pt x="672" y="1524" on="0"/>
        <pt x="608" y="1463" on="0"/>
        <pt x="608" y="1409" on="1"/>
        <pt x="608" y="1356" on="0"/>
        <pt x="666" y="1294" on="0"/>
        <pt x="723" y="1294" on="1"/>
        <pt x="772" y="1294" on="0"/>
        <pt x="838" y="1356" on="0"/>
      </contour>
      <contour>
        <pt x="639" y="1116" on="1"/>
        <pt x="731" y="1116" on="0"/>
        <pt x="875" y="1017" on="0"/>
        <pt x="915" y="924" on="1"/>
        <pt x="926" y="924" on="1"/>
        <pt x="993" y="1096" on="1"/>
        <pt x="1120" y="1096" on="1"/>
        <pt x="887" y="0" on="1"/>
        <pt x="754" y="0" on="1"/>
        <pt x="780" y="209" on="1"/>
        <pt x="772" y="209" on="1"/>
        <pt x="593" y="-20" on="0"/>
        <pt x="395" y="-20" on="1"/>
        <pt x="256" y="-20" on="0"/>
        <pt x="98" y="178" on="0"/>
        <pt x="98" y="350" on="1"/>
        <pt x="98" y="558" on="0"/>
        <pt x="240" y="914" on="0"/>
        <pt x="490" y="1116" on="0"/>
      </contour>
      <contour>
        <pt x="449" y="119" on="1"/>
        <pt x="546" y="119" on="0"/>
        <pt x="738" y="304" on="0"/>
        <pt x="858" y="601" on="0"/>
        <pt x="858" y="750" on="1"/>
        <pt x="858" y="853" on="0"/>
        <pt x="746" y="975" on="0"/>
        <pt x="655" y="975" on="1"/>
        <pt x="551" y="975" on="0"/>
        <pt x="372" y="803" on="0"/>
        <pt x="270" y="509" on="0"/>
        <pt x="270" y="346" on="1"/>
        <pt x="270" y="232" on="0"/>
        <pt x="364" y="119" on="0"/>
      </contour>
    </TTGlyph>
    <TTGlyph name="asciicircum" xMin="53" yMin="553" xMax="1026" yMax="1473">
      <contour>
        <pt x="53" y="553" on="1"/>
        <pt x="651" y="1473" on="1"/>
        <pt x="760" y="1473" on="1"/>
        <pt x="1026" y="553" on="1"/>
        <pt x="881" y="553" on="1"/>
        <pt x="680" y="1300" on="1"/>
        <pt x="213" y="553" on="1"/>
      </contour>
    </TTGlyph>
    <TTGlyph name="asciitilde" xMin="115" yMin="592" xMax="1075" yMax="852">
      <contour>
        <pt x="348" y="713" on="1"/>
        <pt x="294" y="713" on="0"/>
        <pt x="165" y="644" on="0"/>
        <pt x="115" y="592" on="1"/>
        <pt x="115" y="743" on="1"/>
        <pt x="213" y="852" on="0"/>
        <pt x="358" y="852" on="1"/>
        <pt x="427" y="852" on="0"/>
        <pt x="543" y="823" on="0"/>
        <pt x="629" y="786" on="1"/>
        <pt x="693" y="759" on="0"/>
        <pt x="790" y="731" on="0"/>
        <pt x="840" y="731" on="1"/>
        <pt x="895" y="731" on="0"/>
        <pt x="1024" y="797" on="0"/>
        <pt x="1075" y="852" on="1"/>
        <pt x="1075" y="702" on="1"/>
        <pt x="975" y="592" on="0"/>
        <pt x="831" y="592" on="1"/>
        <pt x="759" y="592" on="0"/>
        <pt x="633" y="625" on="0"/>
        <pt x="561" y="657" on="1"/>
        <pt x="486" y="689" on="0"/>
        <pt x="396" y="713" on="0"/>
      </contour>
    </TTGlyph>
    <TTGlyph name="asterisk" xMin="215" yMin="618" xMax="1153" yMax="1563">
      <contour>
        <pt x="854" y="1528" on="1"/>
        <pt x="731" y="1145" on="1"/>
        <pt x="1153" y="1163" on="1"/>
        <pt x="1145" y="1006" on="1"/>
        <pt x="752" y="1053" on="1"/>
        <pt x="932" y="670" on="1"/>
        <pt x="766" y="618" on="1"/>
        <pt x="653" y="1024" on="1"/>
        <pt x="395" y="680" on="1"/>
        <pt x="279" y="801" on="1"/>
        <pt x="588" y="1085" on="1"/>
        <pt x="215" y="1194" on="1"/>
        <pt x="270" y="1348" on="1"/>
        <pt x="641" y="1163" on="1"/>
        <pt x="682" y="1563" on="1"/>
      </contour>
    </TTGlyph>
    <TTGlyph name="at" xMin="111" yMin="-186" xMax="1679" yMax="1460">
      <contour>
        <pt x="1679" y="852" on="1"/>
        <pt x="1679" y="673" on="0"/>
        <pt x="1569" y="383" on="0"/>
        <pt x="1369" y="219" on="0"/>
        <pt x="1247" y="219" on="1"/>
        <pt x="1050" y="219" on="0"/>
        <pt x="1034" y="403" on="1"/>
        <pt x="1026" y="403" on="1"/>
        <pt x="915" y="219" on="0"/>
        <pt x="735" y="219" on="1"/>
        <pt x="620" y="219" on="0"/>
        <pt x="489" y="370" on="0"/>
        <pt x="489" y="504" on="1"/>
        <pt x="489" y="661" on="0"/>
        <pt x="625" y="915" on="0"/>
        <pt x="866" y="1059" on="0"/>
        <pt x="1006" y="1059" on="1"/>
        <pt x="1071" y="1059" on="0"/>
        <pt x="1196" y="1035" on="0"/>
        <pt x="1284" y="999" on="1"/>
        <pt x="1220" y="757" on="0"/>
        <pt x="1152" y="505" on="0"/>
        <pt x="1155" y="459" on="1"/>
        <pt x="1155" y="342" on="0"/>
        <pt x="1257" y="342" on="1"/>
        <pt x="1335" y="342" on="0"/>
        <pt x="1462" y="476" on="0"/>
        <pt x="1536" y="709" on="0"/>
        <pt x="1536" y="836" on="1"/>
        <pt x="1536" y="1075" on="0"/>
        <pt x="1280" y="1331" on="0"/>
        <pt x="1038" y="1331" on="1"/>
        <pt x="810" y="1331" on="0"/>
        <pt x="453" y="1117" on="0"/>
        <pt x="256" y="740" on="0"/>
        <pt x="256" y="512" on="1"/>
        <pt x="256" y="242" on="0"/>
        <pt x="543" y="-55" on="0"/>
        <pt x="809" y="-55" on="1"/>
        <pt x="1006" y="-55" on="0"/>
        <pt x="1229" y="31" on="1"/>
        <pt x="1229" y="-96" on="1"/>
        <pt x="1010" y="-186" on="0"/>
        <pt x="786" y="-186" on="1"/>
        <pt x="472" y="-186" on="0"/>
        <pt x="111" y="183" on="0"/>
        <pt x="111" y="504" on="1"/>
        <pt x="111" y="765" on="0"/>
        <pt x="364" y="1214" on="0"/>
        <pt x="798" y="1460" on="0"/>
        <pt x="1067" y="1460" on="1"/>
        <pt x="1258" y="1460" on="0"/>
        <pt x="1534" y="1309" on="0"/>
        <pt x="1679" y="1033" on="0"/>
      </contour>
      <contour>
        <pt x="985" y="938" on="1"/>
        <pt x="891" y="938" on="0"/>
        <pt x="731" y="828" on="0"/>
        <pt x="639" y="632" on="0"/>
        <pt x="639" y="518" on="1"/>
        <pt x="639" y="425" on="0"/>
        <pt x="705" y="342" on="0"/>
        <pt x="770" y="342" on="1"/>
        <pt x="957" y="342" on="0"/>
        <pt x="1042" y="657" on="1"/>
        <pt x="1112" y="915" on="1"/>
        <pt x="1049" y="938" on="0"/>
      </contour>
    </TTGlyph>
    <TTGlyph name="atilde" xMin="98" yMin="-20" xMax="1120" yMax="1501">
      <component glyphName="a" x="0" y="0" flags="0x204"/>
      <component glyphName="tilde" x="18" y="0" flags="0x4"/>
    </TTGlyph>
    <TTGlyph name="b" xMin="59" yMin="-20" xMax="1081" yMax="1556">
      <contour>
        <pt x="545" y="-20" on="1"/>
        <pt x="448" y="-20" on="0"/>
        <pt x="301" y="82" on="0"/>
        <pt x="264" y="170" on="1"/>
        <pt x="254" y="170" on="1"/>
        <pt x="184" y="0" on="1"/>
        <pt x="59" y="0" on="1"/>
        <pt x="389" y="1556" on="1"/>
        <pt x="557" y="1556" on="1"/>
        <pt x="506" y="1314" on="0"/>
        <pt x="451" y="1057" on="0"/>
        <pt x="403" y="885" on="1"/>
        <pt x="412" y="885" on="1"/>
        <pt x="505" y="1003" on="0"/>
        <pt x="686" y="1114" on="0"/>
        <pt x="782" y="1114" on="1"/>
        <pt x="923" y="1114" on="0"/>
        <pt x="1081" y="916" on="0"/>
        <pt x="1081" y="743" on="1"/>
        <pt x="1081" y="534" on="0"/>
        <pt x="944" y="179" on="0"/>
        <pt x="699" y="-20" on="0"/>
      </contour>
      <contour>
        <pt x="731" y="975" on="1"/>
        <pt x="635" y="975" on="0"/>
        <pt x="436" y="785" on="0"/>
        <pt x="319" y="497" on="0"/>
        <pt x="319" y="346" on="1"/>
        <pt x="319" y="236" on="0"/>
        <pt x="430" y="119" on="0"/>
        <pt x="535" y="119" on="1"/>
        <pt x="634" y="119" on="0"/>
        <pt x="805" y="281" on="0"/>
        <pt x="909" y="580" on="0"/>
        <pt x="909" y="748" on="1"/>
        <pt x="909" y="975" on="0"/>
      </contour>
    </TTGlyph>
    <TTGlyph name="backslash" xMin="221" yMin="0" xMax="592" yMax="1462">
      <contour>
        <pt x="375" y="1462" on="1"/>
        <pt x="592" y="0" on="1"/>
        <pt x="438" y="0" on="1"/>
        <pt x="221" y="1462" on="1"/>
      </contour>
    </TTGlyph>
    <TTGlyph name="bar" xMin="541" yMin="-496" xMax="680" yMax="1556">
      <contour>
        <pt x="541" y="1556" on="1"/>
        <pt x="680" y="1556" on="1"/>
        <pt x="680" y="-496" on="1"/>
        <pt x="541" y="-496" on="1"/>
      </contour>
    </TTGlyph>
    <TTGlyph name="beta" xMin="-45" yMin="-492" xMax="1151" yMax="1567">
      <contour>
        <pt x="-45" y="-492" on="1"/>
        <pt x="293" y="1092" on="1"/>
        <pt x="332" y="1266" on="0"/>
        <pt x="456" y="1463" on="0"/>
        <pt x="648" y="1567" on="0"/>
        <pt x="786" y="1567" on="1"/>
        <pt x="958" y="1567" on="0"/>
        <pt x="1151" y="1383" on="0"/>
        <pt x="1151" y="1221" on="1"/>
        <pt x="1151" y="1059" on="0"/>
        <pt x="975" y="851" on="0"/>
        <pt x="801" y="811" on="1"/>
        <pt x="925" y="782" on="0"/>
        <pt x="1055" y="605" on="0"/>
        <pt x="1055" y="471" on="1"/>
        <pt x="1055" y="248" on="0"/>
        <pt x="787" y="-20" on="0"/>
        <pt x="565" y="-20" on="1"/>
        <pt x="479" y="-20" on="0"/>
        <pt x="330" y="31" on="0"/>
        <pt x="248" y="94" on="1"/>
        <pt x="123" y="-492" on="1"/>
      </contour>
      <contour>
        <pt x="768" y="1427" on="1"/>
        <pt x="649" y="1427" on="0"/>
        <pt x="502" y="1277" on="0"/>
        <pt x="461" y="1090" on="1"/>
        <pt x="272" y="205" on="1"/>
        <pt x="325" y="167" on="0"/>
        <pt x="475" y="117" on="0"/>
        <pt x="555" y="117" on="1"/>
        <pt x="657" y="117" on="0"/>
        <pt x="812" y="207" on="0"/>
        <pt x="893" y="366" on="0"/>
        <pt x="893" y="461" on="1"/>
        <pt x="893" y="745" on="0"/>
        <pt x="594" y="745" on="1"/>
        <pt x="526" y="745" on="1"/>
        <pt x="557" y="887" on="1"/>
        <pt x="629" y="887" on="1"/>
        <pt x="800" y="887" on="0"/>
        <pt x="981" y="1054" on="0"/>
        <pt x="981" y="1210" on="1"/>
        <pt x="981" y="1309" on="0"/>
        <pt x="870" y="1427" on="0"/>
      </contour>
    </TTGlyph>
    <TTGlyph name="braceleft" xMin="27" yMin="-324" xMax="815" yMax="1462">
      <contour>
        <pt x="442" y="-324" on="1"/>
        <pt x="301" y="-324" on="0"/>
        <pt x="150" y="-219" on="0"/>
        <pt x="150" y="-100" on="1"/>
        <pt x="150" y="-48" on="0"/>
        <pt x="170" y="41" on="1"/>
        <pt x="203" y="187" on="0"/>
        <pt x="240" y="350" on="0"/>
        <pt x="236" y="371" on="1"/>
        <pt x="236" y="514" on="0"/>
        <pt x="27" y="514" on="1"/>
        <pt x="59" y="657" on="1"/>
        <pt x="177" y="657" on="0"/>
        <pt x="320" y="744" on="0"/>
        <pt x="342" y="848" on="1"/>
        <pt x="410" y="1174" on="1"/>
        <pt x="444" y="1334" on="0"/>
        <pt x="611" y="1462" on="0"/>
        <pt x="782" y="1462" on="1"/>
        <pt x="815" y="1462" on="1"/>
        <pt x="784" y="1321" on="1"/>
        <pt x="679" y="1321" on="0"/>
        <pt x="587" y="1248" on="0"/>
        <pt x="567" y="1161" on="1"/>
        <pt x="496" y="840" on="1"/>
        <pt x="468" y="717" on="0"/>
        <pt x="342" y="595" on="0"/>
        <pt x="238" y="578" on="1"/>
        <pt x="238" y="573" on="1"/>
        <pt x="389" y="532" on="0"/>
        <pt x="389" y="360" on="1"/>
        <pt x="389" y="301" on="0"/>
        <pt x="371" y="229" on="1"/>
        <pt x="324" y="18" on="1"/>
        <pt x="309" y="-40" on="0"/>
        <pt x="309" y="-80" on="1"/>
        <pt x="309" y="-133" on="0"/>
        <pt x="382" y="-182" on="0"/>
        <pt x="465" y="-182" on="1"/>
        <pt x="465" y="-324" on="1"/>
      </contour>
    </TTGlyph>
    <TTGlyph name="braceright" xMin="-74" yMin="-324" xMax="705" yMax="1462">
      <contour>
        <pt x="285" y="1462" on="1"/>
        <pt x="429" y="1462" on="0"/>
        <pt x="582" y="1357" on="0"/>
        <pt x="582" y="1239" on="1"/>
        <pt x="582" y="1191" on="0"/>
        <pt x="561" y="1098" on="1"/>
        <pt x="512" y="879" on="1"/>
        <pt x="496" y="811" on="0"/>
        <pt x="496" y="768" on="1"/>
        <pt x="496" y="625" on="0"/>
        <pt x="705" y="625" on="1"/>
        <pt x="672" y="481" on="1"/>
        <pt x="553" y="481" on="0"/>
        <pt x="411" y="395" on="0"/>
        <pt x="389" y="291" on="1"/>
        <pt x="322" y="-35" on="1"/>
        <pt x="286" y="-199" on="0"/>
        <pt x="120" y="-324" on="0"/>
        <pt x="-61" y="-324" on="1"/>
        <pt x="-74" y="-324" on="1"/>
        <pt x="-74" y="-182" on="1"/>
        <pt x="41" y="-182" on="0"/>
        <pt x="145" y="-110" on="0"/>
        <pt x="164" y="-23" on="1"/>
        <pt x="236" y="299" on="1"/>
        <pt x="261" y="416" on="0"/>
        <pt x="387" y="541" on="0"/>
        <pt x="494" y="559" on="1"/>
        <pt x="494" y="565" on="1"/>
        <pt x="344" y="607" on="0"/>
        <pt x="344" y="776" on="1"/>
        <pt x="344" y="835" on="0"/>
        <pt x="362" y="907" on="1"/>
        <pt x="412" y="1120" on="1"/>
        <pt x="426" y="1185" on="0"/>
        <pt x="426" y="1219" on="1"/>
        <pt x="426" y="1272" on="0"/>
        <pt x="345" y="1321" on="0"/>
        <pt x="246" y="1321" on="1"/>
        <pt x="274" y="1462" on="1"/>
      </contour>
    </TTGlyph>
    <TTGlyph name="bracketleft" xMin="-16" yMin="-324" xMax="752" yMax="1462">
      <contour>
        <pt x="371" y="-324" on="1"/>
        <pt x="-16" y="-324" on="1"/>
        <pt x="365" y="1462" on="1"/>
        <pt x="752" y="1462" on="1"/>
        <pt x="721" y="1321" on="1"/>
        <pt x="494" y="1321" on="1"/>
        <pt x="176" y="-182" on="1"/>
        <pt x="403" y="-182" on="1"/>
      </contour>
    </TTGlyph>
    <TTGlyph name="bracketright" xMin="-150" yMin="-324" xMax="618" yMax="1462">
      <contour>
        <pt x="-119" y="-182" on="1"/>
        <pt x="106" y="-182" on="1"/>
        <pt x="426" y="1321" on="1"/>
        <pt x="199" y="1321" on="1"/>
        <pt x="229" y="1462" on="1"/>
        <pt x="618" y="1462" on="1"/>
        <pt x="238" y="-324" on="1"/>
        <pt x="-150" y="-324" on="1"/>
      </contour>
    </TTGlyph>
    <TTGlyph name="breve" xMin="475" yMin="1241" xMax="1051" yMax="1509">
      <contour>
        <pt x="1051" y="1509" on="1"/>
        <pt x="1017" y="1371" on="0"/>
        <pt x="855" y="1241" on="0"/>
        <pt x="723" y="1241" on="1"/>
        <pt x="610" y="1241" on="0"/>
        <pt x="475" y="1360" on="0"/>
        <pt x="475" y="1466" on="1"/>
        <pt x="475" y="1487" on="1"/>
        <pt x="477" y="1509" on="1"/>
        <pt x="575" y="1509" on="1"/>
        <pt x="575" y="1450" on="0"/>
        <pt x="649" y="1384" on="0"/>
        <pt x="741" y="1384" on="1"/>
        <pt x="910" y="1384" on="0"/>
        <pt x="944" y="1509" on="1"/>
      </contour>
    </TTGlyph>
    <TTGlyph name="breveacutecomb" xMin="-758" yMin="1241" xMax="-158" yMax="1729">
      <contour>
        <pt x="-487" y="1241" on="1"/>
        <pt x="-607" y="1241" on="0"/>
        <pt x="-754" y="1379" on="0"/>
        <pt x="-758" y="1497" on="1"/>
        <pt x="-651" y="1497" on="1"/>
        <pt x="-637" y="1432" on="0"/>
        <pt x="-550" y="1378" on="0"/>
        <pt x="-473" y="1378" on="1"/>
        <pt x="-325" y="1378" on="0"/>
        <pt x="-272" y="1497" on="1"/>
        <pt x="-160" y="1497" on="1"/>
        <pt x="-194" y="1372" on="0"/>
        <pt x="-362" y="1241" on="0"/>
      </contour>
      <contour>
        <pt x="-508" y="1524" on="1"/>
        <pt x="-403" y="1619" on="0"/>
        <pt x="-330" y="1729" on="1"/>
        <pt x="-158" y="1729" on="1"/>
        <pt x="-158" y="1706" on="1"/>
        <pt x="-202" y="1662" on="0"/>
        <pt x="-363" y="1540" on="0"/>
        <pt x="-432" y="1501" on="1"/>
        <pt x="-508" y="1501" on="1"/>
      </contour>
    </TTGlyph>
    <TTGlyph name="brevegravecomb" xMin="-758" yMin="1241" xMax="-160" yMax="1729">
      <contour>
        <pt x="-473" y="1501" on="1"/>
        <pt x="-587" y="1610" on="0"/>
        <pt x="-659" y="1706" on="1"/>
        <pt x="-653" y="1729" on="1"/>
        <pt x="-514" y="1729" on="1"/>
        <pt x="-465" y="1631" on="0"/>
        <pt x="-393" y="1528" on="1"/>
        <pt x="-401" y="1501" on="1"/>
      </contour>
      <contour>
        <pt x="-487" y="1241" on="1"/>
        <pt x="-607" y="1241" on="0"/>
        <pt x="-754" y="1379" on="0"/>
        <pt x="-758" y="1497" on="1"/>
        <pt x="-651" y="1497" on="1"/>
        <pt x="-637" y="1432" on="0"/>
        <pt x="-550" y="1378" on="0"/>
        <pt x="-473" y="1378" on="1"/>
        <pt x="-325" y="1378" on="0"/>
        <pt x="-272" y="1497" on="1"/>
        <pt x="-160" y="1497" on="1"/>
        <pt x="-194" y="1372" on="0"/>
        <pt x="-362" y="1241" on="0"/>
      </contour>
    </TTGlyph>
    <TTGlyph name="brevehookcomb" xMin="-758" yMin="1241" xMax="-160" yMax="1798">
      <contour>
        <pt x="-524" y="1483" on="1"/>
        <pt x="-518" y="1579" on="1"/>
        <pt x="-449" y="1590" on="0"/>
        <pt x="-379" y="1629" on="0"/>
        <pt x="-379" y="1669" on="1"/>
        <pt x="-379" y="1698" on="0"/>
        <pt x="-425" y="1718" on="0"/>
        <pt x="-465" y="1718" on="1"/>
        <pt x="-502" y="1718" on="0"/>
        <pt x="-537" y="1710" on="1"/>
        <pt x="-537" y="1790" on="1"/>
        <pt x="-507" y="1798" on="0"/>
        <pt x="-449" y="1798" on="1"/>
        <pt x="-362" y="1798" on="0"/>
        <pt x="-270" y="1737" on="0"/>
        <pt x="-270" y="1677" on="1"/>
        <pt x="-270" y="1612" on="0"/>
        <pt x="-356" y="1541" on="0"/>
        <pt x="-428" y="1524" on="1"/>
        <pt x="-444" y="1483" on="1"/>
      </contour>
      <contour>
        <pt x="-487" y="1241" on="1"/>
        <pt x="-607" y="1241" on="0"/>
        <pt x="-754" y="1379" on="0"/>
        <pt x="-758" y="1497" on="1"/>
        <pt x="-651" y="1497" on="1"/>
        <pt x="-637" y="1432" on="0"/>
        <pt x="-550" y="1378" on="0"/>
        <pt x="-473" y="1378" on="1"/>
        <pt x="-325" y="1378" on="0"/>
        <pt x="-272" y="1497" on="1"/>
        <pt x="-160" y="1497" on="1"/>
        <pt x="-194" y="1372" on="0"/>
        <pt x="-362" y="1241" on="0"/>
      </contour>
    </TTGlyph>
    <TTGlyph name="brevetildecomb" xMin="-778" yMin="1241" xMax="-53" yMax="1808">
      <contour>
        <pt x="-285" y="1587" on="1"/>
        <pt x="-324" y="1587" on="0"/>
        <pt x="-397" y="1617" on="0"/>
        <pt x="-465" y="1653" on="0"/>
        <pt x="-528" y="1683" on="0"/>
        <pt x="-557" y="1683" on="1"/>
        <pt x="-600" y="1683" on="0"/>
        <pt x="-653" y="1638" on="0"/>
        <pt x="-678" y="1585" on="1"/>
        <pt x="-778" y="1585" on="1"/>
        <pt x="-721" y="1806" on="0"/>
        <pt x="-545" y="1806" on="1"/>
        <pt x="-503" y="1806" on="0"/>
        <pt x="-428" y="1776" on="0"/>
        <pt x="-361" y="1740" on="0"/>
        <pt x="-301" y="1710" on="0"/>
        <pt x="-274" y="1710" on="1"/>
        <pt x="-237" y="1710" on="0"/>
        <pt x="-188" y="1746" on="0"/>
        <pt x="-154" y="1808" on="1"/>
        <pt x="-53" y="1808" on="1"/>
        <pt x="-118" y="1587" on="0"/>
      </contour>
      <contour>
        <pt x="-487" y="1241" on="1"/>
        <pt x="-607" y="1241" on="0"/>
        <pt x="-754" y="1379" on="0"/>
        <pt x="-758" y="1497" on="1"/>
        <pt x="-651" y="1497" on="1"/>
        <pt x="-637" y="1432" on="0"/>
        <pt x="-550" y="1378" on="0"/>
        <pt x="-473" y="1378" on="1"/>
        <pt x="-325" y="1378" on="0"/>
        <pt x="-272" y="1497" on="1"/>
        <pt x="-160" y="1497" on="1"/>
        <pt x="-194" y="1372" on="0"/>
        <pt x="-362" y="1241" on="0"/>
      </contour>
    </TTGlyph>
    <TTGlyph name="brokenbar" xMin="541" yMin="-496" xMax="680" yMax="1556">
      <contour>
        <pt x="541" y="1556" on="1"/>
        <pt x="680" y="1556" on="1"/>
        <pt x="680" y="780" on="1"/>
        <pt x="541" y="780" on="1"/>
      </contour>
      <contour>
        <pt x="541" y="281" on="1"/>
        <pt x="680" y="281" on="1"/>
        <pt x="680" y="-496" on="1"/>
        <pt x="541" y="-496" on="1"/>
      </contour>
    </TTGlyph>
    <TTGlyph name="bullet" xMin="199" yMin="492" xMax="657" yMax="1001">
      <contour>
        <pt x="199" y="684" on="1"/>
        <pt x="199" y="829" on="0"/>
        <pt x="346" y="1001" on="0"/>
        <pt x="471" y="1001" on="1"/>
        <pt x="563" y="1001" on="0"/>
        <pt x="657" y="903" on="0"/>
        <pt x="657" y="811" on="1"/>
        <pt x="657" y="670" on="0"/>
        <pt x="509" y="492" on="0"/>
        <pt x="381" y="492" on="1"/>
        <pt x="292" y="492" on="0"/>
        <pt x="199" y="591" on="0"/>
      </contour>
    </TTGlyph>
    <TTGlyph name="c" xMin="98" yMin="-20" xMax="938" yMax="1116">
      <contour>
        <pt x="506" y="-20" on="1"/>
        <pt x="312" y="-20" on="0"/>
        <pt x="98" y="194" on="0"/>
        <pt x="98" y="389" on="1"/>
        <pt x="98" y="589" on="0"/>
        <pt x="246" y="927" on="0"/>
        <pt x="507" y="1116" on="0"/>
        <pt x="670" y="1116" on="1"/>
        <pt x="807" y="1116" on="0"/>
        <pt x="938" y="1065" on="1"/>
        <pt x="891" y="924" on="1"/>
        <pt x="771" y="975" on="0"/>
        <pt x="672" y="975" on="1"/>
        <pt x="560" y="975" on="0"/>
        <pt x="375" y="822" on="0"/>
        <pt x="270" y="549" on="0"/>
        <pt x="270" y="389" on="1"/>
        <pt x="270" y="261" on="0"/>
        <pt x="403" y="119" on="0"/>
        <pt x="520" y="119" on="1"/>
        <pt x="592" y="119" on="0"/>
        <pt x="720" y="159" on="0"/>
        <pt x="782" y="186" on="1"/>
        <pt x="782" y="43" on="1"/>
        <pt x="658" y="-20" on="0"/>
      </contour>
    </TTGlyph>
    <TTGlyph name="cacute" xMin="98" yMin="-20" xMax="1024" yMax="1569">
      <component glyphName="c" x="0" y="0" flags="0x204"/>
      <component glyphName="acute" x="70" y="0" flags="0x4"/>
    </TTGlyph>
    <TTGlyph name="caron" xMin="467" yMin="1241" xMax="1081" yMax="1569">
      <contour>
        <pt x="467" y="1569" on="1"/>
        <pt x="567" y="1569" on="1"/>
        <pt x="608" y="1537" on="0"/>
        <pt x="687" y="1437" on="0"/>
        <pt x="729" y="1380" on="1"/>
        <pt x="852" y="1489" on="0"/>
        <pt x="975" y="1569" on="1"/>
        <pt x="1081" y="1569" on="1"/>
        <pt x="1081" y="1542" on="1"/>
        <pt x="994" y="1465" on="0"/>
        <pt x="827" y="1293" on="0"/>
        <pt x="795" y="1241" on="1"/>
        <pt x="635" y="1241" on="1"/>
        <pt x="601" y="1336" on="0"/>
        <pt x="510" y="1476" on="1"/>
        <pt x="467" y="1542" on="1"/>
      </contour>
    </TTGlyph>
    <TTGlyph name="caroncommaaccent" xMin="518" yMin="1229" xMax="827" yMax="1556">
      <contour>
        <pt x="518" y="1255" on="1"/>
        <pt x="555" y="1310" on="0"/>
        <pt x="649" y="1503" on="0"/>
        <pt x="668" y="1556" on="1"/>
        <pt x="827" y="1556" on="1"/>
        <pt x="827" y="1536" on="1"/>
        <pt x="807" y="1481" on="0"/>
        <pt x="665" y="1282" on="0"/>
        <pt x="610" y="1229" on="1"/>
        <pt x="518" y="1229" on="1"/>
      </contour>
    </TTGlyph>
    <TTGlyph name="ccaron" xMin="98" yMin="-20" xMax="1016" yMax="1569">
      <component glyphName="c" x="0" y="0" flags="0x204"/>
      <component glyphName="caron" x="-65" y="0" flags="0x4"/>
    </TTGlyph>
    <TTGlyph name="ccedilla" xMin="98" yMin="-492" xMax="938" yMax="1116">
      <component glyphName="c" x="0" y="0" flags="0x204"/>
      <component glyphName="cedilla" x="381" y="0" flags="0x4"/>
    </TTGlyph>
    <TTGlyph name="ccircumflex" xMin="98" yMin="-20" xMax="964" yMax="1569">
      <component glyphName="c" x="0" y="0" flags="0x204"/>
      <component glyphName="circumflex" x="-50" y="0" flags="0x4"/>
    </TTGlyph>
    <TTGlyph name="cdot" xMin="98" yMin="-20" xMax="938" yMax="1503">
      <component glyphName="c" x="0" y="0" flags="0x204"/>
      <component glyphName="dotaccent" x="281" y="0" flags="0x4"/>
    </TTGlyph>
    <TTGlyph name="cedilla" xMin="-170" yMin="-492" xMax="211" yMax="0">
      <contour>
        <pt x="211" y="-276" on="1"/>
        <pt x="211" y="-374" on="0"/>
        <pt x="49" y="-492" on="0"/>
        <pt x="-84" y="-492" on="1"/>
        <pt x="-125" y="-492" on="0"/>
        <pt x="-170" y="-483" on="1"/>
        <pt x="-170" y="-383" on="1"/>
        <pt x="-132" y="-389" on="0"/>
        <pt x="-102" y="-389" on="1"/>
        <pt x="72" y="-389" on="0"/>
        <pt x="72" y="-279" on="1"/>
        <pt x="72" y="-233" on="0"/>
        <pt x="-6" y="-190" on="0"/>
        <pt x="-66" y="-182" on="1"/>
        <pt x="35" y="0" on="1"/>
        <pt x="141" y="0" on="1"/>
        <pt x="80" y="-121" on="1"/>
        <pt x="211" y="-159" on="0"/>
      </contour>
    </TTGlyph>
    <TTGlyph name="cent" xMin="225" yMin="-20" xMax="1065" yMax="1483">
      <contour>
        <pt x="582" y="-20" on="1"/>
        <pt x="457" y="-20" on="1"/>
        <pt x="500" y="195" on="1"/>
        <pt x="368" y="229" on="0"/>
        <pt x="225" y="436" on="0"/>
        <pt x="225" y="590" on="1"/>
        <pt x="225" y="775" on="0"/>
        <pt x="352" y="1093" on="0"/>
        <pt x="582" y="1292" on="0"/>
        <pt x="727" y="1313" on="1"/>
        <pt x="762" y="1483" on="1"/>
        <pt x="885" y="1483" on="1"/>
        <pt x="848" y="1315" on="1"/>
        <pt x="967" y="1306" on="0"/>
        <pt x="1065" y="1266" on="1"/>
        <pt x="1018" y="1124" on="1"/>
        <pt x="909" y="1176" on="0"/>
        <pt x="799" y="1176" on="1"/>
        <pt x="687" y="1176" on="0"/>
        <pt x="502" y="1023" on="0"/>
        <pt x="397" y="750" on="0"/>
        <pt x="397" y="590" on="1"/>
        <pt x="397" y="465" on="0"/>
        <pt x="529" y="319" on="0"/>
        <pt x="647" y="319" on="1"/>
        <pt x="719" y="319" on="0"/>
        <pt x="847" y="359" on="0"/>
        <pt x="909" y="387" on="1"/>
        <pt x="909" y="244" on="1"/>
        <pt x="786" y="182" on="0"/>
        <pt x="623" y="178" on="1"/>
      </contour>
    </TTGlyph>
    <TTGlyph name="chi" xMin="-229" yMin="-492" xMax="1100" yMax="1098">
      <contour>
        <pt x="246" y="1098" on="1"/>
        <pt x="347" y="1098" on="0"/>
        <pt x="456" y="982" on="0"/>
        <pt x="473" y="846" on="1"/>
        <pt x="514" y="494" on="1"/>
        <pt x="924" y="1096" on="1"/>
        <pt x="1100" y="1096" on="1"/>
        <pt x="551" y="305" on="1"/>
        <pt x="618" y="-193" on="1"/>
        <pt x="632" y="-286" on="0"/>
        <pt x="689" y="-356" on="0"/>
        <pt x="748" y="-356" on="1"/>
        <pt x="786" y="-356" on="0"/>
        <pt x="827" y="-344" on="1"/>
        <pt x="827" y="-469" on="1"/>
        <pt x="761" y="-492" on="0"/>
        <pt x="698" y="-492" on="1"/>
        <pt x="596" y="-492" on="0"/>
        <pt x="482" y="-366" on="0"/>
        <pt x="463" y="-213" on="1"/>
        <pt x="416" y="158" on="1"/>
        <pt x="-39" y="-492" on="1"/>
        <pt x="-229" y="-492" on="1"/>
        <pt x="379" y="340" on="1"/>
        <pt x="319" y="821" on="1"/>
        <pt x="310" y="900" on="0"/>
        <pt x="257" y="963" on="0"/>
        <pt x="211" y="963" on="1"/>
        <pt x="194" y="963" on="0"/>
        <pt x="143" y="948" on="1"/>
        <pt x="113" y="1071" on="1"/>
        <pt x="183" y="1098" on="0"/>
      </contour>
    </TTGlyph>
    <TTGlyph name="circumflex" xMin="399" yMin="1241" xMax="1014" yMax="1569">
      <contour>
        <pt x="1014" y="1241" on="1"/>
        <pt x="911" y="1241" on="1"/>
        <pt x="854" y="1289" on="0"/>
        <pt x="750" y="1430" on="1"/>
        <pt x="616" y="1311" on="0"/>
        <pt x="508" y="1241" on="1"/>
        <pt x="399" y="1241" on="1"/>
        <pt x="399" y="1268" on="1"/>
        <pt x="544" y="1401" on="0"/>
        <pt x="663" y="1530" on="0"/>
        <pt x="686" y="1569" on="1"/>
        <pt x="844" y="1569" on="1"/>
        <pt x="881" y="1470" on="0"/>
        <pt x="972" y="1334" on="1"/>
        <pt x="1014" y="1268" on="1"/>
      </contour>
    </TTGlyph>
    <TTGlyph name="circumflexacutecomb" xMin="-793" yMin="1241" xMax="106" yMax="1663">
      <contour>
        <pt x="-524" y="1526" on="1"/>
        <pt x="-350" y="1526" on="1"/>
        <pt x="-334" y="1473" on="0"/>
        <pt x="-248" y="1324" on="0"/>
        <pt x="-201" y="1264" on="1"/>
        <pt x="-207" y="1241" on="1"/>
        <pt x="-264" y="1241" on="1"/>
        <pt x="-361" y="1298" on="0"/>
        <pt x="-455" y="1407" on="1"/>
        <pt x="-599" y="1299" on="0"/>
        <pt x="-719" y="1241" on="1"/>
        <pt x="-793" y="1241" on="1"/>
        <pt x="-784" y="1268" on="1"/>
        <pt x="-709" y="1332" on="0"/>
        <pt x="-558" y="1482" on="0"/>
      </contour>
      <contour>
        <pt x="-246" y="1460" on="1"/>
        <pt x="-200" y="1507" on="1"/>
        <pt x="-106" y="1601" on="0"/>
        <pt x="-63" y="1663" on="1"/>
        <pt x="106" y="1663" on="1"/>
        <pt x="106" y="1638" on="1"/>
        <pt x="63" y="1595" on="0"/>
        <pt x="-81" y="1478" on="0"/>
        <pt x="-150" y="1436" on="1"/>
        <pt x="-246" y="1436" on="1"/>
      </contour>
    </TTGlyph>
    <TTGlyph name="circumflexgravecomb" xMin="-938" yMin="1241" xMax="-201" yMax="1663">
      <contour>
        <pt x="-524" y="1526" on="1"/>
        <pt x="-350" y="1526" on="1"/>
        <pt x="-334" y="1473" on="0"/>
        <pt x="-248" y="1324" on="0"/>
        <pt x="-201" y="1264" on="1"/>
        <pt x="-207" y="1241" on="1"/>
        <pt x="-264" y="1241" on="1"/>
        <pt x="-361" y="1298" on="0"/>
        <pt x="-455" y="1407" on="1"/>
        <pt x="-599" y="1299" on="0"/>
        <pt x="-719" y="1241" on="1"/>
        <pt x="-793" y="1241" on="1"/>
        <pt x="-784" y="1268" on="1"/>
        <pt x="-709" y="1332" on="0"/>
        <pt x="-558" y="1482" on="0"/>
      </contour>
      <contour>
        <pt x="-762" y="1436" on="1"/>
        <pt x="-829" y="1497" on="0"/>
        <pt x="-936" y="1640" on="1"/>
        <pt x="-938" y="1663" on="1"/>
        <pt x="-801" y="1663" on="1"/>
        <pt x="-745" y="1551" on="0"/>
        <pt x="-680" y="1458" on="1"/>
        <pt x="-680" y="1436" on="1"/>
      </contour>
    </TTGlyph>
    <TTGlyph name="circumflexhookcomb" xMin="-793" yMin="1241" xMax="29" yMax="1757">
      <contour>
        <pt x="-524" y="1526" on="1"/>
        <pt x="-350" y="1526" on="1"/>
        <pt x="-334" y="1473" on="0"/>
        <pt x="-248" y="1324" on="0"/>
        <pt x="-201" y="1264" on="1"/>
        <pt x="-207" y="1241" on="1"/>
        <pt x="-264" y="1241" on="1"/>
        <pt x="-361" y="1298" on="0"/>
        <pt x="-455" y="1407" on="1"/>
        <pt x="-599" y="1299" on="0"/>
        <pt x="-719" y="1241" on="1"/>
        <pt x="-793" y="1241" on="1"/>
        <pt x="-784" y="1268" on="1"/>
        <pt x="-709" y="1332" on="0"/>
        <pt x="-558" y="1482" on="0"/>
      </contour>
      <contour>
        <pt x="-221" y="1450" on="1"/>
        <pt x="-213" y="1544" on="1"/>
        <pt x="-144" y="1555" on="0"/>
        <pt x="-76" y="1595" on="0"/>
        <pt x="-76" y="1630" on="1"/>
        <pt x="-76" y="1661" on="0"/>
        <pt x="-122" y="1681" on="0"/>
        <pt x="-162" y="1681" on="1"/>
        <pt x="-204" y="1681" on="0"/>
        <pt x="-233" y="1673" on="1"/>
        <pt x="-233" y="1751" on="1"/>
        <pt x="-211" y="1757" on="0"/>
        <pt x="-145" y="1757" on="1"/>
        <pt x="-59" y="1757" on="0"/>
        <pt x="29" y="1697" on="0"/>
        <pt x="29" y="1640" on="1"/>
        <pt x="29" y="1575" on="0"/>
        <pt x="-55" y="1506" on="0"/>
        <pt x="-127" y="1489" on="1"/>
        <pt x="-141" y="1450" on="1"/>
      </contour>
    </TTGlyph>
    <TTGlyph name="circumflextildecomb" xMin="-791" yMin="1241" xMax="-33" yMax="1808">
      <contour>
        <pt x="-264" y="1589" on="1"/>
        <pt x="-303" y="1589" on="0"/>
        <pt x="-377" y="1619" on="0"/>
        <pt x="-445" y="1656" on="0"/>
        <pt x="-508" y="1686" on="0"/>
        <pt x="-537" y="1686" on="1"/>
        <pt x="-580" y="1686" on="0"/>
        <pt x="-633" y="1640" on="0"/>
        <pt x="-657" y="1587" on="1"/>
        <pt x="-758" y="1587" on="1"/>
        <pt x="-700" y="1806" on="0"/>
        <pt x="-526" y="1806" on="1"/>
        <pt x="-484" y="1806" on="0"/>
        <pt x="-408" y="1776" on="0"/>
        <pt x="-340" y="1740" on="0"/>
        <pt x="-280" y="1710" on="0"/>
        <pt x="-254" y="1710" on="1"/>
        <pt x="-216" y="1710" on="0"/>
        <pt x="-165" y="1749" on="0"/>
        <pt x="-133" y="1808" on="1"/>
        <pt x="-33" y="1808" on="1"/>
        <pt x="-97" y="1589" on="0"/>
      </contour>
      <contour>
        <pt x="-522" y="1528" on="1"/>
        <pt x="-348" y="1528" on="1"/>
        <pt x="-333" y="1477" on="0"/>
        <pt x="-246" y="1322" on="0"/>
        <pt x="-199" y="1264" on="1"/>
        <pt x="-207" y="1241" on="1"/>
        <pt x="-264" y="1241" on="1"/>
        <pt x="-355" y="1296" on="0"/>
        <pt x="-453" y="1409" on="1"/>
        <pt x="-586" y="1304" on="0"/>
        <pt x="-717" y="1241" on="1"/>
        <pt x="-791" y="1241" on="1"/>
        <pt x="-784" y="1268" on="1"/>
        <pt x="-599" y="1427" on="0"/>
      </contour>
    </TTGlyph>
    <TTGlyph name="colon" xMin="43" yMin="-29" xMax="451" yMax="1124">
      <contour>
        <pt x="43" y="74" on="1"/>
        <pt x="43" y="151" on="0"/>
        <pt x="124" y="242" on="0"/>
        <pt x="195" y="242" on="1"/>
        <pt x="238" y="242" on="0"/>
        <pt x="291" y="190" on="0"/>
        <pt x="291" y="137" on="1"/>
        <pt x="291" y="66" on="0"/>
        <pt x="211" y="-29" on="0"/>
        <pt x="143" y="-29" on="1"/>
        <pt x="97" y="-29" on="0"/>
        <pt x="43" y="23" on="0"/>
      </contour>
      <contour>
        <pt x="203" y="956" on="1"/>
        <pt x="203" y="1033" on="0"/>
        <pt x="283" y="1124" on="0"/>
        <pt x="354" y="1124" on="1"/>
        <pt x="451" y="1124" on="0"/>
        <pt x="451" y="1020" on="1"/>
        <pt x="451" y="947" on="0"/>
        <pt x="368" y="854" on="0"/>
        <pt x="303" y="854" on="1"/>
        <pt x="257" y="854" on="0"/>
        <pt x="203" y="907" on="0"/>
      </contour>
    </TTGlyph>
    <TTGlyph name="comma" xMin="-100" yMin="-264" xMax="299" yMax="238">
      <contour>
        <pt x="291" y="238" on="1"/>
        <pt x="299" y="215" on="1"/>
        <pt x="186" y="-20" on="0"/>
        <pt x="29" y="-264" on="1"/>
        <pt x="-100" y="-264" on="1"/>
        <pt x="26" y="22" on="0"/>
        <pt x="104" y="238" on="1"/>
      </contour>
    </TTGlyph>
    <TTGlyph name="commaaccent" xMin="156" yMin="-453" xMax="463" yMax="-125">
      <contour>
        <pt x="156" y="-426" on="1"/>
        <pt x="187" y="-378" on="0"/>
        <pt x="275" y="-203" on="0"/>
        <pt x="303" y="-125" on="1"/>
        <pt x="463" y="-125" on="1"/>
        <pt x="463" y="-145" on="1"/>
        <pt x="441" y="-204" on="0"/>
        <pt x="305" y="-398" on="0"/>
        <pt x="248" y="-453" on="1"/>
        <pt x="156" y="-453" on="1"/>
      </contour>
    </TTGlyph>
    <TTGlyph name="commaaccentrotate" xMin="504" yMin="1241" xMax="811" yMax="1569">
      <contour>
        <pt x="811" y="1542" on="1"/>
        <pt x="775" y="1488" on="0"/>
        <pt x="683" y="1297" on="0"/>
        <pt x="664" y="1241" on="1"/>
        <pt x="504" y="1241" on="1"/>
        <pt x="504" y="1262" on="1"/>
        <pt x="520" y="1308" on="0"/>
        <pt x="658" y="1509" on="0"/>
        <pt x="719" y="1569" on="1"/>
        <pt x="811" y="1569" on="1"/>
      </contour>
    </TTGlyph>
</ttFont>
